<svg width="576" height="531" viewBox="0 0 576 531" fill="none" xmlns="http://www.w3.org/2000/svg">
<rect x="312" y="137" width="255" height="255" rx="127.5" fill="url(#paint0_linear_2855_43)" fill-opacity="0.5"/>
<foreignObject x="-4" y="131" width="265" height="265"><div xmlns="http://www.w3.org/1999/xhtml" style="backdrop-filter:blur(2px);clip-path:url(#bgblur_0_2855_43_clip_path);height:100%;width:100%"></div></foreignObject><rect data-figma-bg-blur-radius="4" y="135" width="257" height="257" rx="128.5" fill="url(#paint1_linear_2855_43)"/>
<path d="M69.3267 255.396C65.9187 255.396 63.3387 254.652 61.5867 253.164C59.8347 251.676 58.8747 249.6 58.7067 246.936H64.2867C64.4307 248.256 64.8627 249.288 65.5827 250.032C66.3267 250.776 67.5747 251.148 69.3267 251.148C70.5987 251.148 71.6187 250.836 72.3867 250.212C73.1787 249.564 73.5747 248.736 73.5747 247.728C73.5747 246.696 73.2387 245.952 72.5667 245.496C71.8947 245.04 70.6107 244.668 68.7147 244.38C65.3547 243.948 62.9667 243.156 61.5507 242.004C60.1347 240.828 59.4267 239.016 59.4267 236.568C59.4267 234.336 60.2787 232.5 61.9827 231.06C63.7107 229.62 65.9787 228.9 68.7867 228.9C71.6907 228.9 73.9587 229.548 75.5907 230.844C77.2467 232.14 78.1947 234.06 78.4347 236.604H73.0707C72.7107 234.324 71.2827 233.184 68.7867 233.184C67.5387 233.184 66.5787 233.448 65.9067 233.976C65.2587 234.504 64.9347 235.212 64.9347 236.1C64.9347 237.06 65.2467 237.78 65.8707 238.26C66.5187 238.716 67.8027 239.088 69.7227 239.376C73.0347 239.808 75.4347 240.588 76.9227 241.716C78.4107 242.82 79.1547 244.644 79.1547 247.188C79.1547 249.54 78.2547 251.496 76.4547 253.056C74.6787 254.616 72.3027 255.396 69.3267 255.396ZM91.562 255.396C88.658 255.396 86.294 254.544 84.47 252.84C82.646 251.112 81.734 248.772 81.734 245.82V245.532C81.734 242.604 82.646 240.24 84.47 238.44C86.318 236.64 88.634 235.74 91.418 235.74C94.058 235.74 96.242 236.544 97.97 238.152C99.722 239.76 100.598 242.148 100.598 245.316V246.756H87.026C87.098 248.316 87.542 249.528 88.358 250.392C89.174 251.256 90.29 251.688 91.706 251.688C93.962 251.688 95.27 250.812 95.63 249.06H100.562C100.25 251.1 99.314 252.672 97.754 253.776C96.194 254.856 94.13 255.396 91.562 255.396ZM87.098 243.552H95.522C95.354 240.744 93.986 239.34 91.418 239.34C90.242 239.34 89.27 239.712 88.502 240.456C87.758 241.176 87.29 242.208 87.098 243.552ZM104.015 255V236.172H109.235V239.16C109.739 238.152 110.507 237.336 111.539 236.712C112.595 236.064 113.867 235.74 115.355 235.74C117.299 235.74 118.835 236.352 119.963 237.576C121.115 238.776 121.691 240.588 121.691 243.012V255H116.471V243.768C116.471 242.472 116.207 241.524 115.679 240.924C115.151 240.3 114.311 239.988 113.159 239.988C111.983 239.988 111.035 240.348 110.315 241.068C109.595 241.764 109.235 242.784 109.235 244.128V255H104.015ZM133.003 255.396C130.459 255.396 128.479 254.856 127.063 253.776C125.647 252.696 124.891 251.136 124.795 249.096H129.655C129.775 249.984 130.087 250.656 130.591 251.112C131.095 251.544 131.887 251.76 132.967 251.76C134.935 251.76 135.919 251.076 135.919 249.708C135.919 249.084 135.631 248.604 135.055 248.268C134.479 247.932 133.495 247.668 132.103 247.476C129.559 247.092 127.759 246.468 126.703 245.604C125.671 244.74 125.155 243.408 125.155 241.608C125.155 239.736 125.875 238.296 127.315 237.288C128.779 236.256 130.543 235.74 132.607 235.74C137.359 235.74 139.951 237.684 140.383 241.572H135.595C135.307 240.06 134.323 239.304 132.643 239.304C131.803 239.304 131.143 239.484 130.663 239.844C130.207 240.204 129.979 240.672 129.979 241.248C129.979 241.848 130.231 242.292 130.735 242.58C131.263 242.868 132.223 243.108 133.615 243.3C136.159 243.66 138.007 244.26 139.159 245.1C140.335 245.94 140.923 247.308 140.923 249.204C140.923 251.22 140.227 252.756 138.835 253.812C137.467 254.868 135.523 255.396 133.003 255.396ZM149.598 249.924C150.414 250.932 151.554 251.436 153.018 251.436C154.482 251.436 155.61 250.932 156.402 249.924C157.218 248.916 157.626 247.512 157.626 245.712V245.46C157.626 243.66 157.218 242.256 156.402 241.248C155.61 240.216 154.482 239.7 153.018 239.7C151.578 239.7 150.45 240.204 149.634 241.212C148.818 242.196 148.41 243.588 148.41 245.388V245.676C148.41 247.476 148.806 248.892 149.598 249.924ZM152.982 255.396C150.126 255.396 147.762 254.52 145.89 252.768C144.018 250.992 143.082 248.664 143.082 245.784V245.496C143.082 242.592 144.018 240.24 145.89 238.44C147.762 236.64 150.138 235.74 153.018 235.74C155.898 235.74 158.262 236.628 160.11 238.404C161.982 240.156 162.918 242.484 162.918 245.388V245.676C162.918 248.604 161.982 250.956 160.11 252.732C158.238 254.508 155.862 255.396 152.982 255.396ZM166.417 255V236.172H171.637V239.772C172.837 237.204 174.865 235.908 177.721 235.884V240.744C175.705 240.72 174.181 241.092 173.149 241.86C172.141 242.604 171.637 243.84 171.637 245.568V255H166.417ZM183.7 261.408L187.012 253.092L179.524 236.172H185.14L189.712 247.476L193.924 236.172H198.928L188.74 261.408H183.7ZM58.2591 295V276.172H63.4791V279.052C63.9831 278.092 64.7391 277.3 65.7471 276.676C66.7551 276.052 67.9191 275.74 69.2391 275.74C71.8551 275.74 73.6071 276.832 74.4951 279.016C75.9591 276.832 78.0711 275.74 80.8311 275.74C82.6791 275.74 84.1671 276.34 85.2951 277.54C86.4471 278.74 87.0231 280.54 87.0231 282.94V295H81.8391V283.516C81.8391 281.188 80.8551 280.024 78.8871 280.024C77.8311 280.024 76.9551 280.36 76.2591 281.032C75.5871 281.704 75.2511 282.652 75.2511 283.876V295H70.0671V283.516C70.0671 281.188 69.0831 280.024 67.1151 280.024C66.0591 280.024 65.1831 280.36 64.4871 281.032C63.8151 281.704 63.4791 282.652 63.4791 283.876V295H58.2591ZM100.158 295.396C97.2537 295.396 94.8897 294.544 93.0657 292.84C91.2417 291.112 90.3297 288.772 90.3297 285.82V285.532C90.3297 282.604 91.2417 280.24 93.0657 278.44C94.9137 276.64 97.2297 275.74 100.014 275.74C102.654 275.74 104.838 276.544 106.566 278.152C108.318 279.76 109.194 282.148 109.194 285.316V286.756H95.6217C95.6937 288.316 96.1377 289.528 96.9537 290.392C97.7697 291.256 98.8857 291.688 100.302 291.688C102.558 291.688 103.866 290.812 104.226 289.06H109.158C108.846 291.1 107.91 292.672 106.35 293.776C104.79 294.856 102.726 295.396 100.158 295.396ZM95.6937 283.552H104.118C103.95 280.744 102.582 279.34 100.014 279.34C98.8377 279.34 97.8657 279.712 97.0977 280.456C96.3537 281.176 95.8857 282.208 95.6937 283.552ZM112.611 295V276.172H117.831V279.052C118.335 278.092 119.091 277.3 120.099 276.676C121.107 276.052 122.271 275.74 123.591 275.74C126.207 275.74 127.959 276.832 128.847 279.016C130.311 276.832 132.423 275.74 135.183 275.74C137.031 275.74 138.519 276.34 139.647 277.54C140.799 278.74 141.375 280.54 141.375 282.94V295H136.191V283.516C136.191 281.188 135.207 280.024 133.239 280.024C132.183 280.024 131.307 280.36 130.611 281.032C129.939 281.704 129.603 282.652 129.603 283.876V295H124.419V283.516C124.419 281.188 123.435 280.024 121.467 280.024C120.411 280.024 119.535 280.36 118.839 281.032C118.167 281.704 117.831 282.652 117.831 283.876V295H112.611ZM151.197 289.924C152.013 290.932 153.153 291.436 154.617 291.436C156.081 291.436 157.209 290.932 158.001 289.924C158.817 288.916 159.225 287.512 159.225 285.712V285.46C159.225 283.66 158.817 282.256 158.001 281.248C157.209 280.216 156.081 279.7 154.617 279.7C153.177 279.7 152.049 280.204 151.233 281.212C150.417 282.196 150.009 283.588 150.009 285.388V285.676C150.009 287.476 150.405 288.892 151.197 289.924ZM154.581 295.396C151.725 295.396 149.361 294.52 147.489 292.768C145.617 290.992 144.681 288.664 144.681 285.784V285.496C144.681 282.592 145.617 280.24 147.489 278.44C149.361 276.64 151.737 275.74 154.617 275.74C157.497 275.74 159.861 276.628 161.709 278.404C163.581 280.156 164.517 282.484 164.517 285.388V285.676C164.517 288.604 163.581 290.956 161.709 292.732C159.837 294.508 157.461 295.396 154.581 295.396ZM168.017 295V276.172H173.237V279.772C174.437 277.204 176.465 275.908 179.321 275.884V280.744C177.305 280.72 175.781 281.092 174.749 281.86C173.741 282.604 173.237 283.84 173.237 285.568V295H168.017ZM185.299 301.408L188.611 293.092L181.123 276.172H186.739L191.311 287.476L195.523 276.172H200.527L190.339 301.408H185.299Z" fill="black"/>
<path d="M363.729 255L372.189 229.26H379.785L388.137 255H382.053L380.289 249.276H370.965L369.201 255H363.729ZM375.645 234.012L372.225 245.136H379.029L375.645 234.012ZM400.031 255V239.88H397.547V236.172H400.031V234.012C400.031 231.852 400.619 230.22 401.795 229.116C402.971 227.988 404.627 227.424 406.763 227.424C407.771 227.424 408.671 227.544 409.463 227.784V231.708C408.863 231.492 408.227 231.384 407.555 231.384C405.995 231.384 405.215 232.212 405.215 233.868V236.172H409.319V239.88H405.215V255H400.031ZM420.5 255.396C417.596 255.396 415.232 254.544 413.408 252.84C411.584 251.112 410.672 248.772 410.672 245.82V245.532C410.672 242.604 411.584 240.24 413.408 238.44C415.256 236.64 417.572 235.74 420.356 235.74C422.996 235.74 425.18 236.544 426.908 238.152C428.66 239.76 429.536 242.148 429.536 245.316V246.756H415.964C416.036 248.316 416.48 249.528 417.296 250.392C418.112 251.256 419.228 251.688 420.644 251.688C422.9 251.688 424.208 250.812 424.568 249.06H429.5C429.188 251.1 428.252 252.672 426.692 253.776C425.132 254.856 423.068 255.396 420.5 255.396ZM416.036 243.552H424.46C424.292 240.744 422.924 239.34 420.356 239.34C419.18 239.34 418.208 239.712 417.44 240.456C416.696 241.176 416.228 242.208 416.036 243.552ZM441.628 255.396C438.724 255.396 436.36 254.544 434.536 252.84C432.712 251.112 431.8 248.772 431.8 245.82V245.532C431.8 242.604 432.712 240.24 434.536 238.44C436.384 236.64 438.7 235.74 441.484 235.74C444.124 235.74 446.308 236.544 448.036 238.152C449.788 239.76 450.664 242.148 450.664 245.316V246.756H437.092C437.164 248.316 437.608 249.528 438.424 250.392C439.24 251.256 440.356 251.688 441.772 251.688C444.028 251.688 445.336 250.812 445.696 249.06H450.628C450.316 251.1 449.38 252.672 447.82 253.776C446.26 254.856 444.196 255.396 441.628 255.396ZM437.164 243.552H445.588C445.42 240.744 444.052 239.34 441.484 239.34C440.308 239.34 439.336 239.712 438.568 240.456C437.824 241.176 437.356 242.208 437.164 243.552ZM454.225 255V227.64H459.409V255H454.225ZM464.315 255V236.172H469.499V255H464.315ZM468.995 232.824C468.419 233.352 467.711 233.616 466.871 233.616C466.031 233.616 465.323 233.352 464.747 232.824C464.195 232.272 463.919 231.588 463.919 230.772C463.919 229.956 464.195 229.284 464.747 228.756C465.323 228.204 466.031 227.928 466.871 227.928C467.711 227.928 468.419 228.204 468.995 228.756C469.571 229.284 469.859 229.956 469.859 230.772C469.859 231.588 469.571 232.272 468.995 232.824ZM474.296 255V236.172H479.516V239.16C480.02 238.152 480.788 237.336 481.82 236.712C482.876 236.064 484.148 235.74 485.636 235.74C487.58 235.74 489.116 236.352 490.244 237.576C491.396 238.776 491.972 240.588 491.972 243.012V255H486.752V243.768C486.752 242.472 486.488 241.524 485.96 240.924C485.432 240.3 484.592 239.988 483.44 239.988C482.264 239.988 481.316 240.348 480.596 241.068C479.876 241.764 479.516 242.784 479.516 244.128V255H474.296ZM504.797 261.948C499.133 261.948 496.013 259.764 495.437 255.396H500.621C500.981 257.22 502.373 258.132 504.797 258.132C507.965 258.132 509.549 256.596 509.549 253.524V250.68C508.997 251.664 508.181 252.492 507.101 253.164C506.021 253.836 504.821 254.172 503.501 254.172C501.149 254.172 499.193 253.356 497.633 251.724C496.073 250.092 495.293 247.908 495.293 245.172V244.92C495.293 242.256 496.085 240.06 497.669 238.332C499.253 236.604 501.221 235.74 503.573 235.74C506.333 235.74 508.325 236.82 509.549 238.98V236.172H514.733V253.524C514.709 256.284 513.833 258.372 512.105 259.788C510.377 261.228 507.941 261.948 504.797 261.948ZM505.049 250.248C506.441 250.248 507.557 249.792 508.397 248.88C509.261 247.944 509.693 246.684 509.693 245.1V244.848C509.693 243.24 509.285 241.98 508.469 241.068C507.677 240.156 506.573 239.7 505.157 239.7C503.717 239.7 502.601 240.168 501.809 241.104C501.017 242.04 500.621 243.3 500.621 244.884V245.172C500.621 246.708 501.029 247.944 501.845 248.88C502.661 249.792 503.729 250.248 505.049 250.248ZM363.115 300.328C359.107 295.6 357.103 290.068 357.103 283.732C357.103 277.396 359.107 271.864 363.115 267.136H367.399C363.919 272.008 362.179 277.54 362.179 283.732C362.179 289.876 363.919 295.408 367.399 300.328H363.115ZM378.523 295.396C375.619 295.396 373.255 294.544 371.431 292.84C369.607 291.112 368.695 288.772 368.695 285.82V285.532C368.695 282.604 369.607 280.24 371.431 278.44C373.279 276.64 375.595 275.74 378.379 275.74C381.019 275.74 383.203 276.544 384.931 278.152C386.683 279.76 387.559 282.148 387.559 285.316V286.756H373.987C374.059 288.316 374.503 289.528 375.319 290.392C376.135 291.256 377.251 291.688 378.667 291.688C380.923 291.688 382.231 290.812 382.591 289.06H387.523C387.211 291.1 386.275 292.672 384.715 293.776C383.155 294.856 381.091 295.396 378.523 295.396ZM374.059 283.552H382.483C382.315 280.744 380.947 279.34 378.379 279.34C377.203 279.34 376.231 279.712 375.463 280.456C374.719 281.176 374.251 282.208 374.059 283.552ZM390.976 295V276.172H396.196V279.052C396.7 278.092 397.456 277.3 398.464 276.676C399.472 276.052 400.636 275.74 401.956 275.74C404.572 275.74 406.324 276.832 407.212 279.016C408.676 276.832 410.788 275.74 413.548 275.74C415.396 275.74 416.884 276.34 418.012 277.54C419.164 278.74 419.74 280.54 419.74 282.94V295H414.556V283.516C414.556 281.188 413.572 280.024 411.604 280.024C410.548 280.024 409.672 280.36 408.976 281.032C408.304 281.704 407.968 282.652 407.968 283.876V295H402.784V283.516C402.784 281.188 401.8 280.024 399.832 280.024C398.776 280.024 397.9 280.36 397.204 281.032C396.532 281.704 396.196 282.652 396.196 283.876V295H390.976ZM429.563 289.924C430.379 290.932 431.519 291.436 432.983 291.436C434.447 291.436 435.575 290.932 436.367 289.924C437.183 288.916 437.591 287.512 437.591 285.712V285.46C437.591 283.66 437.183 282.256 436.367 281.248C435.575 280.216 434.447 279.7 432.983 279.7C431.543 279.7 430.415 280.204 429.599 281.212C428.783 282.196 428.375 283.588 428.375 285.388V285.676C428.375 287.476 428.771 288.892 429.563 289.924ZM432.947 295.396C430.091 295.396 427.727 294.52 425.855 292.768C423.983 290.992 423.047 288.664 423.047 285.784V285.496C423.047 282.592 423.983 280.24 425.855 278.44C427.727 276.64 430.103 275.74 432.983 275.74C435.863 275.74 438.227 276.628 440.075 278.404C441.947 280.156 442.883 282.484 442.883 285.388V285.676C442.883 288.604 441.947 290.956 440.075 292.732C438.203 294.508 435.827 295.396 432.947 295.396ZM453.258 295.36C451.266 295.36 449.754 294.856 448.722 293.848C447.69 292.84 447.174 291.364 447.174 289.42V279.88H444.762V276.172H447.174V272.104H452.358V276.172H456.318V279.88H452.358V288.952C452.358 290.44 453.054 291.184 454.446 291.184C455.19 291.184 455.85 291.064 456.426 290.824V294.856C455.466 295.192 454.41 295.36 453.258 295.36ZM460.096 295V276.172H465.28V295H460.096ZM464.776 272.824C464.2 273.352 463.492 273.616 462.652 273.616C461.812 273.616 461.104 273.352 460.528 272.824C459.976 272.272 459.7 271.588 459.7 270.772C459.7 269.956 459.976 269.284 460.528 268.756C461.104 268.204 461.812 267.928 462.652 267.928C463.492 267.928 464.2 268.204 464.776 268.756C465.352 269.284 465.64 269.956 465.64 270.772C465.64 271.588 465.352 272.272 464.776 272.824ZM475.441 289.924C476.257 290.932 477.397 291.436 478.861 291.436C480.325 291.436 481.453 290.932 482.245 289.924C483.061 288.916 483.469 287.512 483.469 285.712V285.46C483.469 283.66 483.061 282.256 482.245 281.248C481.453 280.216 480.325 279.7 478.861 279.7C477.421 279.7 476.293 280.204 475.477 281.212C474.661 282.196 474.253 283.588 474.253 285.388V285.676C474.253 287.476 474.649 288.892 475.441 289.924ZM478.825 295.396C475.969 295.396 473.605 294.52 471.733 292.768C469.861 290.992 468.925 288.664 468.925 285.784V285.496C468.925 282.592 469.861 280.24 471.733 278.44C473.605 276.64 475.981 275.74 478.861 275.74C481.741 275.74 484.105 276.628 485.953 278.404C487.825 280.156 488.761 282.484 488.761 285.388V285.676C488.761 288.604 487.825 290.956 485.953 292.732C484.081 294.508 481.705 295.396 478.825 295.396ZM492.261 295V276.172H497.481V279.16C497.985 278.152 498.753 277.336 499.785 276.712C500.841 276.064 502.113 275.74 503.601 275.74C505.545 275.74 507.081 276.352 508.209 277.576C509.361 278.776 509.937 280.588 509.937 283.012V295H504.717V283.768C504.717 282.472 504.453 281.524 503.925 280.924C503.397 280.3 502.557 279.988 501.405 279.988C500.229 279.988 499.281 280.348 498.561 281.068C497.841 281.764 497.481 282.784 497.481 284.128V295H492.261ZM512.645 300.256C516.101 295.36 517.829 289.828 517.829 283.66C517.829 277.54 516.101 272.008 512.645 267.064H516.929C520.913 271.816 522.905 277.348 522.905 283.66C522.905 289.972 520.913 295.504 516.929 300.256H512.645Z" fill="black"/>
<path d="M194.098 430.089L193.406 430.811V430.811L194.098 430.089ZM191.979 427.079C191.427 427.091 190.989 427.548 191.001 428.1L191.192 437.098C191.204 437.65 191.661 438.088 192.213 438.076C192.765 438.065 193.203 437.608 193.192 437.055L193.022 429.057L201.02 428.887C201.572 428.875 202.01 428.418 201.998 427.866C201.986 427.314 201.529 426.876 200.977 426.888L191.979 427.079ZM194.79 429.367L192.692 427.357L191.309 428.801L193.406 430.811L194.79 429.367ZM382.386 427.372C330.806 478.952 247.456 479.838 194.79 429.367L193.406 430.811C246.857 482.035 331.451 481.135 383.8 428.786L382.386 427.372Z" fill="black"/>
<path d="M383.495 126.123L382.779 126.821L382.779 126.821L383.495 126.123ZM385.311 129C385.864 129.007 386.317 128.565 386.324 128.013L386.44 119.014C386.447 118.461 386.005 118.008 385.452 118.001C384.9 117.994 384.447 118.436 384.44 118.988L384.337 126.987L376.338 126.885C375.786 126.878 375.332 127.32 375.325 127.872C375.318 128.424 375.76 128.877 376.312 128.884L385.311 129ZM382.779 126.821L384.608 128.698L386.04 127.302L384.211 125.425L382.779 126.821ZM193.987 119.849C248.7 71.4348 331.786 74.5031 382.779 126.821L384.211 125.425C332.473 72.3429 248.174 69.2299 192.662 118.352L193.987 119.849Z" fill="black"/>
<path d="M200.585 28.288C197.747 28.288 195.635 27.6267 194.249 26.304C192.883 24.96 192.083 23.2 191.849 21.024H194.536C194.643 21.7707 194.793 22.4213 194.985 22.976C195.198 23.5307 195.518 24.0533 195.945 24.544C196.371 25.0347 196.969 25.408 197.737 25.664C198.526 25.92 199.475 26.048 200.585 26.048C202.078 26.048 203.315 25.6533 204.297 24.864C205.299 24.0533 205.801 23.008 205.801 21.728C205.801 20.4053 205.417 19.4347 204.649 18.816C203.881 18.176 202.419 17.6853 200.265 17.344C197.683 16.96 195.763 16.2987 194.505 15.36C193.246 14.4 192.617 12.96 192.617 11.04C192.617 9.26933 193.31 7.79733 194.697 6.624C196.083 5.42933 197.843 4.832 199.977 4.832C202.281 4.832 204.115 5.376 205.481 6.464C206.846 7.552 207.635 9.10933 207.849 11.136H205.353C205.075 9.70667 204.51 8.672 203.657 8.032C202.803 7.392 201.577 7.072 199.977 7.072C198.462 7.072 197.289 7.41333 196.457 8.096C195.625 8.77867 195.209 9.67467 195.209 10.784C195.209 11.9787 195.571 12.8747 196.297 13.472C197.022 14.0693 198.494 14.5387 200.713 14.88C203.401 15.3067 205.363 16.0107 206.601 16.992C207.859 17.952 208.489 19.4667 208.489 21.536C208.489 23.456 207.731 25.0667 206.217 26.368C204.723 27.648 202.846 28.288 200.585 28.288ZM219.911 28.288C217.522 28.288 215.57 27.52 214.055 25.984C212.562 24.4267 211.815 22.368 211.815 19.808V19.552C211.815 17.0347 212.54 14.976 213.991 13.376C215.463 11.776 217.351 10.976 219.655 10.976C221.788 10.976 223.57 11.6693 224.999 13.056C226.45 14.4213 227.175 16.5013 227.175 19.296V20.16H214.567C214.631 22.08 215.111 23.552 216.007 24.576C216.924 25.5787 218.236 26.08 219.943 26.08C222.567 26.08 224.05 25.1093 224.391 23.168H227.047C226.77 24.8107 225.991 26.08 224.711 26.976C223.431 27.8507 221.831 28.288 219.911 28.288ZM214.663 18.016H224.455C224.22 14.7947 222.62 13.184 219.655 13.184C218.311 13.184 217.202 13.6213 216.327 14.496C215.452 15.3493 214.898 16.5227 214.663 18.016ZM231.251 28V11.264H233.907V13.92C234.312 13.0667 234.984 12.3627 235.923 11.808C236.861 11.2533 237.981 10.976 239.283 10.976C241.117 10.976 242.557 11.52 243.603 12.608C244.648 13.696 245.171 15.4027 245.171 17.728V28H242.515V17.536C242.515 16.064 242.195 14.9867 241.555 14.304C240.915 13.6213 239.923 13.28 238.579 13.28C237.277 13.28 236.168 13.6853 235.251 14.496C234.355 15.3067 233.907 16.4267 233.907 17.856V28H231.251ZM256.68 28.288C254.44 28.288 252.616 27.5413 251.208 26.048C249.821 24.5547 249.128 22.528 249.128 19.968V19.712C249.128 17.152 249.853 15.0613 251.304 13.44C252.754 11.7973 254.632 10.976 256.936 10.976C259.41 10.976 261.234 11.968 262.408 13.952V3.264H265.064V28H262.408V25.12C261.896 25.9733 261.106 26.72 260.04 27.36C258.973 27.9787 257.853 28.288 256.68 28.288ZM256.968 26.08C258.61 26.08 259.944 25.5467 260.968 24.48C261.992 23.392 262.504 21.8133 262.504 19.744V19.488C262.504 17.3973 262.034 15.8293 261.096 14.784C260.178 13.7173 258.877 13.184 257.192 13.184C255.528 13.184 254.226 13.7493 253.288 14.88C252.349 15.9893 251.88 17.5573 251.88 19.584V19.84C251.88 21.8667 252.349 23.4133 253.288 24.48C254.248 25.5467 255.474 26.08 256.968 26.08ZM275.622 28.288C273.617 28.288 272.038 27.808 270.886 26.848C269.755 25.888 269.147 24.5547 269.062 22.848H271.654C271.867 25.0027 273.179 26.08 275.59 26.08C278.022 26.08 279.238 25.1947 279.238 23.424C279.238 22.592 278.929 21.984 278.31 21.6C277.713 21.1947 276.721 20.864 275.334 20.608C273.158 20.2027 271.643 19.648 270.79 18.944C269.937 18.2187 269.51 17.1307 269.51 15.68C269.51 14.2293 270.086 13.088 271.238 12.256C272.411 11.4027 273.723 10.976 275.174 10.976C278.801 10.976 280.817 12.5867 281.222 15.808H278.662C278.47 14.8907 278.097 14.2293 277.542 13.824C276.987 13.3973 276.187 13.184 275.142 13.184C274.182 13.184 273.414 13.408 272.838 13.856C272.262 14.2827 271.974 14.8587 271.974 15.584C271.974 16.352 272.241 16.9173 272.774 17.28C273.329 17.6427 274.363 17.9627 275.878 18.24C276.881 18.432 277.681 18.624 278.278 18.816C278.897 18.9867 279.494 19.2533 280.07 19.616C280.667 19.9787 281.094 20.4587 281.35 21.056C281.627 21.632 281.766 22.3467 281.766 23.2C281.766 24.7573 281.233 25.9947 280.166 26.912C279.121 27.8293 277.606 28.288 275.622 28.288ZM294.346 28V11.264H297.002V28H294.346ZM296.842 7.264C296.5 7.60533 296.095 7.776 295.626 7.776C295.156 7.776 294.74 7.60533 294.378 7.264C294.036 6.92267 293.866 6.50667 293.866 6.016C293.866 5.52533 294.036 5.10933 294.378 4.768C294.74 4.42667 295.156 4.256 295.626 4.256C296.095 4.256 296.5 4.42667 296.842 4.768C297.204 5.10933 297.386 5.52533 297.386 6.016C297.386 6.50667 297.204 6.92267 296.842 7.264ZM302.438 28V11.264H305.094V13.92C305.499 13.0667 306.171 12.3627 307.11 11.808C308.049 11.2533 309.169 10.976 310.47 10.976C312.305 10.976 313.745 11.52 314.79 12.608C315.835 13.696 316.358 15.4027 316.358 17.728V28H313.702V17.536C313.702 16.064 313.382 14.9867 312.742 14.304C312.102 13.6213 311.11 13.28 309.766 13.28C308.465 13.28 307.355 13.6853 306.438 14.496C305.542 15.3067 305.094 16.4267 305.094 17.856V28H302.438ZM321.563 33.824V11.264H324.219V14.08C324.731 13.2267 325.51 12.5013 326.555 11.904C327.6 11.2853 328.71 10.976 329.883 10.976C332.123 10.976 333.947 11.744 335.355 13.28C336.784 14.7947 337.499 16.832 337.499 19.392V19.648C337.499 22.2293 336.795 24.32 335.387 25.92C334 27.4987 332.166 28.288 329.883 28.288C328.582 28.288 327.44 28.0107 326.459 27.456C325.478 26.88 324.731 26.144 324.219 25.248V33.824H321.563ZM329.627 26.08C331.291 26.08 332.56 25.536 333.435 24.448C334.31 23.36 334.747 21.8027 334.747 19.776V19.52C334.747 17.4933 334.256 15.936 333.275 14.848C332.315 13.7387 331.088 13.184 329.595 13.184C327.974 13.184 326.651 13.728 325.627 14.816C324.624 15.8827 324.123 17.4507 324.123 19.52V19.776C324.123 21.8453 324.614 23.4133 325.595 24.48C326.598 25.5467 327.942 26.08 329.627 26.08ZM347.29 28.288C345.519 28.288 344.1 27.7653 343.034 26.72C341.988 25.6747 341.466 24.0533 341.466 21.856V11.264H344.122V21.728C344.122 23.2 344.431 24.2773 345.05 24.96C345.69 25.6427 346.671 25.984 347.994 25.984C349.252 25.984 350.33 25.5787 351.226 24.768C352.143 23.9573 352.602 22.8373 352.602 21.408V11.264H355.258V28H352.602V25.344C352.196 26.1973 351.524 26.9013 350.586 27.456C349.668 28.0107 348.57 28.288 347.29 28.288ZM365.714 28.224C364.242 28.224 363.122 27.8293 362.354 27.04C361.586 26.2507 361.202 25.1733 361.202 23.808V13.504H358.802V11.264H361.202V7.456H363.858V11.264H367.762V13.504H363.858V23.552C363.858 25.1733 364.551 25.984 365.938 25.984C366.706 25.984 367.388 25.8667 367.986 25.632V27.872C367.324 28.1067 366.567 28.224 365.714 28.224ZM377.185 28.288C375.179 28.288 373.601 27.808 372.449 26.848C371.318 25.888 370.71 24.5547 370.625 22.848H373.217C373.43 25.0027 374.742 26.08 377.153 26.08C379.585 26.08 380.801 25.1947 380.801 23.424C380.801 22.592 380.491 21.984 379.873 21.6C379.275 21.1947 378.283 20.864 376.897 20.608C374.721 20.2027 373.206 19.648 372.353 18.944C371.499 18.2187 371.073 17.1307 371.073 15.68C371.073 14.2293 371.649 13.088 372.801 12.256C373.974 11.4027 375.286 10.976 376.737 10.976C380.363 10.976 382.379 12.5867 382.785 15.808H380.225C380.033 14.8907 379.659 14.2293 379.105 13.824C378.55 13.3973 377.75 13.184 376.705 13.184C375.745 13.184 374.977 13.408 374.401 13.856C373.825 14.2827 373.536 14.8587 373.536 15.584C373.536 16.352 373.803 16.9173 374.337 17.28C374.891 17.6427 375.926 17.9627 377.441 18.24C378.443 18.432 379.243 18.624 379.841 18.816C380.459 18.9867 381.057 19.2533 381.633 19.616C382.23 19.9787 382.657 20.4587 382.913 21.056C383.19 21.632 383.329 22.3467 383.329 23.2C383.329 24.7573 382.795 25.9947 381.729 26.912C380.683 27.8293 379.169 28.288 377.185 28.288ZM189.93 61.08C191.594 61.08 192.916 60.504 193.898 59.352C194.9 58.2 195.402 56.6747 195.402 54.776V54.552C195.402 52.6107 194.9 51.064 193.898 49.912C192.916 48.76 191.594 48.184 189.93 48.184C188.244 48.184 186.911 48.76 185.93 49.912C184.948 51.064 184.458 52.6 184.458 54.52V54.776C184.458 56.696 184.948 58.232 185.93 59.384C186.911 60.5147 188.244 61.08 189.93 61.08ZM189.898 63.288C187.53 63.288 185.567 62.488 184.01 60.888C182.474 59.2667 181.706 57.2293 181.706 54.776V54.52C181.706 52.024 182.474 49.976 184.01 48.376C185.567 46.776 187.54 45.976 189.93 45.976C192.319 45.976 194.282 46.776 195.818 48.376C197.375 49.9547 198.154 51.992 198.154 54.488V54.744C198.154 57.2613 197.375 59.32 195.818 60.92C194.26 62.4987 192.287 63.288 189.898 63.288ZM202.842 63V48.504H200.442V46.264H202.842V43.544C202.842 41.816 203.258 40.4933 204.09 39.576C204.943 38.6373 206.191 38.168 207.834 38.168C208.517 38.168 209.178 38.2747 209.818 38.488V40.728C209.221 40.4933 208.591 40.376 207.93 40.376C206.309 40.376 205.498 41.336 205.498 43.256V46.264H209.594V48.504H205.498V63H202.842ZM225.157 63L220.005 46.264H222.885L226.789 59.736L230.853 46.264H233.157L236.965 59.736L240.901 46.264H243.621L238.405 63H235.461L231.973 50.456L228.069 63H225.157ZM247.204 63V38.264H249.86V48.92C250.265 48.0667 250.937 47.3627 251.876 46.808C252.814 46.2533 253.934 45.976 255.236 45.976C257.07 45.976 258.51 46.52 259.556 47.608C260.601 48.696 261.124 50.4027 261.124 52.728V63H258.468V52.536C258.468 51.064 258.148 49.9867 257.508 49.304C256.868 48.6213 255.876 48.28 254.532 48.28C253.23 48.28 252.121 48.6853 251.204 49.496C250.308 50.3067 249.86 51.4267 249.86 52.856V63H247.204ZM270.521 63.288C268.878 63.288 267.534 62.8827 266.489 62.072C265.465 61.24 264.953 60.0027 264.953 58.36C264.953 56.568 265.742 55.256 267.321 54.424C268.921 53.592 270.926 53.176 273.337 53.176H275.737V51.96C275.737 50.616 275.459 49.656 274.905 49.08C274.35 48.4827 273.433 48.184 272.153 48.184C269.849 48.184 268.569 49.1867 268.313 51.192H265.657C265.827 49.4 266.531 48.088 267.769 47.256C269.006 46.4027 270.51 45.976 272.281 45.976C276.355 45.976 278.393 47.9707 278.393 51.96V63H275.737V60.888C274.457 62.488 272.718 63.288 270.521 63.288ZM270.777 61.176C272.227 61.176 273.411 60.824 274.329 60.12C275.267 59.3947 275.737 58.4027 275.737 57.144V55.064H273.433C269.55 55.064 267.609 56.1627 267.609 58.36C267.609 60.2373 268.665 61.176 270.777 61.176ZM288.698 63.224C287.226 63.224 286.106 62.8293 285.338 62.04C284.57 61.2507 284.186 60.1733 284.186 58.808V48.504H281.786V46.264H284.186V42.456H286.842V46.264H290.746V48.504H286.842V58.552C286.842 60.1733 287.535 60.984 288.922 60.984C289.69 60.984 290.373 60.8667 290.97 60.632V62.872C290.309 63.1067 289.551 63.224 288.698 63.224ZM308.542 63.224C307.07 63.224 305.95 62.8293 305.182 62.04C304.414 61.2507 304.03 60.1733 304.03 58.808V48.504H301.63V46.264H304.03V42.456H306.686V46.264H310.59V48.504H306.686V58.552C306.686 60.1733 307.379 60.984 308.766 60.984C309.534 60.984 310.216 60.8667 310.814 60.632V62.872C310.152 63.1067 309.395 63.224 308.542 63.224ZM321.805 61.08C323.469 61.08 324.791 60.504 325.773 59.352C326.775 58.2 327.277 56.6747 327.277 54.776V54.552C327.277 52.6107 326.775 51.064 325.773 49.912C324.791 48.76 323.469 48.184 321.805 48.184C320.119 48.184 318.786 48.76 317.805 49.912C316.823 51.064 316.333 52.6 316.333 54.52V54.776C316.333 56.696 316.823 58.232 317.805 59.384C318.786 60.5147 320.119 61.08 321.805 61.08ZM321.773 63.288C319.405 63.288 317.442 62.488 315.885 60.888C314.349 59.2667 313.581 57.2293 313.581 54.776V54.52C313.581 52.024 314.349 49.976 315.885 48.376C317.442 46.776 319.415 45.976 321.805 45.976C324.194 45.976 326.157 46.776 327.693 48.376C329.25 49.9547 330.029 51.992 330.029 54.488V54.744C330.029 57.2613 329.25 59.32 327.693 60.92C326.135 62.4987 324.162 63.288 321.773 63.288ZM343.186 63V48.504H340.786V46.264H343.186V43.544C343.186 41.816 343.602 40.4933 344.434 39.576C345.287 38.6373 346.535 38.168 348.178 38.168C348.861 38.168 349.522 38.2747 350.162 38.488V40.728C349.565 40.4933 348.935 40.376 348.274 40.376C346.653 40.376 345.842 41.336 345.842 43.256V46.264H349.938V48.504H345.842V63H343.186ZM359.708 63.288C357.319 63.288 355.367 62.52 353.852 60.984C352.359 59.4267 351.612 57.368 351.612 54.808V54.552C351.612 52.0347 352.337 49.976 353.788 48.376C355.26 46.776 357.148 45.976 359.452 45.976C361.585 45.976 363.367 46.6693 364.796 48.056C366.247 49.4213 366.972 51.5013 366.972 54.296V55.16H354.364C354.428 57.08 354.908 58.552 355.804 59.576C356.721 60.5787 358.033 61.08 359.74 61.08C362.364 61.08 363.847 60.1093 364.188 58.168H366.844C366.567 59.8107 365.788 61.08 364.508 61.976C363.228 62.8507 361.628 63.288 359.708 63.288ZM354.46 53.016H364.252C364.017 49.7947 362.417 48.184 359.452 48.184C358.108 48.184 356.999 48.6213 356.124 49.496C355.249 50.3493 354.695 51.5227 354.46 53.016ZM377.895 63.288C375.506 63.288 373.554 62.52 372.039 60.984C370.546 59.4267 369.799 57.368 369.799 54.808V54.552C369.799 52.0347 370.525 49.976 371.975 48.376C373.447 46.776 375.335 45.976 377.639 45.976C379.773 45.976 381.554 46.6693 382.983 48.056C384.434 49.4213 385.159 51.5013 385.159 54.296V55.16H372.551C372.615 57.08 373.095 58.552 373.991 59.576C374.909 60.5787 376.221 61.08 377.927 61.08C380.551 61.08 382.034 60.1093 382.375 58.168H385.031C384.754 59.8107 383.975 61.08 382.695 61.976C381.415 62.8507 379.815 63.288 377.895 63.288ZM372.647 53.016H382.439C382.205 49.7947 380.605 48.184 377.639 48.184C376.295 48.184 375.186 48.6213 374.311 49.496C373.437 50.3493 372.882 51.5227 372.647 53.016ZM389.299 63V38.264H391.987V63H389.299Z" fill="black"/>
<path d="M122.896 515V492.12H129.776C134.682 492.12 137.136 494.093 137.136 498.04V498.168C137.136 500.6 135.984 502.211 133.68 503C135.322 503.384 136.496 504.013 137.2 504.888C137.904 505.763 138.256 506.957 138.256 508.472V508.6C138.256 510.712 137.584 512.312 136.24 513.4C134.917 514.467 133.082 515 130.736 515H122.896ZM125.616 512.824H130.672C133.914 512.824 135.536 511.405 135.536 508.568V508.44C135.536 507.011 135.109 505.965 134.256 505.304C133.424 504.621 132.101 504.28 130.288 504.28H125.616V512.824ZM125.616 502.104H129.776C131.44 502.104 132.624 501.795 133.328 501.176C134.053 500.536 134.416 499.501 134.416 498.072V497.944C134.416 496.664 134.032 495.736 133.264 495.16C132.517 494.584 131.333 494.296 129.712 494.296H125.616V502.104ZM149.586 513.08C151.25 513.08 152.573 512.504 153.554 511.352C154.557 510.2 155.058 508.675 155.058 506.776V506.552C155.058 504.611 154.557 503.064 153.554 501.912C152.573 500.76 151.25 500.184 149.586 500.184C147.901 500.184 146.567 500.76 145.586 501.912C144.605 503.064 144.114 504.6 144.114 506.52V506.776C144.114 508.696 144.605 510.232 145.586 511.384C146.567 512.515 147.901 513.08 149.586 513.08ZM149.554 515.288C147.186 515.288 145.223 514.488 143.666 512.888C142.13 511.267 141.362 509.229 141.362 506.776V506.52C141.362 504.024 142.13 501.976 143.666 500.376C145.223 498.776 147.197 497.976 149.586 497.976C151.975 497.976 153.938 498.776 155.474 500.376C157.031 501.955 157.81 503.992 157.81 506.488V506.744C157.81 509.261 157.031 511.32 155.474 512.92C153.917 514.499 151.943 515.288 149.554 515.288ZM168.898 513.08C170.562 513.08 171.885 512.504 172.866 511.352C173.869 510.2 174.37 508.675 174.37 506.776V506.552C174.37 504.611 173.869 503.064 172.866 501.912C171.885 500.76 170.562 500.184 168.898 500.184C167.213 500.184 165.88 500.76 164.898 501.912C163.917 503.064 163.426 504.6 163.426 506.52V506.776C163.426 508.696 163.917 510.232 164.898 511.384C165.88 512.515 167.213 513.08 168.898 513.08ZM168.866 515.288C166.498 515.288 164.536 514.488 162.978 512.888C161.442 511.267 160.674 509.229 160.674 506.776V506.52C160.674 504.024 161.442 501.976 162.978 500.376C164.536 498.776 166.509 497.976 168.898 497.976C171.288 497.976 173.25 498.776 174.786 500.376C176.344 501.955 177.122 503.992 177.122 506.488V506.744C177.122 509.261 176.344 511.32 174.786 512.92C173.229 514.499 171.256 515.288 168.866 515.288ZM186.419 515.288C184.414 515.288 182.835 514.808 181.683 513.848C180.552 512.888 179.944 511.555 179.859 509.848H182.451C182.664 512.003 183.976 513.08 186.387 513.08C188.819 513.08 190.035 512.195 190.035 510.424C190.035 509.592 189.726 508.984 189.107 508.6C188.51 508.195 187.518 507.864 186.131 507.608C183.955 507.203 182.44 506.648 181.587 505.944C180.734 505.219 180.307 504.131 180.307 502.68C180.307 501.229 180.883 500.088 182.035 499.256C183.208 498.403 184.52 497.976 185.971 497.976C189.598 497.976 191.614 499.587 192.019 502.808H189.459C189.267 501.891 188.894 501.229 188.339 500.824C187.784 500.397 186.984 500.184 185.939 500.184C184.979 500.184 184.211 500.408 183.635 500.856C183.059 501.283 182.771 501.859 182.771 502.584C182.771 503.352 183.038 503.917 183.571 504.28C184.126 504.643 185.16 504.963 186.675 505.24C187.678 505.432 188.478 505.624 189.075 505.816C189.694 505.987 190.291 506.253 190.867 506.616C191.464 506.979 191.891 507.459 192.147 508.056C192.424 508.632 192.563 509.347 192.563 510.2C192.563 511.757 192.03 512.995 190.963 513.912C189.918 514.829 188.403 515.288 186.419 515.288ZM201.698 515.224C200.226 515.224 199.106 514.829 198.338 514.04C197.57 513.251 197.186 512.173 197.186 510.808V500.504H194.786V498.264H197.186V494.456H199.842V498.264H203.746V500.504H199.842V510.552C199.842 512.173 200.535 512.984 201.922 512.984C202.69 512.984 203.373 512.867 203.97 512.632V514.872C203.309 515.107 202.551 515.224 201.698 515.224ZM221.638 515.288C219.632 515.288 218.054 514.808 216.902 513.848C215.771 512.888 215.163 511.555 215.078 509.848H217.67C217.883 512.003 219.195 513.08 221.606 513.08C224.038 513.08 225.254 512.195 225.254 510.424C225.254 509.592 224.944 508.984 224.326 508.6C223.728 508.195 222.736 507.864 221.35 507.608C219.174 507.203 217.659 506.648 216.806 505.944C215.952 505.219 215.526 504.131 215.526 502.68C215.526 501.229 216.102 500.088 217.254 499.256C218.427 498.403 219.739 497.976 221.19 497.976C224.816 497.976 226.832 499.587 227.238 502.808H224.678C224.486 501.891 224.112 501.229 223.558 500.824C223.003 500.397 222.203 500.184 221.158 500.184C220.198 500.184 219.43 500.408 218.854 500.856C218.278 501.283 217.99 501.859 217.99 502.584C217.99 503.352 218.256 503.917 218.79 504.28C219.344 504.643 220.379 504.963 221.894 505.24C222.896 505.432 223.696 505.624 224.294 505.816C224.912 505.987 225.51 506.253 226.086 506.616C226.683 506.979 227.11 507.459 227.366 508.056C227.643 508.632 227.782 509.347 227.782 510.2C227.782 511.757 227.248 512.995 226.182 513.912C225.136 514.829 223.622 515.288 221.638 515.288ZM238.677 515.288C236.287 515.288 234.335 514.52 232.821 512.984C231.327 511.427 230.581 509.368 230.581 506.808V506.552C230.581 504.035 231.306 501.976 232.757 500.376C234.229 498.776 236.117 497.976 238.421 497.976C240.554 497.976 242.335 498.669 243.765 500.056C245.215 501.421 245.941 503.501 245.941 506.296V507.16H233.333C233.397 509.08 233.877 510.552 234.773 511.576C235.69 512.579 237.002 513.08 238.709 513.08C241.333 513.08 242.815 512.109 243.157 510.168H245.813C245.535 511.811 244.757 513.08 243.477 513.976C242.197 514.851 240.597 515.288 238.677 515.288ZM233.429 505.016H243.221C242.986 501.795 241.386 500.184 238.421 500.184C237.077 500.184 235.967 500.621 235.093 501.496C234.218 502.349 233.663 503.523 233.429 505.016ZM250.016 515V498.264H252.672V500.92C253.077 500.067 253.749 499.363 254.688 498.808C255.627 498.253 256.747 497.976 258.048 497.976C259.883 497.976 261.323 498.52 262.368 499.608C263.413 500.696 263.936 502.403 263.936 504.728V515H261.28V504.536C261.28 503.064 260.96 501.987 260.32 501.304C259.68 500.621 258.688 500.28 257.344 500.28C256.043 500.28 254.933 500.685 254.016 501.496C253.12 502.307 252.672 503.427 252.672 504.856V515H250.016ZM274.325 515.288C272.32 515.288 270.741 514.808 269.589 513.848C268.458 512.888 267.85 511.555 267.765 509.848H270.357C270.57 512.003 271.882 513.08 274.293 513.08C276.725 513.08 277.941 512.195 277.941 510.424C277.941 509.592 277.632 508.984 277.013 508.6C276.416 508.195 275.424 507.864 274.037 507.608C271.861 507.203 270.346 506.648 269.493 505.944C268.64 505.219 268.213 504.131 268.213 502.68C268.213 501.229 268.789 500.088 269.941 499.256C271.114 498.403 272.426 497.976 273.877 497.976C277.504 497.976 279.52 499.587 279.925 502.808H277.365C277.173 501.891 276.8 501.229 276.245 500.824C275.69 500.397 274.89 500.184 273.845 500.184C272.885 500.184 272.117 500.408 271.541 500.856C270.965 501.283 270.677 501.859 270.677 502.584C270.677 503.352 270.944 503.917 271.477 504.28C272.032 504.643 273.066 504.963 274.581 505.24C275.584 505.432 276.384 505.624 276.981 505.816C277.6 505.987 278.197 506.253 278.773 506.616C279.37 506.979 279.797 507.459 280.053 508.056C280.33 508.632 280.469 509.347 280.469 510.2C280.469 511.757 279.936 512.995 278.869 513.912C277.824 514.829 276.309 515.288 274.325 515.288ZM291.492 513.08C293.156 513.08 294.479 512.504 295.46 511.352C296.463 510.2 296.964 508.675 296.964 506.776V506.552C296.964 504.611 296.463 503.064 295.46 501.912C294.479 500.76 293.156 500.184 291.492 500.184C289.807 500.184 288.473 500.76 287.492 501.912C286.511 503.064 286.02 504.6 286.02 506.52V506.776C286.02 508.696 286.511 510.232 287.492 511.384C288.473 512.515 289.807 513.08 291.492 513.08ZM291.46 515.288C289.092 515.288 287.129 514.488 285.572 512.888C284.036 511.267 283.268 509.229 283.268 506.776V506.52C283.268 504.024 284.036 501.976 285.572 500.376C287.129 498.776 289.103 497.976 291.492 497.976C293.881 497.976 295.844 498.776 297.38 500.376C298.937 501.955 299.716 503.992 299.716 506.488V506.744C299.716 509.261 298.937 511.32 297.38 512.92C295.823 514.499 293.849 515.288 291.46 515.288ZM303.829 515V498.264H306.485V501.272C307.061 500.227 307.765 499.427 308.597 498.872C309.45 498.317 310.581 498.019 311.989 497.976V500.472C310.154 500.557 308.778 500.984 307.861 501.752C306.943 502.52 306.485 503.875 306.485 505.816V515H303.829ZM317.52 520.824L320.688 513.272L314.128 498.264H316.976L322.096 510.264L326.736 498.264H329.456L320.208 520.824H317.52ZM348.366 515.288C345.998 515.288 344.036 514.52 342.478 512.984C340.942 511.427 340.174 509.368 340.174 506.808V506.552C340.174 504.035 340.953 501.976 342.51 500.376C344.089 498.776 346.02 497.976 348.302 497.976C350.222 497.976 351.854 498.456 353.198 499.416C354.542 500.355 355.332 501.827 355.566 503.832H352.942C352.558 501.4 351.012 500.184 348.302 500.184C346.745 500.184 345.454 500.771 344.43 501.944C343.428 503.096 342.926 504.632 342.926 506.552V506.808C342.926 508.813 343.417 510.36 344.398 511.448C345.401 512.536 346.734 513.08 348.398 513.08C349.657 513.08 350.734 512.728 351.63 512.024C352.548 511.299 353.07 510.285 353.198 508.984H355.662C355.492 510.819 354.724 512.333 353.358 513.528C352.014 514.701 350.35 515.288 348.366 515.288ZM366.648 513.08C368.312 513.08 369.635 512.504 370.616 511.352C371.619 510.2 372.12 508.675 372.12 506.776V506.552C372.12 504.611 371.619 503.064 370.616 501.912C369.635 500.76 368.312 500.184 366.648 500.184C364.963 500.184 363.63 500.76 362.648 501.912C361.667 503.064 361.176 504.6 361.176 506.52V506.776C361.176 508.696 361.667 510.232 362.648 511.384C363.63 512.515 364.963 513.08 366.648 513.08ZM366.616 515.288C364.248 515.288 362.286 514.488 360.728 512.888C359.192 511.267 358.424 509.229 358.424 506.776V506.52C358.424 504.024 359.192 501.976 360.728 500.376C362.286 498.776 364.259 497.976 366.648 497.976C369.038 497.976 371 498.776 372.536 500.376C374.094 501.955 374.872 503.992 374.872 506.488V506.744C374.872 509.261 374.094 511.32 372.536 512.92C370.979 514.499 369.006 515.288 366.616 515.288ZM378.985 515V498.264H381.641V501.272C382.217 500.227 382.921 499.427 383.753 498.872C384.606 498.317 385.737 498.019 387.145 497.976V500.472C385.31 500.557 383.934 500.984 383.017 501.752C382.1 502.52 381.641 503.875 381.641 505.816V515H378.985ZM396.26 515.224C394.788 515.224 393.668 514.829 392.9 514.04C392.132 513.251 391.748 512.173 391.748 510.808V500.504H389.348V498.264H391.748V494.456H394.404V498.264H398.308V500.504H394.404V510.552C394.404 512.173 395.098 512.984 396.484 512.984C397.252 512.984 397.935 512.867 398.532 512.632V514.872C397.871 515.107 397.114 515.224 396.26 515.224ZM402.611 515V498.264H405.267V515H402.611ZM405.107 494.264C404.766 494.605 404.361 494.776 403.891 494.776C403.422 494.776 403.006 494.605 402.643 494.264C402.302 493.923 402.131 493.507 402.131 493.016C402.131 492.525 402.302 492.109 402.643 491.768C403.006 491.427 403.422 491.256 403.891 491.256C404.361 491.256 404.766 491.427 405.107 491.768C405.47 492.109 405.651 492.525 405.651 493.016C405.651 493.507 405.47 493.923 405.107 494.264ZM417.648 515.288C415.28 515.288 413.317 514.52 411.76 512.984C410.224 511.427 409.456 509.368 409.456 506.808V506.552C409.456 504.035 410.234 501.976 411.792 500.376C413.37 498.776 415.301 497.976 417.584 497.976C419.504 497.976 421.136 498.456 422.48 499.416C423.824 500.355 424.613 501.827 424.848 503.832H422.224C421.84 501.4 420.293 500.184 417.584 500.184C416.026 500.184 414.736 500.771 413.712 501.944C412.709 503.096 412.208 504.632 412.208 506.552V506.808C412.208 508.813 412.698 510.36 413.68 511.448C414.682 512.536 416.016 513.08 417.68 513.08C418.938 513.08 420.016 512.728 420.912 512.024C421.829 511.299 422.352 510.285 422.48 508.984H424.944C424.773 510.819 424.005 512.333 422.64 513.528C421.296 514.701 419.632 515.288 417.648 515.288ZM435.802 515.288C433.412 515.288 431.46 514.52 429.946 512.984C428.452 511.427 427.706 509.368 427.706 506.808V506.552C427.706 504.035 428.431 501.976 429.882 500.376C431.354 498.776 433.242 497.976 435.546 497.976C437.679 497.976 439.46 498.669 440.89 500.056C442.34 501.421 443.066 503.501 443.066 506.296V507.16H430.458C430.522 509.08 431.002 510.552 431.898 511.576C432.815 512.579 434.127 513.08 435.834 513.08C438.458 513.08 439.94 512.109 440.282 510.168H442.938C442.66 511.811 441.882 513.08 440.602 513.976C439.322 514.851 437.722 515.288 435.802 515.288ZM430.554 505.016H440.346C440.111 501.795 438.511 500.184 435.546 500.184C434.202 500.184 433.092 500.621 432.218 501.496C431.343 502.349 430.788 503.523 430.554 505.016ZM452.481 515.288C450.476 515.288 448.897 514.808 447.745 513.848C446.615 512.888 446.007 511.555 445.921 509.848H448.513C448.727 512.003 450.039 513.08 452.449 513.08C454.881 513.08 456.097 512.195 456.097 510.424C456.097 509.592 455.788 508.984 455.169 508.6C454.572 508.195 453.58 507.864 452.193 507.608C450.017 507.203 448.503 506.648 447.649 505.944C446.796 505.219 446.369 504.131 446.369 502.68C446.369 501.229 446.945 500.088 448.097 499.256C449.271 498.403 450.583 497.976 452.033 497.976C455.66 497.976 457.676 499.587 458.081 502.808H455.521C455.329 501.891 454.956 501.229 454.401 500.824C453.847 500.397 453.047 500.184 452.001 500.184C451.041 500.184 450.273 500.408 449.697 500.856C449.121 501.283 448.833 501.859 448.833 502.584C448.833 503.352 449.1 503.917 449.633 504.28C450.188 504.643 451.223 504.963 452.737 505.24C453.74 505.432 454.54 505.624 455.137 505.816C455.756 505.987 456.353 506.253 456.929 506.616C457.527 506.979 457.953 507.459 458.209 508.056C458.487 508.632 458.625 509.347 458.625 510.2C458.625 511.757 458.092 512.995 457.025 513.912C455.98 514.829 454.465 515.288 452.481 515.288Z" fill="black"/>
<defs>
<clipPath id="bgblur_0_2855_43_clip_path" transform="translate(4 -131)"><rect y="135" width="257" height="257" rx="128.5"/>
</clipPath><linearGradient id="paint0_linear_2855_43" x1="439.5" y1="137" x2="443.38" y2="391.958" gradientUnits="userSpaceOnUse">
<stop stop-color="#FFF1CE"/>
<stop offset="1" stop-color="#C0FFCA"/>
</linearGradient>
<linearGradient id="paint1_linear_2855_43" x1="128.5" y1="135" x2="132.411" y2="391.957" gradientUnits="userSpaceOnUse">
<stop stop-color="#ECCEFF"/>
<stop offset="1" stop-color="#C0F0FF"/>
</linearGradient>
</defs>
</svg>
