<svg width="492" height="214" viewBox="0 0 492 214" fill="none" xmlns="http://www.w3.org/2000/svg">
<path d="M491.177 147.427C491.274 147.329 491.274 147.171 491.177 147.073L489.586 145.482C489.488 145.385 489.33 145.385 489.232 145.482C489.135 145.58 489.135 145.738 489.232 145.836L490.646 147.25L489.232 148.664C489.135 148.762 489.135 148.92 489.232 149.018C489.33 149.115 489.488 149.115 489.586 149.018L491.177 147.427ZM67 147.5H491V147H67V147.5Z" fill="black"/>
<path d="M67.1768 0.0732269C67.0791 -0.0244141 66.9208 -0.0244141 66.8232 0.0732269L65.2322 1.66422C65.1346 1.76184 65.1346 1.92014 65.2322 2.01776C65.3299 2.1154 65.4881 2.1154 65.5858 2.01776L67 0.603546L68.4142 2.01776C68.5118 2.1154 68.6701 2.1154 68.7678 2.01776C68.8654 1.92014 68.8654 1.76184 68.7678 1.66422L67.1768 0.0732269ZM67.25 147.25L67.25 0.25L66.75 0.25L66.75 147.25L67.25 147.25Z" fill="black"/>
<path d="M236.37 168.25V161.81H234.29V161.1H239.32V161.81H237.24V168.25H236.37ZM240.368 168.25V163.02H241.198V168.25H240.368ZM241.148 161.77C241.041 161.877 240.914 161.93 240.768 161.93C240.621 161.93 240.491 161.877 240.378 161.77C240.271 161.663 240.218 161.533 240.218 161.38C240.218 161.227 240.271 161.097 240.378 160.99C240.491 160.883 240.621 160.83 240.768 160.83C240.914 160.83 241.041 160.883 241.148 160.99C241.261 161.097 241.318 161.227 241.318 161.38C241.318 161.533 241.261 161.663 241.148 161.77ZM242.897 168.25V163.02H243.727V163.82C243.853 163.56 244.053 163.347 244.327 163.18C244.607 163.013 244.927 162.93 245.287 162.93C246.053 162.93 246.563 163.257 246.817 163.91C246.983 163.59 247.233 163.347 247.567 163.18C247.907 163.013 248.253 162.93 248.607 162.93C249.12 162.93 249.54 163.1 249.867 163.44C250.2 163.773 250.367 164.297 250.367 165.01V168.25H249.537V164.95C249.537 164.083 249.167 163.65 248.427 163.65C248.053 163.65 247.73 163.773 247.457 164.02C247.183 164.267 247.047 164.61 247.047 165.05V168.25H246.217V164.95C246.217 164.083 245.847 163.65 245.107 163.65C244.733 163.65 244.41 163.773 244.137 164.02C243.863 164.267 243.727 164.61 243.727 165.05V168.25H242.897ZM254.138 168.34C253.392 168.34 252.782 168.1 252.308 167.62C251.842 167.133 251.608 166.49 251.608 165.69V165.61C251.608 164.823 251.835 164.18 252.288 163.68C252.748 163.18 253.338 162.93 254.058 162.93C254.725 162.93 255.282 163.147 255.728 163.58C256.182 164.007 256.408 164.657 256.408 165.53V165.8H252.468C252.488 166.4 252.638 166.86 252.918 167.18C253.205 167.493 253.615 167.65 254.148 167.65C254.968 167.65 255.432 167.347 255.538 166.74H256.368C256.282 167.253 256.038 167.65 255.638 167.93C255.238 168.203 254.738 168.34 254.138 168.34ZM252.498 165.13H255.558C255.485 164.123 254.985 163.62 254.058 163.62C253.638 163.62 253.292 163.757 253.018 164.03C252.745 164.297 252.572 164.663 252.498 165.13ZM257.702 168.25V160.52H258.542V168.25H257.702ZM260.26 168.25V163.02H261.09V168.25H260.26ZM261.04 161.77C260.934 161.877 260.807 161.93 260.66 161.93C260.514 161.93 260.384 161.877 260.27 161.77C260.164 161.663 260.11 161.533 260.11 161.38C260.11 161.227 260.164 161.097 260.27 160.99C260.384 160.883 260.514 160.83 260.66 160.83C260.807 160.83 260.934 160.883 261.04 160.99C261.154 161.097 261.21 161.227 261.21 161.38C261.21 161.533 261.154 161.663 261.04 161.77ZM262.789 168.25V163.02H263.619V163.85C263.746 163.583 263.956 163.363 264.249 163.19C264.543 163.017 264.893 162.93 265.299 162.93C265.873 162.93 266.323 163.1 266.649 163.44C266.976 163.78 267.139 164.313 267.139 165.04V168.25H266.309V164.98C266.309 164.52 266.209 164.183 266.009 163.97C265.809 163.757 265.499 163.65 265.079 163.65C264.673 163.65 264.326 163.777 264.039 164.03C263.759 164.283 263.619 164.633 263.619 165.08V168.25H262.789ZM270.906 168.34C270.159 168.34 269.549 168.1 269.076 167.62C268.609 167.133 268.376 166.49 268.376 165.69V165.61C268.376 164.823 268.602 164.18 269.056 163.68C269.516 163.18 270.106 162.93 270.826 162.93C271.492 162.93 272.049 163.147 272.496 163.58C272.949 164.007 273.176 164.657 273.176 165.53V165.8H269.236C269.256 166.4 269.406 166.86 269.686 167.18C269.972 167.493 270.382 167.65 270.916 167.65C271.736 167.65 272.199 167.347 272.306 166.74H273.136C273.049 167.253 272.806 167.65 272.406 167.93C272.006 168.203 271.506 168.34 270.906 168.34ZM269.266 165.13H272.326C272.252 164.123 271.752 163.62 270.826 163.62C270.406 163.62 270.059 163.757 269.786 164.03C269.512 164.297 269.339 164.663 269.266 165.13ZM279.276 167.65C279.796 167.65 280.209 167.47 280.516 167.11C280.829 166.75 280.986 166.273 280.986 165.68V165.61C280.986 165.003 280.829 164.52 280.516 164.16C280.209 163.8 279.796 163.62 279.276 163.62C278.749 163.62 278.333 163.8 278.026 164.16C277.719 164.52 277.566 165 277.566 165.6V165.68C277.566 166.28 277.719 166.76 278.026 167.12C278.333 167.473 278.749 167.65 279.276 167.65ZM279.266 168.34C278.526 168.34 277.913 168.09 277.426 167.59C276.946 167.083 276.706 166.447 276.706 165.68V165.6C276.706 164.82 276.946 164.18 277.426 163.68C277.913 163.18 278.529 162.93 279.276 162.93C280.023 162.93 280.636 163.18 281.116 163.68C281.603 164.173 281.846 164.81 281.846 165.59V165.67C281.846 166.457 281.603 167.1 281.116 167.6C280.629 168.093 280.013 168.34 279.266 168.34ZM283.311 168.25V163.72H282.561V163.02H283.311V162.17C283.311 161.63 283.441 161.217 283.701 160.93C283.968 160.637 284.358 160.49 284.871 160.49C285.084 160.49 285.291 160.523 285.491 160.59V161.29C285.304 161.217 285.108 161.18 284.901 161.18C284.394 161.18 284.141 161.48 284.141 162.08V163.02H285.421V163.72H284.141V168.25H283.311ZM291.415 167.65C291.935 167.65 292.348 167.47 292.655 167.11C292.968 166.75 293.125 166.273 293.125 165.68V165.61C293.125 165.003 292.968 164.52 292.655 164.16C292.348 163.8 291.935 163.62 291.415 163.62C290.888 163.62 290.471 163.8 290.165 164.16C289.858 164.52 289.705 165 289.705 165.6V165.68C289.705 166.28 289.858 166.76 290.165 167.12C290.471 167.473 290.888 167.65 291.415 167.65ZM291.405 168.34C290.665 168.34 290.051 168.09 289.565 167.59C289.085 167.083 288.845 166.447 288.845 165.68V165.6C288.845 164.82 289.085 164.18 289.565 163.68C290.051 163.18 290.668 162.93 291.415 162.93C292.161 162.93 292.775 163.18 293.255 163.68C293.741 164.173 293.985 164.81 293.985 165.59V165.67C293.985 166.457 293.741 167.1 293.255 167.6C292.768 168.093 292.151 168.34 291.405 168.34ZM297.04 168.34C296.486 168.34 296.043 168.177 295.71 167.85C295.383 167.523 295.22 167.017 295.22 166.33V163.02H296.05V166.29C296.05 166.75 296.146 167.087 296.34 167.3C296.54 167.513 296.846 167.62 297.26 167.62C297.653 167.62 297.99 167.493 298.27 167.24C298.556 166.987 298.7 166.637 298.7 166.19V163.02H299.53V168.25H298.7V167.42C298.573 167.687 298.363 167.907 298.07 168.08C297.783 168.253 297.44 168.34 297.04 168.34ZM301.207 168.25V163.02H302.037V163.96C302.217 163.633 302.437 163.383 302.697 163.21C302.964 163.037 303.317 162.943 303.757 162.93V163.71C303.184 163.737 302.754 163.87 302.467 164.11C302.181 164.35 302.037 164.773 302.037 165.38V168.25H301.207ZM307.633 168.25V160.52H308.473V168.25H307.633ZM310.192 168.25V163.02H311.022V168.25H310.192ZM310.972 161.77C310.865 161.877 310.739 161.93 310.592 161.93C310.445 161.93 310.315 161.877 310.202 161.77C310.095 161.663 310.042 161.533 310.042 161.38C310.042 161.227 310.095 161.097 310.202 160.99C310.315 160.883 310.445 160.83 310.592 160.83C310.739 160.83 310.865 160.883 310.972 160.99C311.085 161.097 311.142 161.227 311.142 161.38C311.142 161.533 311.085 161.663 310.972 161.77ZM314.031 168.25L312.131 163.02H313.031L314.581 167.41L316.111 163.02H316.971L315.091 168.25H314.031ZM320.056 168.34C319.31 168.34 318.7 168.1 318.226 167.62C317.76 167.133 317.526 166.49 317.526 165.69V165.61C317.526 164.823 317.753 164.18 318.206 163.68C318.666 163.18 319.256 162.93 319.976 162.93C320.643 162.93 321.2 163.147 321.646 163.58C322.1 164.007 322.326 164.657 322.326 165.53V165.8H318.386C318.406 166.4 318.556 166.86 318.836 167.18C319.123 167.493 319.533 167.65 320.066 167.65C320.886 167.65 321.35 167.347 321.456 166.74H322.286C322.2 167.253 321.956 167.65 321.556 167.93C321.156 168.203 320.656 168.34 320.056 168.34ZM318.416 165.13H321.476C321.403 164.123 320.903 163.62 319.976 163.62C319.556 163.62 319.21 163.757 318.936 164.03C318.663 164.297 318.49 164.663 318.416 165.13ZM325.269 168.34C324.642 168.34 324.149 168.19 323.789 167.89C323.435 167.59 323.245 167.173 323.219 166.64H324.029C324.095 167.313 324.505 167.65 325.259 167.65C326.019 167.65 326.399 167.373 326.399 166.82C326.399 166.56 326.302 166.37 326.109 166.25C325.922 166.123 325.612 166.02 325.179 165.94C324.499 165.813 324.025 165.64 323.759 165.42C323.492 165.193 323.359 164.853 323.359 164.4C323.359 163.947 323.539 163.59 323.899 163.33C324.265 163.063 324.675 162.93 325.129 162.93C326.262 162.93 326.892 163.433 327.019 164.44H326.219C326.159 164.153 326.042 163.947 325.869 163.82C325.695 163.687 325.445 163.62 325.119 163.62C324.819 163.62 324.579 163.69 324.399 163.83C324.219 163.963 324.129 164.143 324.129 164.37C324.129 164.61 324.212 164.787 324.379 164.9C324.552 165.013 324.875 165.113 325.349 165.2C325.662 165.26 325.912 165.32 326.099 165.38C326.292 165.433 326.479 165.517 326.659 165.63C326.845 165.743 326.979 165.893 327.059 166.08C327.145 166.26 327.189 166.483 327.189 166.75C327.189 167.237 327.022 167.623 326.689 167.91C326.362 168.197 325.889 168.34 325.269 168.34Z" fill="black"/>
<path d="M185.9 205.25V198.1H187.11L189.32 203.67L191.46 198.1H192.66V205.25H191.79V199.23L189.42 205.25H189.15L186.7 199.23V205.25H185.9ZM196.584 204.65C197.104 204.65 197.518 204.47 197.824 204.11C198.138 203.75 198.294 203.273 198.294 202.68V202.61C198.294 202.003 198.138 201.52 197.824 201.16C197.518 200.8 197.104 200.62 196.584 200.62C196.058 200.62 195.641 200.8 195.334 201.16C195.028 201.52 194.874 202 194.874 202.6V202.68C194.874 203.28 195.028 203.76 195.334 204.12C195.641 204.473 196.058 204.65 196.584 204.65ZM196.574 205.34C195.834 205.34 195.221 205.09 194.734 204.59C194.254 204.083 194.014 203.447 194.014 202.68V202.6C194.014 201.82 194.254 201.18 194.734 200.68C195.221 200.18 195.838 199.93 196.584 199.93C197.331 199.93 197.944 200.18 198.424 200.68C198.911 201.173 199.154 201.81 199.154 202.59V202.67C199.154 203.457 198.911 204.1 198.424 204.6C197.938 205.093 197.321 205.34 196.574 205.34ZM200.44 205.25V200.02H201.27V200.82C201.396 200.56 201.596 200.347 201.87 200.18C202.15 200.013 202.47 199.93 202.83 199.93C203.596 199.93 204.106 200.257 204.36 200.91C204.526 200.59 204.776 200.347 205.11 200.18C205.45 200.013 205.796 199.93 206.15 199.93C206.663 199.93 207.083 200.1 207.41 200.44C207.743 200.773 207.91 201.297 207.91 202.01V205.25H207.08V201.95C207.08 201.083 206.71 200.65 205.97 200.65C205.596 200.65 205.273 200.773 205 201.02C204.726 201.267 204.59 201.61 204.59 202.05V205.25H203.76V201.95C203.76 201.083 203.39 200.65 202.65 200.65C202.276 200.65 201.953 200.773 201.68 201.02C201.406 201.267 201.27 201.61 201.27 202.05V205.25H200.44ZM211.681 205.34C210.935 205.34 210.325 205.1 209.851 204.62C209.385 204.133 209.151 203.49 209.151 202.69V202.61C209.151 201.823 209.378 201.18 209.831 200.68C210.291 200.18 210.881 199.93 211.601 199.93C212.268 199.93 212.825 200.147 213.271 200.58C213.725 201.007 213.951 201.657 213.951 202.53V202.8H210.011C210.031 203.4 210.181 203.86 210.461 204.18C210.748 204.493 211.158 204.65 211.691 204.65C212.511 204.65 212.975 204.347 213.081 203.74H213.911C213.825 204.253 213.581 204.65 213.181 204.93C212.781 205.203 212.281 205.34 211.681 205.34ZM210.041 202.13H213.101C213.028 201.123 212.528 200.62 211.601 200.62C211.181 200.62 210.835 200.757 210.561 201.03C210.288 201.297 210.115 201.663 210.041 202.13ZM215.225 205.25V200.02H216.055V200.85C216.181 200.583 216.391 200.363 216.685 200.19C216.978 200.017 217.328 199.93 217.735 199.93C218.308 199.93 218.758 200.1 219.085 200.44C219.411 200.78 219.575 201.313 219.575 202.04V205.25H218.745V201.98C218.745 201.52 218.645 201.183 218.445 200.97C218.245 200.757 217.935 200.65 217.515 200.65C217.108 200.65 216.761 200.777 216.475 201.03C216.195 201.283 216.055 201.633 216.055 202.08V205.25H215.225ZM222.791 205.32C222.331 205.32 221.981 205.197 221.741 204.95C221.501 204.703 221.381 204.367 221.381 203.94V200.72H220.631V200.02H221.381V198.83H222.211V200.02H223.431V200.72H222.211V203.86C222.211 204.367 222.428 204.62 222.861 204.62C223.101 204.62 223.315 204.583 223.501 204.51V205.21C223.295 205.283 223.058 205.32 222.791 205.32ZM226.376 205.34C225.749 205.34 225.256 205.19 224.896 204.89C224.543 204.59 224.353 204.173 224.326 203.64H225.136C225.203 204.313 225.613 204.65 226.366 204.65C227.126 204.65 227.506 204.373 227.506 203.82C227.506 203.56 227.409 203.37 227.216 203.25C227.029 203.123 226.719 203.02 226.286 202.94C225.606 202.813 225.133 202.64 224.866 202.42C224.599 202.193 224.466 201.853 224.466 201.4C224.466 200.947 224.646 200.59 225.006 200.33C225.373 200.063 225.783 199.93 226.236 199.93C227.369 199.93 227.999 200.433 228.126 201.44H227.326C227.266 201.153 227.149 200.947 226.976 200.82C226.803 200.687 226.553 200.62 226.226 200.62C225.926 200.62 225.686 200.69 225.506 200.83C225.326 200.963 225.236 201.143 225.236 201.37C225.236 201.61 225.319 201.787 225.486 201.9C225.659 202.013 225.983 202.113 226.456 202.2C226.769 202.26 227.019 202.32 227.206 202.38C227.399 202.433 227.586 202.517 227.766 202.63C227.953 202.743 228.086 202.893 228.166 203.08C228.253 203.26 228.296 203.483 228.296 203.75C228.296 204.237 228.129 204.623 227.796 204.91C227.469 205.197 226.996 205.34 226.376 205.34ZM233.797 205.32C233.337 205.32 232.987 205.197 232.747 204.95C232.507 204.703 232.387 204.367 232.387 203.94V200.72H231.637V200.02H232.387V198.83H233.217V200.02H234.437V200.72H233.217V203.86C233.217 204.367 233.434 204.62 233.867 204.62C234.107 204.62 234.321 204.583 234.507 204.51V205.21C234.301 205.283 234.064 205.32 233.797 205.32ZM235.762 205.25V197.52H236.592V200.85C236.719 200.583 236.929 200.363 237.222 200.19C237.515 200.017 237.865 199.93 238.272 199.93C238.845 199.93 239.295 200.1 239.622 200.44C239.949 200.78 240.112 201.313 240.112 202.04V205.25H239.282V201.98C239.282 201.52 239.182 201.183 238.982 200.97C238.782 200.757 238.472 200.65 238.052 200.65C237.645 200.65 237.299 200.777 237.012 201.03C236.732 201.283 236.592 201.633 236.592 202.08V205.25H235.762ZM243.048 205.34C242.535 205.34 242.115 205.213 241.788 204.96C241.468 204.7 241.308 204.313 241.308 203.8C241.308 203.24 241.555 202.83 242.048 202.57C242.548 202.31 243.175 202.18 243.928 202.18H244.678V201.8C244.678 201.38 244.592 201.08 244.418 200.9C244.245 200.713 243.958 200.62 243.558 200.62C242.838 200.62 242.438 200.933 242.358 201.56H241.528C241.582 201 241.802 200.59 242.188 200.33C242.575 200.063 243.045 199.93 243.598 199.93C244.872 199.93 245.508 200.553 245.508 201.8V205.25H244.678V204.59C244.278 205.09 243.735 205.34 243.048 205.34ZM243.128 204.68C243.582 204.68 243.952 204.57 244.238 204.35C244.532 204.123 244.678 203.813 244.678 203.42V202.77H243.958C242.745 202.77 242.138 203.113 242.138 203.8C242.138 204.387 242.468 204.68 243.128 204.68ZM248.729 205.32C248.269 205.32 247.919 205.197 247.679 204.95C247.439 204.703 247.319 204.367 247.319 203.94V200.72H246.569V200.02H247.319V198.83H248.149V200.02H249.369V200.72H248.149V203.86C248.149 204.367 248.365 204.62 248.799 204.62C249.039 204.62 249.252 204.583 249.439 204.51V205.21C249.232 205.283 248.995 205.32 248.729 205.32ZM253.34 205.25V197.52H254.17V200.85C254.297 200.583 254.507 200.363 254.8 200.19C255.093 200.017 255.443 199.93 255.85 199.93C256.423 199.93 256.873 200.1 257.2 200.44C257.527 200.78 257.69 201.313 257.69 202.04V205.25H256.86V201.98C256.86 201.52 256.76 201.183 256.56 200.97C256.36 200.757 256.05 200.65 255.63 200.65C255.223 200.65 254.877 200.777 254.59 201.03C254.31 201.283 254.17 201.633 254.17 202.08V205.25H253.34ZM261.497 204.65C262.017 204.65 262.43 204.47 262.737 204.11C263.05 203.75 263.207 203.273 263.207 202.68V202.61C263.207 202.003 263.05 201.52 262.737 201.16C262.43 200.8 262.017 200.62 261.497 200.62C260.97 200.62 260.553 200.8 260.247 201.16C259.94 201.52 259.787 202 259.787 202.6V202.68C259.787 203.28 259.94 203.76 260.247 204.12C260.553 204.473 260.97 204.65 261.497 204.65ZM261.487 205.34C260.747 205.34 260.133 205.09 259.647 204.59C259.167 204.083 258.927 203.447 258.927 202.68V202.6C258.927 201.82 259.167 201.18 259.647 200.68C260.133 200.18 260.75 199.93 261.497 199.93C262.243 199.93 262.857 200.18 263.337 200.68C263.823 201.173 264.067 201.81 264.067 202.59V202.67C264.067 203.457 263.823 204.1 263.337 204.6C262.85 205.093 262.233 205.34 261.487 205.34ZM265.372 205.25V197.52H266.212V205.25H265.372ZM269.88 205.34C269.18 205.34 268.61 205.107 268.17 204.64C267.737 204.173 267.52 203.54 267.52 202.74V202.66C267.52 201.86 267.747 201.207 268.2 200.7C268.654 200.187 269.24 199.93 269.96 199.93C270.734 199.93 271.304 200.24 271.67 200.86V197.52H272.5V205.25H271.67V204.35C271.51 204.617 271.264 204.85 270.93 205.05C270.597 205.243 270.247 205.34 269.88 205.34ZM269.97 204.65C270.484 204.65 270.9 204.483 271.22 204.15C271.54 203.81 271.7 203.317 271.7 202.67V202.59C271.7 201.937 271.554 201.447 271.26 201.12C270.974 200.787 270.567 200.62 270.04 200.62C269.52 200.62 269.114 200.797 268.82 201.15C268.527 201.497 268.38 201.987 268.38 202.62V202.7C268.38 203.333 268.527 203.817 268.82 204.15C269.12 204.483 269.504 204.65 269.97 204.65ZM278.446 205.34C277.82 205.34 277.326 205.19 276.966 204.89C276.613 204.59 276.423 204.173 276.396 203.64H277.206C277.273 204.313 277.683 204.65 278.436 204.65C279.196 204.65 279.576 204.373 279.576 203.82C279.576 203.56 279.48 203.37 279.286 203.25C279.1 203.123 278.79 203.02 278.356 202.94C277.676 202.813 277.203 202.64 276.936 202.42C276.67 202.193 276.536 201.853 276.536 201.4C276.536 200.947 276.716 200.59 277.076 200.33C277.443 200.063 277.853 199.93 278.306 199.93C279.44 199.93 280.07 200.433 280.196 201.44H279.396C279.336 201.153 279.22 200.947 279.046 200.82C278.873 200.687 278.623 200.62 278.296 200.62C277.996 200.62 277.756 200.69 277.576 200.83C277.396 200.963 277.306 201.143 277.306 201.37C277.306 201.61 277.39 201.787 277.556 201.9C277.73 202.013 278.053 202.113 278.526 202.2C278.84 202.26 279.09 202.32 279.276 202.38C279.47 202.433 279.656 202.517 279.836 202.63C280.023 202.743 280.156 202.893 280.236 203.08C280.323 203.26 280.366 203.483 280.366 203.75C280.366 204.237 280.2 204.623 279.866 204.91C279.54 205.197 279.066 205.34 278.446 205.34ZM281.651 205.25V200.02H282.481V205.25H281.651ZM282.431 198.77C282.324 198.877 282.198 198.93 282.051 198.93C281.904 198.93 281.774 198.877 281.661 198.77C281.554 198.663 281.501 198.533 281.501 198.38C281.501 198.227 281.554 198.097 281.661 197.99C281.774 197.883 281.904 197.83 282.051 197.83C282.198 197.83 282.324 197.883 282.431 197.99C282.544 198.097 282.601 198.227 282.601 198.38C282.601 198.533 282.544 198.663 282.431 198.77ZM286.27 207.16C285.543 207.16 284.983 207.01 284.59 206.71C284.203 206.417 283.973 206.03 283.9 205.55H284.75C284.87 206.157 285.373 206.46 286.26 206.46C286.793 206.46 287.207 206.327 287.5 206.06C287.793 205.8 287.94 205.397 287.94 204.85V204.09C287.78 204.363 287.537 204.597 287.21 204.79C286.883 204.983 286.537 205.08 286.17 205.08C285.483 205.08 284.913 204.847 284.46 204.38C284.013 203.913 283.79 203.32 283.79 202.6V202.53C283.79 201.803 284.02 201.19 284.48 200.69C284.94 200.183 285.523 199.93 286.23 199.93C287.003 199.93 287.573 200.24 287.94 200.86V200.02H288.77V204.9C288.763 205.64 288.533 206.2 288.08 206.58C287.627 206.967 287.023 207.16 286.27 207.16ZM286.26 204.39C286.76 204.39 287.17 204.227 287.49 203.9C287.81 203.567 287.97 203.113 287.97 202.54V202.47C287.97 201.89 287.82 201.437 287.52 201.11C287.227 200.783 286.823 200.62 286.31 200.62C285.797 200.62 285.39 200.793 285.09 201.14C284.797 201.48 284.65 201.93 284.65 202.49V202.57C284.65 203.123 284.803 203.567 285.11 203.9C285.423 204.227 285.807 204.39 286.26 204.39ZM290.449 205.25V200.02H291.279V200.85C291.406 200.583 291.616 200.363 291.909 200.19C292.203 200.017 292.553 199.93 292.959 199.93C293.533 199.93 293.983 200.1 294.309 200.44C294.636 200.78 294.799 201.313 294.799 202.04V205.25H293.969V201.98C293.969 201.52 293.869 201.183 293.669 200.97C293.469 200.757 293.159 200.65 292.739 200.65C292.333 200.65 291.986 200.777 291.699 201.03C291.419 201.283 291.279 201.633 291.279 202.08V205.25H290.449ZM296.446 205.25V200.02H297.276V205.25H296.446ZM297.226 198.77C297.119 198.877 296.993 198.93 296.846 198.93C296.699 198.93 296.569 198.877 296.456 198.77C296.349 198.663 296.296 198.533 296.296 198.38C296.296 198.227 296.349 198.097 296.456 197.99C296.569 197.883 296.699 197.83 296.846 197.83C296.993 197.83 297.119 197.883 297.226 197.99C297.339 198.097 297.396 198.227 297.396 198.38C297.396 198.533 297.339 198.663 297.226 198.77ZM299.155 205.25V200.72H298.405V200.02H299.155V199.17C299.155 198.63 299.285 198.217 299.545 197.93C299.805 197.637 300.188 197.49 300.695 197.49C300.935 197.49 301.125 197.517 301.265 197.57V198.27C301.118 198.21 300.938 198.18 300.725 198.18C300.231 198.18 299.985 198.48 299.985 199.08V200.02H301.265V200.72H299.985V205.25H299.155ZM302.305 205.25V200.02H303.135V205.25H302.305ZM303.085 198.77C302.979 198.877 302.852 198.93 302.705 198.93C302.559 198.93 302.429 198.877 302.315 198.77C302.209 198.663 302.155 198.533 302.155 198.38C302.155 198.227 302.209 198.097 302.315 197.99C302.429 197.883 302.559 197.83 302.705 197.83C302.852 197.83 302.979 197.883 303.085 197.99C303.199 198.097 303.255 198.227 303.255 198.38C303.255 198.533 303.199 198.663 303.085 198.77ZM307.004 205.34C306.264 205.34 305.651 205.1 305.164 204.62C304.684 204.133 304.444 203.49 304.444 202.69V202.61C304.444 201.823 304.687 201.18 305.174 200.68C305.667 200.18 306.271 199.93 306.984 199.93C307.584 199.93 308.094 200.08 308.514 200.38C308.934 200.673 309.181 201.133 309.254 201.76H308.434C308.314 201 307.831 200.62 306.984 200.62C306.497 200.62 306.094 200.803 305.774 201.17C305.461 201.53 305.304 202.01 305.304 202.61V202.69C305.304 203.317 305.457 203.8 305.764 204.14C306.077 204.48 306.494 204.65 307.014 204.65C307.407 204.65 307.744 204.54 308.024 204.32C308.311 204.093 308.474 203.777 308.514 203.37H309.284C309.231 203.943 308.991 204.417 308.564 204.79C308.144 205.157 307.624 205.34 307.004 205.34ZM311.847 205.34C311.334 205.34 310.914 205.213 310.587 204.96C310.267 204.7 310.107 204.313 310.107 203.8C310.107 203.24 310.354 202.83 310.847 202.57C311.347 202.31 311.974 202.18 312.727 202.18H313.477V201.8C313.477 201.38 313.391 201.08 313.217 200.9C313.044 200.713 312.757 200.62 312.357 200.62C311.637 200.62 311.237 200.933 311.157 201.56H310.327C310.381 201 310.601 200.59 310.987 200.33C311.374 200.063 311.844 199.93 312.397 199.93C313.671 199.93 314.307 200.553 314.307 201.8V205.25H313.477V204.59C313.077 205.09 312.534 205.34 311.847 205.34ZM311.927 204.68C312.381 204.68 312.751 204.57 313.037 204.35C313.331 204.123 313.477 203.813 313.477 203.42V202.77H312.757C311.544 202.77 310.937 203.113 310.937 203.8C310.937 204.387 311.267 204.68 311.927 204.68ZM315.938 205.25V200.02H316.768V200.85C316.894 200.583 317.104 200.363 317.398 200.19C317.691 200.017 318.041 199.93 318.448 199.93C319.021 199.93 319.471 200.1 319.798 200.44C320.124 200.78 320.288 201.313 320.288 202.04V205.25H319.458V201.98C319.458 201.52 319.358 201.183 319.158 200.97C318.958 200.757 318.648 200.65 318.228 200.65C317.821 200.65 317.474 200.777 317.188 201.03C316.908 201.283 316.768 201.633 316.768 202.08V205.25H315.938ZM324.084 205.34C323.344 205.34 322.731 205.1 322.244 204.62C321.764 204.133 321.524 203.49 321.524 202.69V202.61C321.524 201.823 321.768 201.18 322.254 200.68C322.748 200.18 323.351 199.93 324.064 199.93C324.664 199.93 325.174 200.08 325.594 200.38C326.014 200.673 326.261 201.133 326.334 201.76H325.514C325.394 201 324.911 200.62 324.064 200.62C323.578 200.62 323.174 200.803 322.854 201.17C322.541 201.53 322.384 202.01 322.384 202.61V202.69C322.384 203.317 322.538 203.8 322.844 204.14C323.158 204.48 323.574 204.65 324.094 204.65C324.488 204.65 324.824 204.54 325.104 204.32C325.391 204.093 325.554 203.777 325.594 203.37H326.364C326.311 203.943 326.071 204.417 325.644 204.79C325.224 205.157 324.704 205.34 324.084 205.34ZM329.757 205.34C329.011 205.34 328.401 205.1 327.927 204.62C327.461 204.133 327.227 203.49 327.227 202.69V202.61C327.227 201.823 327.454 201.18 327.907 200.68C328.367 200.18 328.957 199.93 329.677 199.93C330.344 199.93 330.901 200.147 331.347 200.58C331.801 201.007 332.027 201.657 332.027 202.53V202.8H328.087C328.107 203.4 328.257 203.86 328.537 204.18C328.824 204.493 329.234 204.65 329.767 204.65C330.587 204.65 331.051 204.347 331.157 203.74H331.987C331.901 204.253 331.657 204.65 331.257 204.93C330.857 205.203 330.357 205.34 329.757 205.34ZM328.117 202.13H331.177C331.104 201.123 330.604 200.62 329.677 200.62C329.257 200.62 328.911 200.757 328.637 201.03C328.364 201.297 328.191 201.663 328.117 202.13ZM335.967 205.25V200.02H336.797V205.25H335.967ZM336.747 198.77C336.641 198.877 336.514 198.93 336.367 198.93C336.221 198.93 336.091 198.877 335.977 198.77C335.871 198.663 335.817 198.533 335.817 198.38C335.817 198.227 335.871 198.097 335.977 197.99C336.091 197.883 336.221 197.83 336.367 197.83C336.514 197.83 336.641 197.883 336.747 197.99C336.861 198.097 336.917 198.227 336.917 198.38C336.917 198.533 336.861 198.663 336.747 198.77ZM338.496 205.25V200.02H339.326V200.85C339.453 200.583 339.663 200.363 339.956 200.19C340.25 200.017 340.6 199.93 341.006 199.93C341.58 199.93 342.03 200.1 342.356 200.44C342.683 200.78 342.846 201.313 342.846 202.04V205.25H342.016V201.98C342.016 201.52 341.916 201.183 341.716 200.97C341.516 200.757 341.206 200.65 340.786 200.65C340.38 200.65 340.033 200.777 339.746 201.03C339.466 201.283 339.326 201.633 339.326 202.08V205.25H338.496ZM349.299 204.65C349.819 204.65 350.233 204.47 350.539 204.11C350.853 203.75 351.009 203.273 351.009 202.68V202.61C351.009 202.003 350.853 201.52 350.539 201.16C350.233 200.8 349.819 200.62 349.299 200.62C348.773 200.62 348.356 200.8 348.049 201.16C347.743 201.52 347.589 202 347.589 202.6V202.68C347.589 203.28 347.743 203.76 348.049 204.12C348.356 204.473 348.773 204.65 349.299 204.65ZM349.289 205.34C348.549 205.34 347.936 205.09 347.449 204.59C346.969 204.083 346.729 203.447 346.729 202.68V202.6C346.729 201.82 346.969 201.18 347.449 200.68C347.936 200.18 348.553 199.93 349.299 199.93C350.046 199.93 350.659 200.18 351.139 200.68C351.626 201.173 351.869 201.81 351.869 202.59V202.67C351.869 203.457 351.626 204.1 351.139 204.6C350.653 205.093 350.036 205.34 349.289 205.34ZM354.924 205.34C354.371 205.34 353.928 205.177 353.594 204.85C353.268 204.523 353.104 204.017 353.104 203.33V200.02H353.934V203.29C353.934 203.75 354.031 204.087 354.224 204.3C354.424 204.513 354.731 204.62 355.144 204.62C355.538 204.62 355.874 204.493 356.154 204.24C356.441 203.987 356.584 203.637 356.584 203.19V200.02H357.414V205.25H356.584V204.42C356.458 204.687 356.248 204.907 355.954 205.08C355.668 205.253 355.324 205.34 354.924 205.34ZM359.092 205.25V200.02H359.922V200.96C360.102 200.633 360.322 200.383 360.582 200.21C360.849 200.037 361.202 199.943 361.642 199.93V200.71C361.069 200.737 360.639 200.87 360.352 201.11C360.065 201.35 359.922 201.773 359.922 202.38V205.25H359.092ZM365.518 205.25V197.52H366.358V205.25H365.518ZM368.077 205.25V200.02H368.907V205.25H368.077ZM368.857 198.77C368.75 198.877 368.623 198.93 368.477 198.93C368.33 198.93 368.2 198.877 368.087 198.77C367.98 198.663 367.927 198.533 367.927 198.38C367.927 198.227 367.98 198.097 368.087 197.99C368.2 197.883 368.33 197.83 368.477 197.83C368.623 197.83 368.75 197.883 368.857 197.99C368.97 198.097 369.027 198.227 369.027 198.38C369.027 198.533 368.97 198.663 368.857 198.77ZM371.916 205.25L370.016 200.02H370.916L372.466 204.41L373.996 200.02H374.856L372.976 205.25H371.916ZM377.941 205.34C377.194 205.34 376.584 205.1 376.111 204.62C375.644 204.133 375.411 203.49 375.411 202.69V202.61C375.411 201.823 375.638 201.18 376.091 200.68C376.551 200.18 377.141 199.93 377.861 199.93C378.528 199.93 379.084 200.147 379.531 200.58C379.984 201.007 380.211 201.657 380.211 202.53V202.8H376.271C376.291 203.4 376.441 203.86 376.721 204.18C377.008 204.493 377.418 204.65 377.951 204.65C378.771 204.65 379.234 204.347 379.341 203.74H380.171C380.084 204.253 379.841 204.65 379.441 204.93C379.041 205.203 378.541 205.34 377.941 205.34ZM376.301 202.13H379.361C379.288 201.123 378.788 200.62 377.861 200.62C377.441 200.62 377.094 200.757 376.821 201.03C376.548 201.297 376.374 201.663 376.301 202.13ZM383.153 205.34C382.527 205.34 382.033 205.19 381.673 204.89C381.32 204.59 381.13 204.173 381.103 203.64H381.913C381.98 204.313 382.39 204.65 383.143 204.65C383.903 204.65 384.283 204.373 384.283 203.82C384.283 203.56 384.187 203.37 383.993 203.25C383.807 203.123 383.497 203.02 383.063 202.94C382.383 202.813 381.91 202.64 381.643 202.42C381.377 202.193 381.243 201.853 381.243 201.4C381.243 200.947 381.423 200.59 381.783 200.33C382.15 200.063 382.56 199.93 383.013 199.93C384.147 199.93 384.777 200.433 384.903 201.44H384.103C384.043 201.153 383.927 200.947 383.753 200.82C383.58 200.687 383.33 200.62 383.003 200.62C382.703 200.62 382.463 200.69 382.283 200.83C382.103 200.963 382.013 201.143 382.013 201.37C382.013 201.61 382.097 201.787 382.263 201.9C382.437 202.013 382.76 202.113 383.233 202.2C383.547 202.26 383.797 202.32 383.983 202.38C384.177 202.433 384.363 202.517 384.543 202.63C384.73 202.743 384.863 202.893 384.943 203.08C385.03 203.26 385.073 203.483 385.073 203.75C385.073 204.237 384.907 204.623 384.573 204.91C384.247 205.197 383.773 205.34 383.153 205.34Z" fill="black"/>
<path d="M4.09531 67.25V60.1H8.26531V60.81H4.96531V63.24H7.62531V63.95H4.96531V66.54H8.44531V67.25H4.09531ZM9.71938 67.25V59.52H10.5594V67.25H9.71938ZM14.398 67.34C13.6513 67.34 13.0413 67.1 12.568 66.62C12.1013 66.1333 11.868 65.49 11.868 64.69V64.61C11.868 63.8233 12.0946 63.18 12.548 62.68C13.008 62.18 13.598 61.93 14.318 61.93C14.9846 61.93 15.5413 62.1467 15.988 62.58C16.4413 63.0067 16.668 63.6567 16.668 64.53V64.8H12.728C12.748 65.4 12.898 65.86 13.178 66.18C13.4646 66.4933 13.8746 66.65 14.408 66.65C15.228 66.65 15.6913 66.3467 15.798 65.74H16.628C16.5413 66.2533 16.298 66.65 15.898 66.93C15.498 67.2033 14.998 67.34 14.398 67.34ZM12.758 64.13H15.818C15.7446 63.1233 15.2446 62.62 14.318 62.62C13.898 62.62 13.5513 62.7567 13.278 63.03C13.0046 63.2967 12.8313 63.6633 12.758 64.13ZM19.2027 67.25L17.3027 62.02H18.2027L19.7527 66.41L21.2827 62.02H22.1427L20.2627 67.25H19.2027ZM24.4957 67.34C23.9824 67.34 23.5624 67.2133 23.2357 66.96C22.9157 66.7 22.7557 66.3133 22.7557 65.8C22.7557 65.24 23.0024 64.83 23.4957 64.57C23.9957 64.31 24.6224 64.18 25.3757 64.18H26.1257V63.8C26.1257 63.38 26.039 63.08 25.8657 62.9C25.6924 62.7133 25.4057 62.62 25.0057 62.62C24.2857 62.62 23.8857 62.9333 23.8057 63.56H22.9757C23.029 63 23.249 62.59 23.6357 62.33C24.0224 62.0633 24.4924 61.93 25.0457 61.93C26.319 61.93 26.9557 62.5533 26.9557 63.8V67.25H26.1257V66.59C25.7257 67.09 25.1824 67.34 24.4957 67.34ZM24.5757 66.68C25.029 66.68 25.399 66.57 25.6857 66.35C25.979 66.1233 26.1257 65.8133 26.1257 65.42V64.77H25.4057C24.1924 64.77 23.5857 65.1133 23.5857 65.8C23.5857 66.3867 23.9157 66.68 24.5757 66.68ZM30.1761 67.32C29.7161 67.32 29.3661 67.1967 29.1261 66.95C28.8861 66.7033 28.7661 66.3667 28.7661 65.94V62.72H28.0161V62.02H28.7661V60.83H29.5961V62.02H30.8161V62.72H29.5961V65.86C29.5961 66.3667 29.8128 66.62 30.2461 66.62C30.4861 66.62 30.6994 66.5833 30.8861 66.51V67.21C30.6794 67.2833 30.4428 67.32 30.1761 67.32ZM32.1608 67.25V62.02H32.9908V67.25H32.1608ZM32.9408 60.77C32.8341 60.8767 32.7074 60.93 32.5608 60.93C32.4141 60.93 32.2841 60.8767 32.1708 60.77C32.0641 60.6633 32.0108 60.5333 32.0108 60.38C32.0108 60.2267 32.0641 60.0967 32.1708 59.99C32.2841 59.8833 32.4141 59.83 32.5608 59.83C32.7074 59.83 32.8341 59.8833 32.9408 59.99C33.0541 60.0967 33.1108 60.2267 33.1108 60.38C33.1108 60.5333 33.0541 60.6633 32.9408 60.77ZM36.8696 66.65C37.3896 66.65 37.8029 66.47 38.1096 66.11C38.4229 65.75 38.5796 65.2733 38.5796 64.68V64.61C38.5796 64.0033 38.4229 63.52 38.1096 63.16C37.8029 62.8 37.3896 62.62 36.8696 62.62C36.3429 62.62 35.9263 62.8 35.6196 63.16C35.3129 63.52 35.1596 64 35.1596 64.6V64.68C35.1596 65.28 35.3129 65.76 35.6196 66.12C35.9263 66.4733 36.3429 66.65 36.8696 66.65ZM36.8596 67.34C36.1196 67.34 35.5063 67.09 35.0196 66.59C34.5396 66.0833 34.2996 65.4467 34.2996 64.68V64.6C34.2996 63.82 34.5396 63.18 35.0196 62.68C35.5063 62.18 36.1229 61.93 36.8696 61.93C37.6163 61.93 38.2296 62.18 38.7096 62.68C39.1963 63.1733 39.4396 63.81 39.4396 64.59V64.67C39.4396 65.4567 39.1963 66.1 38.7096 66.6C38.2229 67.0933 37.6063 67.34 36.8596 67.34ZM40.7248 67.25V62.02H41.5548V62.85C41.6814 62.5833 41.8914 62.3633 42.1848 62.19C42.4781 62.0167 42.8281 61.93 43.2348 61.93C43.8081 61.93 44.2581 62.1 44.5848 62.44C44.9114 62.78 45.0748 63.3133 45.0748 64.04V67.25H44.2448V63.98C44.2448 63.52 44.1448 63.1833 43.9448 62.97C43.7448 62.7567 43.4348 62.65 43.0148 62.65C42.6081 62.65 42.2614 62.7767 41.9748 63.03C41.6948 63.2833 41.5548 63.6333 41.5548 64.08V67.25H40.7248ZM51.5278 66.65C52.0478 66.65 52.4611 66.47 52.7678 66.11C53.0811 65.75 53.2378 65.2733 53.2378 64.68V64.61C53.2378 64.0033 53.0811 63.52 52.7678 63.16C52.4611 62.8 52.0478 62.62 51.5278 62.62C51.0011 62.62 50.5845 62.8 50.2778 63.16C49.9711 63.52 49.8178 64 49.8178 64.6V64.68C49.8178 65.28 49.9711 65.76 50.2778 66.12C50.5845 66.4733 51.0011 66.65 51.5278 66.65ZM51.5178 67.34C50.7778 67.34 50.1645 67.09 49.6778 66.59C49.1978 66.0833 48.9578 65.4467 48.9578 64.68V64.6C48.9578 63.82 49.1978 63.18 49.6778 62.68C50.1645 62.18 50.7811 61.93 51.5278 61.93C52.2745 61.93 52.8878 62.18 53.3678 62.68C53.8545 63.1733 54.0978 63.81 54.0978 64.59V64.67C54.0978 65.4567 53.8545 66.1 53.3678 66.6C52.8811 67.0933 52.2645 67.34 51.5178 67.34ZM55.563 67.25V62.72H54.813V62.02H55.563V61.17C55.563 60.63 55.693 60.2167 55.953 59.93C56.2196 59.6367 56.6096 59.49 57.123 59.49C57.3363 59.49 57.543 59.5233 57.743 59.59V60.29C57.5563 60.2167 57.3596 60.18 57.153 60.18C56.6463 60.18 56.393 60.48 56.393 61.08V62.02H57.673V62.72H56.393V67.25H55.563ZM17.2398 78.34C16.4931 78.34 15.8831 78.1 15.4098 77.62C14.9431 77.1333 14.7098 76.49 14.7098 75.69V75.61C14.7098 74.8233 14.9364 74.18 15.3898 73.68C15.8498 73.18 16.4398 72.93 17.1598 72.93C17.8264 72.93 18.3831 73.1467 18.8298 73.58C19.2831 74.0067 19.5098 74.6567 19.5098 75.53V75.8H15.5698C15.5898 76.4 15.7398 76.86 16.0198 77.18C16.3064 77.4933 16.7164 77.65 17.2498 77.65C18.0698 77.65 18.5331 77.3467 18.6398 76.74H19.4698C19.3831 77.2533 19.1398 77.65 18.7398 77.93C18.3398 78.2033 17.8398 78.34 17.2398 78.34ZM15.5998 75.13H18.6598C18.5864 74.1233 18.0864 73.62 17.1598 73.62C16.7398 73.62 16.3931 73.7567 16.1198 74.03C15.8464 74.2967 15.6731 74.6633 15.5998 75.13ZM20.7834 78.25V73.02H21.6134V73.82C21.74 73.56 21.94 73.3467 22.2134 73.18C22.4934 73.0133 22.8134 72.93 23.1734 72.93C23.94 72.93 24.45 73.2567 24.7034 73.91C24.87 73.59 25.12 73.3467 25.4534 73.18C25.7934 73.0133 26.14 72.93 26.4934 72.93C27.0067 72.93 27.4267 73.1 27.7534 73.44C28.0867 73.7733 28.2534 74.2967 28.2534 75.01V78.25H27.4234V74.95C27.4234 74.0833 27.0534 73.65 26.3134 73.65C25.94 73.65 25.6167 73.7733 25.3434 74.02C25.07 74.2667 24.9334 74.61 24.9334 75.05V78.25H24.1034V74.95C24.1034 74.0833 23.7334 73.65 22.9934 73.65C22.62 73.65 22.2967 73.7733 22.0234 74.02C21.75 74.2667 21.6134 74.61 21.6134 75.05V78.25H20.7834ZM32.0649 77.65C32.5849 77.65 32.9983 77.47 33.3049 77.11C33.6183 76.75 33.7749 76.2733 33.7749 75.68V75.61C33.7749 75.0033 33.6183 74.52 33.3049 74.16C32.9983 73.8 32.5849 73.62 32.0649 73.62C31.5383 73.62 31.1216 73.8 30.8149 74.16C30.5083 74.52 30.3549 75 30.3549 75.6V75.68C30.3549 76.28 30.5083 76.76 30.8149 77.12C31.1216 77.4733 31.5383 77.65 32.0649 77.65ZM32.0549 78.34C31.3149 78.34 30.7016 78.09 30.2149 77.59C29.7349 77.0833 29.4949 76.4467 29.4949 75.68V75.6C29.4949 74.82 29.7349 74.18 30.2149 73.68C30.7016 73.18 31.3183 72.93 32.0649 72.93C32.8116 72.93 33.4249 73.18 33.9049 73.68C34.3916 74.1733 34.6349 74.81 34.6349 75.59V75.67C34.6349 76.4567 34.3916 77.1 33.9049 77.6C33.4183 78.0933 32.8016 78.34 32.0549 78.34ZM37.5101 78.32C37.0501 78.32 36.7001 78.1967 36.4601 77.95C36.2201 77.7033 36.1001 77.3667 36.1001 76.94V73.72H35.3501V73.02H36.1001V71.83H36.9301V73.02H38.1501V73.72H36.9301V76.86C36.9301 77.3667 37.1467 77.62 37.5801 77.62C37.8201 77.62 38.0334 77.5833 38.2201 77.51V78.21C38.0134 78.2833 37.7767 78.32 37.5101 78.32ZM39.4948 78.25V73.02H40.3248V78.25H39.4948ZM40.2748 71.77C40.1681 71.8767 40.0414 71.93 39.8948 71.93C39.7481 71.93 39.6181 71.8767 39.5048 71.77C39.3981 71.6633 39.3448 71.5333 39.3448 71.38C39.3448 71.2267 39.3981 71.0967 39.5048 70.99C39.6181 70.8833 39.7481 70.83 39.8948 70.83C40.0414 70.83 40.1681 70.8833 40.2748 70.99C40.3881 71.0967 40.4448 71.2267 40.4448 71.38C40.4448 71.5333 40.3881 71.6633 40.2748 71.77ZM44.2036 77.65C44.7236 77.65 45.1369 77.47 45.4436 77.11C45.7569 76.75 45.9136 76.2733 45.9136 75.68V75.61C45.9136 75.0033 45.7569 74.52 45.4436 74.16C45.1369 73.8 44.7236 73.62 44.2036 73.62C43.6769 73.62 43.2603 73.8 42.9536 74.16C42.6469 74.52 42.4936 75 42.4936 75.6V75.68C42.4936 76.28 42.6469 76.76 42.9536 77.12C43.2603 77.4733 43.6769 77.65 44.2036 77.65ZM44.1936 78.34C43.4536 78.34 42.8403 78.09 42.3536 77.59C41.8736 77.0833 41.6336 76.4467 41.6336 75.68V75.6C41.6336 74.82 41.8736 74.18 42.3536 73.68C42.8403 73.18 43.4569 72.93 44.2036 72.93C44.9503 72.93 45.5636 73.18 46.0436 73.68C46.5303 74.1733 46.7736 74.81 46.7736 75.59V75.67C46.7736 76.4567 46.5303 77.1 46.0436 77.6C45.5569 78.0933 44.9403 78.34 44.1936 78.34ZM48.0588 78.25V73.02H48.8888V73.85C49.0154 73.5833 49.2254 73.3633 49.5188 73.19C49.8121 73.0167 50.1621 72.93 50.5688 72.93C51.1421 72.93 51.5921 73.1 51.9188 73.44C52.2454 73.78 52.4088 74.3133 52.4088 75.04V78.25H51.5788V74.98C51.5788 74.52 51.4788 74.1833 51.2788 73.97C51.0788 73.7567 50.7688 73.65 50.3488 73.65C49.9421 73.65 49.5954 73.7767 49.3088 74.03C49.0288 74.2833 48.8888 74.6333 48.8888 75.08V78.25H48.0588ZM55.6553 78.34C55.0286 78.34 54.5353 78.19 54.1753 77.89C53.822 77.59 53.632 77.1733 53.6053 76.64H54.4153C54.482 77.3133 54.892 77.65 55.6453 77.65C56.4053 77.65 56.7853 77.3733 56.7853 76.82C56.7853 76.56 56.6886 76.37 56.4953 76.25C56.3086 76.1233 55.9986 76.02 55.5653 75.94C54.8853 75.8133 54.412 75.64 54.1453 75.42C53.8786 75.1933 53.7453 74.8533 53.7453 74.4C53.7453 73.9467 53.9253 73.59 54.2853 73.33C54.652 73.0633 55.062 72.93 55.5153 72.93C56.6486 72.93 57.2786 73.4333 57.4053 74.44H56.6053C56.5453 74.1533 56.4286 73.9467 56.2553 73.82C56.082 73.6867 55.832 73.62 55.5053 73.62C55.2053 73.62 54.9653 73.69 54.7853 73.83C54.6053 73.9633 54.5153 74.1433 54.5153 74.37C54.5153 74.61 54.5986 74.7867 54.7653 74.9C54.9386 75.0133 55.262 75.1133 55.7353 75.2C56.0486 75.26 56.2986 75.32 56.4853 75.38C56.6786 75.4333 56.8653 75.5167 57.0453 75.63C57.232 75.7433 57.3653 75.8933 57.4453 76.08C57.532 76.26 57.5753 76.4833 57.5753 76.75C57.5753 77.2367 57.4086 77.6233 57.0753 77.91C56.7486 78.1967 56.2753 78.34 55.6553 78.34Z" fill="black"/>
<path d="M430.732 75.843C430.783 75.7149 430.721 75.5693 430.593 75.518L428.505 74.6806C428.377 74.6292 428.231 74.6914 428.18 74.8196C428.128 74.9477 428.19 75.0933 428.319 75.1447L430.175 75.889L429.431 77.7453C429.379 77.8735 429.441 78.019 429.57 78.0704C429.698 78.1218 429.843 78.0596 429.895 77.9314L430.732 75.843ZM356.085 104.793L356.264 104.618L356.085 104.793ZM360.517 105.674L360.616 105.903L360.517 105.674ZM287.7 41.4672L287.5 41.3168L287.7 41.4672ZM293.754 41.0767L293.933 40.9019L293.754 41.0767ZM229.353 112.63L229.493 112.423L229.353 112.63ZM234.783 111.719L234.983 111.87L234.783 111.719ZM158.39 67.3502L158.505 67.5719L158.39 67.3502ZM162.474 67.5795L162.613 67.3722L162.474 67.5795ZM102.876 96.2934L102.76 96.0717L102.876 96.2934ZM67.2055 147.392L68.0664 146.15L67.6555 145.865L66.7945 147.108L67.2055 147.392ZM69.7883 143.666L71.5101 141.181L71.0992 140.897L69.3773 143.381L69.7883 143.666ZM73.232 138.697L74.9539 136.213L74.5429 135.928L72.8211 138.412L73.232 138.697ZM76.6758 133.728L78.3976 131.244L77.9867 130.959L76.2648 133.443L76.6758 133.728ZM80.1195 128.759L81.8414 126.275L81.4304 125.99L79.7085 128.475L80.1195 128.759ZM83.5632 123.79L85.2851 121.306L84.8742 121.021L83.1523 123.506L83.5632 123.79ZM87.007 118.822L88.7288 116.337L88.3179 116.052L86.596 118.537L87.007 118.822ZM90.4507 113.853L92.1726 111.368L91.7616 111.084L90.0398 113.568L90.4507 113.853ZM93.8945 108.884L95.6163 106.4L95.2054 106.115L93.4835 108.599L93.8945 108.884ZM97.3382 103.915L99.0601 101.431L98.6491 101.146L96.9272 103.63L97.3382 103.915ZM100.782 98.9464L101.643 97.7042L101.232 97.4193L100.371 98.6616L100.782 98.9464ZM101.643 97.7042C101.989 97.2043 102.452 96.7962 102.991 96.5151L102.76 96.0717C102.149 96.3904 101.625 96.8529 101.232 97.4193L101.643 97.7042ZM102.991 96.5151L104.379 95.7915L104.148 95.3481L102.76 96.0717L102.991 96.5151ZM107.155 94.3443L109.931 92.8972L109.699 92.4538L106.924 93.901L107.155 94.3443ZM112.706 91.45L115.482 90.0029L115.251 89.5595L112.475 91.0067L112.706 91.45ZM118.258 88.5557L121.033 87.1085L120.802 86.6652L118.027 88.1123L118.258 88.5557ZM123.809 85.6614L126.585 84.2142L126.354 83.7709L123.578 85.218L123.809 85.6614ZM129.361 82.7671L132.136 81.3199L131.905 80.8765L129.129 82.3237L129.361 82.7671ZM134.912 79.8727L137.688 78.4256L137.456 77.9822L134.681 79.4294L134.912 79.8727ZM140.463 76.9784L143.239 75.5313L143.008 75.0879L140.232 76.5351L140.463 76.9784ZM146.015 74.0841L148.79 72.6369L148.559 72.1936L145.784 73.6407L146.015 74.0841ZM151.566 71.1898L154.342 69.7426L154.111 69.2992L151.335 70.7464L151.566 71.1898ZM157.118 68.2954L158.505 67.5719L158.274 67.1285L156.886 67.8521L157.118 68.2954ZM158.505 67.5719C158.808 67.4143 159.125 67.3009 159.449 67.2311L159.344 66.7423C158.976 66.8215 158.617 66.95 158.274 67.1285L158.505 67.5719ZM161.435 67.3426C161.749 67.4483 162.051 67.5965 162.334 67.7869L162.613 67.3722C162.293 67.1565 161.95 66.9885 161.594 66.8687L161.435 67.3426ZM162.334 67.7869L163.62 68.6532L163.9 68.2386L162.613 67.3722L162.334 67.7869ZM166.193 70.386L168.765 72.1187L169.044 71.704L166.472 69.9713L166.193 70.386ZM171.337 73.8514L173.909 75.5841L174.189 75.1694L171.616 73.4367L171.337 73.8514ZM176.482 77.3168L179.054 79.0496L179.333 78.6349L176.761 76.9021L176.482 77.3168ZM181.626 80.7823L184.198 82.515L184.478 82.1003L181.906 80.3676L181.626 80.7823ZM186.771 84.2477L189.343 85.9804L189.622 85.5657L187.05 83.833L186.771 84.2477ZM191.915 87.7132L194.488 89.4459L194.767 89.0312L192.195 87.2985L191.915 87.7132ZM197.06 91.1786L199.632 92.9113L199.912 92.4966L197.339 90.7639L197.06 91.1786ZM202.204 94.644L204.777 96.3767L205.056 95.9621L202.484 94.2293L202.204 94.644ZM207.349 98.1095L209.921 99.8422L210.201 99.4275L207.628 97.6948L207.349 98.1095ZM212.494 101.575L215.066 103.308L215.345 102.893L212.773 101.16L212.494 101.575ZM217.638 105.04L220.21 106.773L220.49 106.358L217.918 104.626L217.638 105.04ZM222.783 108.506L225.355 110.238L225.634 109.824L223.062 108.091L222.783 108.506ZM227.927 111.971L229.213 112.838L229.493 112.423L228.207 111.557L227.927 111.971ZM229.213 112.838C229.674 113.148 230.175 113.356 230.688 113.467L230.794 112.979C230.341 112.881 229.9 112.697 229.493 112.423L229.213 112.838ZM233.794 112.946C234.243 112.674 234.649 112.313 234.983 111.87L234.583 111.569C234.288 111.961 233.931 112.279 233.535 112.519L233.794 112.946ZM234.983 111.87L235.864 110.699L235.465 110.398L234.583 111.569L234.983 111.87ZM237.628 108.357L239.392 106.015L238.993 105.715L237.229 108.056L237.628 108.357ZM241.156 103.674L242.92 101.332L242.521 101.031L240.757 103.373L241.156 103.674ZM244.684 98.9902L246.448 96.6485L246.049 96.3476L244.285 98.6894L244.684 98.9902ZM248.212 94.3067L249.976 91.965L249.576 91.6642L247.812 94.0059L248.212 94.3067ZM251.74 89.6232L253.504 87.2815L253.104 86.9807L251.34 89.3224L251.74 89.6232ZM255.267 84.9398L257.031 82.598L256.632 82.2972L254.868 84.6389L255.267 84.9398ZM258.795 80.2563L260.559 77.9146L260.16 77.6137L258.396 79.9555L258.795 80.2563ZM262.323 75.5728L264.087 73.2311L263.688 72.9302L261.924 75.272L262.323 75.5728ZM265.851 70.8893L267.615 68.5476L267.215 68.2468L265.452 70.5885L265.851 70.8893ZM269.379 66.2059L271.143 63.8641L270.743 63.5633L268.979 65.905L269.379 66.2059ZM272.907 61.5224L274.67 59.1807L274.271 58.8798L272.507 61.2216L272.907 61.5224ZM276.434 56.8389L278.198 54.4972L277.799 54.1964L276.035 56.5381L276.434 56.8389ZM279.962 52.1554L281.726 49.8137L281.327 49.5129L279.563 51.8546L279.962 52.1554ZM283.49 47.472L285.254 45.1302L284.854 44.8294L283.091 47.1711L283.49 47.472ZM287.018 42.7885L287.9 41.6176L287.5 41.3168L286.618 42.4877L287.018 42.7885ZM287.9 41.6176C288.238 41.1684 288.654 40.8194 289.113 40.5721L288.876 40.1319C288.355 40.4128 287.883 40.8089 287.5 41.3168L287.9 41.6176ZM292.238 40.3706C292.725 40.5569 293.182 40.8495 293.576 41.2515L293.933 40.9019C293.488 40.4473 292.97 40.1152 292.416 39.9036L292.238 40.3706ZM293.576 41.2515L294.615 42.3134L294.972 41.9638L293.933 40.9019L293.576 41.2515ZM296.692 44.4373L298.77 46.5612L299.127 46.2115L297.05 44.0877L296.692 44.4373ZM300.848 48.6851L302.925 50.8089L303.283 50.4593L301.205 48.3354L300.848 48.6851ZM305.003 52.9328L307.081 55.0567L307.438 54.707L305.36 52.5832L305.003 52.9328ZM309.158 57.1806L311.236 59.3044L311.594 58.9548L309.516 56.8309L309.158 57.1806ZM313.314 61.4283L315.392 63.5522L315.749 63.2025L313.671 61.0787L313.314 61.4283ZM317.469 65.676L319.547 67.7999L319.904 67.4503L317.827 65.3264L317.469 65.676ZM321.625 69.9238L323.702 72.0477L324.06 71.698L321.982 69.5741L321.625 69.9238ZM325.78 74.1715L327.858 76.2954L328.215 75.9458L326.137 73.8219L325.78 74.1715ZM329.935 78.4193L332.013 80.5432L332.371 80.1935L330.293 78.0696L329.935 78.4193ZM334.091 82.667L336.169 84.7909L336.526 84.4413L334.448 82.3174L334.091 82.667ZM338.246 86.9148L340.324 89.0387L340.681 88.689L338.604 86.5651L338.246 86.9148ZM342.402 91.1625L344.479 93.2864L344.837 92.9368L342.759 90.8129L342.402 91.1625ZM346.557 95.4103L348.635 97.5342L348.992 97.1845L346.914 95.0606L346.557 95.4103ZM350.712 99.658L352.79 101.782L353.148 101.432L351.07 99.3084L350.712 99.658ZM354.868 103.906L355.907 104.968L356.264 104.618L355.225 103.556L354.868 103.906ZM355.907 104.968C356.21 105.278 356.553 105.534 356.921 105.733L357.159 105.293C356.834 105.118 356.532 104.892 356.264 104.618L355.907 104.968ZM359.386 106.223C359.802 106.18 360.217 106.074 360.616 105.903L360.419 105.444C360.067 105.594 359.701 105.687 359.334 105.726L359.386 106.223ZM360.616 105.903L361.961 105.328L361.765 104.868L360.419 105.444L360.616 105.903ZM364.653 104.177L367.345 103.026L367.148 102.566L364.457 103.717L364.653 104.177ZM370.036 101.875L372.728 100.724L372.531 100.265L369.84 101.416L370.036 101.875ZM375.42 99.5735L378.111 98.4226L377.915 97.9628L375.223 99.1137L375.42 99.5735ZM380.803 97.2717L383.495 96.1208L383.298 95.661L380.606 96.8119L380.803 97.2717ZM386.186 94.9698L388.878 93.8189L388.681 93.3592L385.99 94.5101L386.186 94.9698ZM391.57 92.668L394.261 91.5171L394.065 91.0574L391.373 92.2083L391.57 92.668ZM396.953 90.3662L399.644 89.2153L399.448 88.7556L396.756 89.9065L396.953 90.3662ZM402.336 88.0644L405.028 86.9135L404.831 86.4538L402.139 87.6047L402.336 88.0644ZM407.719 85.7626L410.411 84.6117L410.214 84.1519L407.523 85.3029L407.719 85.7626ZM413.103 83.4608L415.794 82.3099L415.598 81.8501L412.906 83.001L413.103 83.4608ZM418.486 81.159L421.178 80.008L420.981 79.5483L418.289 80.6992L418.486 81.159ZM423.869 78.8571L426.561 77.7062L426.364 77.2465L423.673 78.3974L423.869 78.8571ZM429.252 76.5553L430.598 75.9799L430.402 75.5201L429.056 76.0956L429.252 76.5553Z" fill="black"/>
<circle cx="101" cy="98.25" r="12" fill="#D9D9D9" fill-opacity="0.75"/>
<circle cx="164" cy="201.25" r="12" fill="#D9D9D9" fill-opacity="0.75"/>
<circle cx="160" cy="67.25" r="12" fill="#D9D9D9" fill-opacity="0.75"/>
<circle cx="234" cy="116.25" r="12" fill="#D9D9D9" fill-opacity="0.75"/>
<circle cx="291" cy="37.25" r="12" fill="#D9D9D9" fill-opacity="0.75"/>
<circle cx="358" cy="104.25" r="12" fill="#D9D9D9" fill-opacity="0.75"/>
<circle cx="431" cy="74.25" r="12" fill="#D9D9D9" fill-opacity="0.75"/>
<path d="M121.15 102.34C120.637 102.34 120.217 102.213 119.89 101.96C119.57 101.7 119.41 101.313 119.41 100.8C119.41 100.24 119.657 99.83 120.15 99.57C120.65 99.31 121.277 99.18 122.03 99.18H122.78V98.8C122.78 98.38 122.693 98.08 122.52 97.9C122.347 97.7133 122.06 97.62 121.66 97.62C120.94 97.62 120.54 97.9333 120.46 98.56H119.63C119.683 98 119.903 97.59 120.29 97.33C120.677 97.0633 121.147 96.93 121.7 96.93C122.973 96.93 123.61 97.5533 123.61 98.8V102.25H122.78V101.59C122.38 102.09 121.837 102.34 121.15 102.34ZM121.23 101.68C121.683 101.68 122.053 101.57 122.34 101.35C122.633 101.123 122.78 100.813 122.78 100.42V99.77H122.06C120.847 99.77 120.24 100.113 120.24 100.8C120.24 101.387 120.57 101.68 121.23 101.68ZM125.24 102.25V97.02H126.07V97.85C126.197 97.5833 126.407 97.3633 126.7 97.19C126.994 97.0167 127.344 96.93 127.75 96.93C128.324 96.93 128.774 97.1 129.1 97.44C129.427 97.78 129.59 98.3133 129.59 99.04V102.25H128.76V98.98C128.76 98.52 128.66 98.1833 128.46 97.97C128.26 97.7567 127.95 97.65 127.53 97.65C127.124 97.65 126.777 97.7767 126.49 98.03C126.21 98.2833 126.07 98.6333 126.07 99.08V102.25H125.24ZM133.307 104.16C132.58 104.16 132.02 104.01 131.627 103.71C131.24 103.417 131.01 103.03 130.937 102.55H131.787C131.907 103.157 132.41 103.46 133.297 103.46C133.83 103.46 134.244 103.327 134.537 103.06C134.83 102.8 134.977 102.397 134.977 101.85V101.09C134.817 101.363 134.574 101.597 134.247 101.79C133.92 101.983 133.574 102.08 133.207 102.08C132.52 102.08 131.95 101.847 131.497 101.38C131.05 100.913 130.827 100.32 130.827 99.6V99.53C130.827 98.8033 131.057 98.19 131.517 97.69C131.977 97.1833 132.56 96.93 133.267 96.93C134.04 96.93 134.61 97.24 134.977 97.86V97.02H135.807V101.9C135.8 102.64 135.57 103.2 135.117 103.58C134.664 103.967 134.06 104.16 133.307 104.16ZM133.297 101.39C133.797 101.39 134.207 101.227 134.527 100.9C134.847 100.567 135.007 100.113 135.007 99.54V99.47C135.007 98.89 134.857 98.4367 134.557 98.11C134.264 97.7833 133.86 97.62 133.347 97.62C132.834 97.62 132.427 97.7933 132.127 98.14C131.834 98.48 131.687 98.93 131.687 99.49V99.57C131.687 100.123 131.84 100.567 132.147 100.9C132.46 101.227 132.844 101.39 133.297 101.39ZM137.486 102.25V97.02H138.316V97.96C138.496 97.6333 138.716 97.3833 138.976 97.21C139.243 97.0367 139.596 96.9433 140.036 96.93V97.71C139.463 97.7367 139.033 97.87 138.746 98.11C138.46 98.35 138.316 98.7733 138.316 99.38V102.25H137.486ZM141.765 104.07L142.755 101.71L140.705 97.02H141.595L143.195 100.77L144.645 97.02H145.495L142.605 104.07H141.765Z" fill="black"/>
<path d="M146.84 47.25V39.52H147.67V42.85C147.797 42.5833 148.007 42.3633 148.3 42.19C148.593 42.0167 148.943 41.93 149.35 41.93C149.923 41.93 150.373 42.1 150.7 42.44C151.027 42.78 151.19 43.3133 151.19 44.04V47.25H150.36V43.98C150.36 43.52 150.26 43.1833 150.06 42.97C149.86 42.7567 149.55 42.65 149.13 42.65C148.723 42.65 148.377 42.7767 148.09 43.03C147.81 43.2833 147.67 43.6333 147.67 44.08V47.25H146.84ZM154.127 47.34C153.613 47.34 153.193 47.2133 152.867 46.96C152.547 46.7 152.387 46.3133 152.387 45.8C152.387 45.24 152.633 44.83 153.127 44.57C153.627 44.31 154.253 44.18 155.007 44.18H155.757V43.8C155.757 43.38 155.67 43.08 155.497 42.9C155.323 42.7133 155.037 42.62 154.637 42.62C153.917 42.62 153.517 42.9333 153.437 43.56H152.607C152.66 43 152.88 42.59 153.267 42.33C153.653 42.0633 154.123 41.93 154.677 41.93C155.95 41.93 156.587 42.5533 156.587 43.8V47.25H155.757V46.59C155.357 47.09 154.813 47.34 154.127 47.34ZM154.207 46.68C154.66 46.68 155.03 46.57 155.317 46.35C155.61 46.1233 155.757 45.8133 155.757 45.42V44.77H155.037C153.823 44.77 153.217 45.1133 153.217 45.8C153.217 46.3867 153.547 46.68 154.207 46.68ZM158.217 49.07V42.02H159.047V42.9C159.207 42.6333 159.45 42.4067 159.777 42.22C160.104 42.0267 160.45 41.93 160.817 41.93C161.517 41.93 162.087 42.17 162.527 42.65C162.974 43.1233 163.197 43.76 163.197 44.56V44.64C163.197 45.4467 162.977 46.1 162.537 46.6C162.104 47.0933 161.53 47.34 160.817 47.34C160.41 47.34 160.054 47.2533 159.747 47.08C159.44 46.9 159.207 46.67 159.047 46.39V49.07H158.217ZM160.737 46.65C161.257 46.65 161.654 46.48 161.927 46.14C162.2 45.8 162.337 45.3133 162.337 44.68V44.6C162.337 43.9667 162.184 43.48 161.877 43.14C161.577 42.7933 161.194 42.62 160.727 42.62C160.22 42.62 159.807 42.79 159.487 43.13C159.174 43.4633 159.017 43.9533 159.017 44.6V44.68C159.017 45.3267 159.17 45.8167 159.477 46.15C159.79 46.4833 160.21 46.65 160.737 46.65ZM164.486 49.07V42.02H165.316V42.9C165.476 42.6333 165.72 42.4067 166.046 42.22C166.373 42.0267 166.72 41.93 167.086 41.93C167.786 41.93 168.356 42.17 168.796 42.65C169.243 43.1233 169.466 43.76 169.466 44.56V44.64C169.466 45.4467 169.246 46.1 168.806 46.6C168.373 47.0933 167.8 47.34 167.086 47.34C166.68 47.34 166.323 47.2533 166.016 47.08C165.71 46.9 165.476 46.67 165.316 46.39V49.07H164.486ZM167.006 46.65C167.526 46.65 167.923 46.48 168.196 46.14C168.47 45.8 168.606 45.3133 168.606 44.68V44.6C168.606 43.9667 168.453 43.48 168.146 43.14C167.846 42.7933 167.463 42.62 166.996 42.62C166.49 42.62 166.076 42.79 165.756 43.13C165.443 43.4633 165.286 43.9533 165.286 44.6V44.68C165.286 45.3267 165.44 45.8167 165.746 46.15C166.06 46.4833 166.48 46.65 167.006 46.65ZM171.128 49.07L172.118 46.71L170.068 42.02H170.958L172.558 45.77L174.008 42.02H174.858L171.968 49.07H171.128Z" fill="black"/>
<path d="M253.46 120.34C252.833 120.34 252.34 120.19 251.98 119.89C251.627 119.59 251.437 119.173 251.41 118.64H252.22C252.287 119.313 252.697 119.65 253.45 119.65C254.21 119.65 254.59 119.373 254.59 118.82C254.59 118.56 254.493 118.37 254.3 118.25C254.113 118.123 253.803 118.02 253.37 117.94C252.69 117.813 252.217 117.64 251.95 117.42C251.683 117.193 251.55 116.853 251.55 116.4C251.55 115.947 251.73 115.59 252.09 115.33C252.457 115.063 252.867 114.93 253.32 114.93C254.453 114.93 255.083 115.433 255.21 116.44H254.41C254.35 116.153 254.233 115.947 254.06 115.82C253.887 115.687 253.637 115.62 253.31 115.62C253.01 115.62 252.77 115.69 252.59 115.83C252.41 115.963 252.32 116.143 252.32 116.37C252.32 116.61 252.403 116.787 252.57 116.9C252.743 117.013 253.067 117.113 253.54 117.2C253.853 117.26 254.103 117.32 254.29 117.38C254.483 117.433 254.67 117.517 254.85 117.63C255.037 117.743 255.17 117.893 255.25 118.08C255.337 118.26 255.38 118.483 255.38 118.75C255.38 119.237 255.213 119.623 254.88 119.91C254.553 120.197 254.08 120.34 253.46 120.34ZM257.955 120.34C257.441 120.34 257.021 120.213 256.695 119.96C256.375 119.7 256.215 119.313 256.215 118.8C256.215 118.24 256.461 117.83 256.955 117.57C257.455 117.31 258.081 117.18 258.835 117.18H259.585V116.8C259.585 116.38 259.498 116.08 259.325 115.9C259.151 115.713 258.865 115.62 258.465 115.62C257.745 115.62 257.345 115.933 257.265 116.56H256.435C256.488 116 256.708 115.59 257.095 115.33C257.481 115.063 257.951 114.93 258.505 114.93C259.778 114.93 260.415 115.553 260.415 116.8V120.25H259.585V119.59C259.185 120.09 258.641 120.34 257.955 120.34ZM258.035 119.68C258.488 119.68 258.858 119.57 259.145 119.35C259.438 119.123 259.585 118.813 259.585 118.42V117.77H258.865C257.651 117.77 257.045 118.113 257.045 118.8C257.045 119.387 257.375 119.68 258.035 119.68ZM264.015 120.34C263.315 120.34 262.745 120.107 262.305 119.64C261.872 119.173 261.655 118.54 261.655 117.74V117.66C261.655 116.86 261.882 116.207 262.335 115.7C262.788 115.187 263.375 114.93 264.095 114.93C264.868 114.93 265.438 115.24 265.805 115.86V112.52H266.635V120.25H265.805V119.35C265.645 119.617 265.398 119.85 265.065 120.05C264.732 120.243 264.382 120.34 264.015 120.34ZM264.105 119.65C264.618 119.65 265.035 119.483 265.355 119.15C265.675 118.81 265.835 118.317 265.835 117.67V117.59C265.835 116.937 265.688 116.447 265.395 116.12C265.108 115.787 264.702 115.62 264.175 115.62C263.655 115.62 263.248 115.797 262.955 116.15C262.662 116.497 262.515 116.987 262.515 117.62V117.7C262.515 118.333 262.662 118.817 262.955 119.15C263.255 119.483 263.638 119.65 264.105 119.65Z" fill="black"/>
<path d="M279.98 23.34C279.233 23.34 278.623 23.1 278.15 22.62C277.683 22.1333 277.45 21.49 277.45 20.69V20.61C277.45 19.8233 277.677 19.18 278.13 18.68C278.59 18.18 279.18 17.93 279.9 17.93C280.567 17.93 281.123 18.1467 281.57 18.58C282.023 19.0067 282.25 19.6567 282.25 20.53V20.8H278.31C278.33 21.4 278.48 21.86 278.76 22.18C279.047 22.4933 279.457 22.65 279.99 22.65C280.81 22.65 281.273 22.3467 281.38 21.74H282.21C282.123 22.2533 281.88 22.65 281.48 22.93C281.08 23.2033 280.58 23.34 279.98 23.34ZM278.34 20.13H281.4C281.327 19.1233 280.827 18.62 279.9 18.62C279.48 18.62 279.133 18.7567 278.86 19.03C278.587 19.2967 278.413 19.6633 278.34 20.13ZM282.817 23.25L284.687 20.56L282.937 18.02H283.907L285.187 19.92L286.457 18.02H287.357L285.627 20.5L287.537 23.25H286.557L285.147 21.14L283.707 23.25H282.817ZM290.576 23.34C289.836 23.34 289.223 23.1 288.736 22.62C288.256 22.1333 288.016 21.49 288.016 20.69V20.61C288.016 19.8233 288.26 19.18 288.746 18.68C289.24 18.18 289.843 17.93 290.556 17.93C291.156 17.93 291.666 18.08 292.086 18.38C292.506 18.6733 292.753 19.1333 292.826 19.76H292.006C291.886 19 291.403 18.62 290.556 18.62C290.07 18.62 289.666 18.8033 289.346 19.17C289.033 19.53 288.876 20.01 288.876 20.61V20.69C288.876 21.3167 289.03 21.8 289.336 22.14C289.65 22.48 290.066 22.65 290.586 22.65C290.98 22.65 291.316 22.54 291.596 22.32C291.883 22.0933 292.046 21.7767 292.086 21.37H292.856C292.803 21.9433 292.563 22.4167 292.136 22.79C291.716 23.1567 291.196 23.34 290.576 23.34ZM294.13 23.25V18.02H294.96V23.25H294.13ZM294.91 16.77C294.803 16.8767 294.676 16.93 294.53 16.93C294.383 16.93 294.253 16.8767 294.14 16.77C294.033 16.6633 293.98 16.5333 293.98 16.38C293.98 16.2267 294.033 16.0967 294.14 15.99C294.253 15.8833 294.383 15.83 294.53 15.83C294.676 15.83 294.803 15.8833 294.91 15.99C295.023 16.0967 295.08 16.2267 295.08 16.38C295.08 16.5333 295.023 16.6633 294.91 16.77ZM298.248 23.32C297.788 23.32 297.438 23.1967 297.198 22.95C296.958 22.7033 296.838 22.3667 296.838 21.94V18.72H296.088V18.02H296.838V16.83H297.668V18.02H298.888V18.72H297.668V21.86C297.668 22.3667 297.885 22.62 298.318 22.62C298.558 22.62 298.772 22.5833 298.958 22.51V23.21C298.752 23.2833 298.515 23.32 298.248 23.32ZM302.353 23.34C301.606 23.34 300.996 23.1 300.523 22.62C300.056 22.1333 299.823 21.49 299.823 20.69V20.61C299.823 19.8233 300.05 19.18 300.503 18.68C300.963 18.18 301.553 17.93 302.273 17.93C302.94 17.93 303.496 18.1467 303.943 18.58C304.396 19.0067 304.623 19.6567 304.623 20.53V20.8H300.683C300.703 21.4 300.853 21.86 301.133 22.18C301.42 22.4933 301.83 22.65 302.363 22.65C303.183 22.65 303.646 22.3467 303.753 21.74H304.583C304.496 22.2533 304.253 22.65 303.853 22.93C303.453 23.2033 302.953 23.34 302.353 23.34ZM300.713 20.13H303.773C303.7 19.1233 303.2 18.62 302.273 18.62C301.853 18.62 301.506 18.7567 301.233 19.03C300.96 19.2967 300.786 19.6633 300.713 20.13ZM307.867 23.34C307.167 23.34 306.597 23.1067 306.157 22.64C305.723 22.1733 305.507 21.54 305.507 20.74V20.66C305.507 19.86 305.733 19.2067 306.187 18.7C306.64 18.1867 307.227 17.93 307.947 17.93C308.72 17.93 309.29 18.24 309.657 18.86V15.52H310.487V23.25H309.657V22.35C309.497 22.6167 309.25 22.85 308.917 23.05C308.583 23.2433 308.233 23.34 307.867 23.34ZM307.957 22.65C308.47 22.65 308.887 22.4833 309.207 22.15C309.527 21.81 309.687 21.3167 309.687 20.67V20.59C309.687 19.9367 309.54 19.4467 309.247 19.12C308.96 18.7867 308.553 18.62 308.027 18.62C307.507 18.62 307.1 18.7967 306.807 19.15C306.513 19.4967 306.367 19.9867 306.367 20.62V20.7C306.367 21.3333 306.513 21.8167 306.807 22.15C307.107 22.4833 307.49 22.65 307.957 22.65Z" fill="black"/>
<path d="M373.84 117.25V112.02H374.67V112.82C374.797 112.56 374.997 112.347 375.27 112.18C375.55 112.013 375.87 111.93 376.23 111.93C376.997 111.93 377.507 112.257 377.76 112.91C377.927 112.59 378.177 112.347 378.51 112.18C378.85 112.013 379.197 111.93 379.55 111.93C380.063 111.93 380.483 112.1 380.81 112.44C381.143 112.773 381.31 113.297 381.31 114.01V117.25H380.48V113.95C380.48 113.083 380.11 112.65 379.37 112.65C378.997 112.65 378.673 112.773 378.4 113.02C378.127 113.267 377.99 113.61 377.99 114.05V117.25H377.16V113.95C377.16 113.083 376.79 112.65 376.05 112.65C375.677 112.65 375.353 112.773 375.08 113.02C374.807 113.267 374.67 113.61 374.67 114.05V117.25H373.84ZM385.122 116.65C385.642 116.65 386.055 116.47 386.362 116.11C386.675 115.75 386.832 115.273 386.832 114.68V114.61C386.832 114.003 386.675 113.52 386.362 113.16C386.055 112.8 385.642 112.62 385.122 112.62C384.595 112.62 384.178 112.8 383.872 113.16C383.565 113.52 383.412 114 383.412 114.6V114.68C383.412 115.28 383.565 115.76 383.872 116.12C384.178 116.473 384.595 116.65 385.122 116.65ZM385.112 117.34C384.372 117.34 383.758 117.09 383.272 116.59C382.792 116.083 382.552 115.447 382.552 114.68V114.6C382.552 113.82 382.792 113.18 383.272 112.68C383.758 112.18 384.375 111.93 385.122 111.93C385.868 111.93 386.482 112.18 386.962 112.68C387.448 113.173 387.692 113.81 387.692 114.59V114.67C387.692 115.457 387.448 116.1 386.962 116.6C386.475 117.093 385.858 117.34 385.112 117.34ZM391.157 116.65C391.677 116.65 392.09 116.47 392.397 116.11C392.71 115.75 392.867 115.273 392.867 114.68V114.61C392.867 114.003 392.71 113.52 392.397 113.16C392.09 112.8 391.677 112.62 391.157 112.62C390.63 112.62 390.213 112.8 389.907 113.16C389.6 113.52 389.447 114 389.447 114.6V114.68C389.447 115.28 389.6 115.76 389.907 116.12C390.213 116.473 390.63 116.65 391.157 116.65ZM391.147 117.34C390.407 117.34 389.793 117.09 389.307 116.59C388.827 116.083 388.587 115.447 388.587 114.68V114.6C388.587 113.82 388.827 113.18 389.307 112.68C389.793 112.18 390.41 111.93 391.157 111.93C391.903 111.93 392.517 112.18 392.997 112.68C393.483 113.173 393.727 113.81 393.727 114.59V114.67C393.727 115.457 393.483 116.1 392.997 116.6C392.51 117.093 391.893 117.34 391.147 117.34ZM396.982 117.34C396.282 117.34 395.712 117.107 395.272 116.64C394.839 116.173 394.622 115.54 394.622 114.74V114.66C394.622 113.86 394.849 113.207 395.302 112.7C395.755 112.187 396.342 111.93 397.062 111.93C397.835 111.93 398.405 112.24 398.772 112.86V109.52H399.602V117.25H398.772V116.35C398.612 116.617 398.365 116.85 398.032 117.05C397.699 117.243 397.349 117.34 396.982 117.34ZM397.072 116.65C397.585 116.65 398.002 116.483 398.322 116.15C398.642 115.81 398.802 115.317 398.802 114.67V114.59C398.802 113.937 398.655 113.447 398.362 113.12C398.075 112.787 397.669 112.62 397.142 112.62C396.622 112.62 396.215 112.797 395.922 113.15C395.629 113.497 395.482 113.987 395.482 114.62V114.7C395.482 115.333 395.629 115.817 395.922 116.15C396.222 116.483 396.605 116.65 397.072 116.65ZM401.751 119.07L402.741 116.71L400.691 112.02H401.581L403.181 115.77L404.631 112.02H405.481L402.591 119.07H401.751Z" fill="black"/>
<path d="M445.84 76.25V71.02H446.67V71.85C446.797 71.5833 447.007 71.3633 447.3 71.19C447.593 71.0167 447.943 70.93 448.35 70.93C448.923 70.93 449.373 71.1 449.7 71.44C450.027 71.78 450.19 72.3133 450.19 73.04V76.25H449.36V72.98C449.36 72.52 449.26 72.1833 449.06 71.97C448.86 71.7567 448.55 71.65 448.13 71.65C447.723 71.65 447.377 71.7767 447.09 72.03C446.81 72.2833 446.67 72.6333 446.67 73.08V76.25H445.84ZM453.957 76.34C453.21 76.34 452.6 76.1 452.127 75.62C451.66 75.1333 451.427 74.49 451.427 73.69V73.61C451.427 72.8233 451.653 72.18 452.107 71.68C452.567 71.18 453.157 70.93 453.877 70.93C454.543 70.93 455.1 71.1467 455.547 71.58C456 72.0067 456.227 72.6567 456.227 73.53V73.8H452.287C452.307 74.4 452.457 74.86 452.737 75.18C453.023 75.4933 453.433 75.65 453.967 75.65C454.787 75.65 455.25 75.3467 455.357 74.74H456.187C456.1 75.2533 455.857 75.65 455.457 75.93C455.057 76.2033 454.557 76.34 453.957 76.34ZM452.317 73.13H455.377C455.303 72.1233 454.803 71.62 453.877 71.62C453.457 71.62 453.11 71.7567 452.837 72.03C452.563 72.2967 452.39 72.6633 452.317 73.13ZM459.27 76.34C458.717 76.34 458.273 76.1767 457.94 75.85C457.613 75.5233 457.45 75.0167 457.45 74.33V71.02H458.28V74.29C458.28 74.75 458.377 75.0867 458.57 75.3C458.77 75.5133 459.077 75.62 459.49 75.62C459.883 75.62 460.22 75.4933 460.5 75.24C460.787 74.9867 460.93 74.6367 460.93 74.19V71.02H461.76V76.25H460.93V75.42C460.803 75.6867 460.593 75.9067 460.3 76.08C460.013 76.2533 459.67 76.34 459.27 76.34ZM465.028 76.32C464.568 76.32 464.218 76.1967 463.978 75.95C463.738 75.7033 463.618 75.3667 463.618 74.94V71.72H462.868V71.02H463.618V69.83H464.448V71.02H465.668V71.72H464.448V74.86C464.448 75.3667 464.664 75.62 465.098 75.62C465.338 75.62 465.551 75.5833 465.738 75.51V76.21C465.531 76.2833 465.294 76.32 465.028 76.32ZM466.992 76.25V71.02H467.822V71.96C468.002 71.6333 468.222 71.3833 468.482 71.21C468.749 71.0367 469.102 70.9433 469.542 70.93V71.71C468.969 71.7367 468.539 71.87 468.252 72.11C467.966 72.35 467.822 72.7733 467.822 73.38V76.25H466.992ZM472.013 76.34C471.5 76.34 471.08 76.2133 470.753 75.96C470.433 75.7 470.273 75.3133 470.273 74.8C470.273 74.24 470.52 73.83 471.013 73.57C471.513 73.31 472.14 73.18 472.893 73.18H473.643V72.8C473.643 72.38 473.557 72.08 473.383 71.9C473.21 71.7133 472.923 71.62 472.523 71.62C471.803 71.62 471.403 71.9333 471.323 72.56H470.493C470.547 72 470.767 71.59 471.153 71.33C471.54 71.0633 472.01 70.93 472.563 70.93C473.837 70.93 474.473 71.5533 474.473 72.8V76.25H473.643V75.59C473.243 76.09 472.7 76.34 472.013 76.34ZM472.093 75.68C472.547 75.68 472.917 75.57 473.203 75.35C473.497 75.1233 473.643 74.8133 473.643 74.42V73.77H472.923C471.71 73.77 471.103 74.1133 471.103 74.8C471.103 75.3867 471.433 75.68 472.093 75.68ZM476.124 76.25V68.52H476.964V76.25H476.124Z" fill="black"/>
</svg>
