<svg width="1775" height="629" viewBox="0 0 1775 629" fill="none" xmlns="http://www.w3.org/2000/svg">
<path d="M47.0606 0.439331C46.4749 -0.146454 45.5251 -0.146454 44.9393 0.439331L35.3934 9.98529C34.8076 10.5711 34.8076 11.5208 35.3934 12.1066C35.9792 12.6924 36.9289 12.6924 37.5147 12.1066L46 3.62131L54.4853 12.1066C55.0711 12.6924 56.0208 12.6924 56.6066 12.1066C57.1924 11.5208 57.1924 10.5711 56.6066 9.98529L47.0606 0.439331ZM47.5 374.5L47.5 1.5L44.5 1.5L44.5 374.5L47.5 374.5Z" fill="black"/>
<path d="M698.061 375.561C698.646 374.975 698.646 374.025 698.061 373.439L688.515 363.893C687.929 363.308 686.979 363.308 686.393 363.893C685.808 364.479 685.808 365.429 686.393 366.015L694.879 374.5L686.393 382.985C685.808 383.571 685.808 384.521 686.393 385.107C686.979 385.692 687.929 385.692 688.515 385.107L698.061 375.561ZM46 376L697 376V373L46 373V376Z" fill="black"/>
<path d="M1056.72 87.5V68.672H1058.63V87.5H1056.72ZM1058.6 64.244C1058.36 64.508 1058.04 64.64 1057.66 64.64C1057.28 64.64 1056.95 64.508 1056.69 64.244C1056.42 63.98 1056.29 63.656 1056.29 63.272C1056.29 62.912 1056.42 62.6 1056.69 62.336C1056.95 62.072 1057.28 61.94 1057.66 61.94C1058.04 61.94 1058.36 62.072 1058.6 62.336C1058.86 62.6 1058.99 62.912 1058.99 63.272C1058.99 63.656 1058.86 63.98 1058.6 64.244ZM1065.42 87.5V70.292H1062.58V68.672H1065.42V65.288C1065.42 63.392 1065.9 61.964 1066.86 61.004C1067.82 60.044 1069.12 59.564 1070.75 59.564C1071.45 59.564 1072.14 59.672 1072.84 59.888V61.508C1072.19 61.292 1071.52 61.184 1070.82 61.184C1069.74 61.184 1068.89 61.508 1068.27 62.156C1067.64 62.804 1067.33 63.788 1067.33 65.108V68.672H1072.59V70.292H1067.33V87.5H1065.42ZM1085.84 87.5V61.76H1093.15C1095.55 61.76 1097.44 62.288 1098.84 63.344C1100.25 64.4 1100.96 66.044 1100.96 68.276V68.42C1100.96 71.324 1099.5 73.184 1096.57 74C1100.34 74.696 1102.22 76.784 1102.22 80.264V80.408C1102.22 82.712 1101.51 84.476 1100.1 85.7C1098.68 86.9 1096.72 87.5 1094.23 87.5H1085.84ZM1087.82 85.88H1094.19C1098.25 85.88 1100.28 84.056 1100.28 80.408V80.264C1100.28 76.712 1098.02 74.936 1093.51 74.936H1087.82V85.88ZM1087.82 73.352H1093.18C1097.05 73.352 1098.98 71.696 1098.98 68.384V68.24C1098.98 65 1097.02 63.38 1093.11 63.38H1087.82V73.352ZM1107.57 87.5V61.76H1114.37C1117.03 61.76 1119.16 62.348 1120.74 63.524C1122.35 64.7 1123.15 66.524 1123.15 68.996V69.14C1123.15 71.66 1122.36 73.52 1120.78 74.72C1119.19 75.896 1117.07 76.484 1114.41 76.484H1109.58V87.5H1107.57ZM1109.58 74.864H1114.55C1118.94 74.864 1121.14 72.956 1121.14 69.14V68.996C1121.14 67.004 1120.56 65.576 1119.41 64.712C1118.26 63.848 1116.61 63.416 1114.48 63.416H1109.58V74.864ZM1128.03 87.5V61.76H1130.91L1139.98 83.864L1149.09 61.76H1151.89V87.5H1149.91V64.28L1140.23 87.5H1139.58L1129.9 64.28V87.5H1128.03ZM1166.43 83.756V81.884L1177.44 75.908L1166.43 69.932V68.06L1180.25 75.656V76.16L1166.43 83.756ZM1197.86 87.5V63.848L1191.96 67.952V66.08L1198.15 61.76H1199.84V87.5H1197.86ZM1216.19 86.096C1218.73 86.096 1220.65 85.208 1221.95 83.432C1223.25 81.656 1223.89 79.052 1223.89 75.62V73.46C1223.89 70.292 1223.2 67.784 1221.81 65.936C1220.44 64.064 1218.53 63.128 1216.08 63.128C1213.63 63.128 1211.73 64.04 1210.36 65.864C1209.01 67.664 1208.34 70.22 1208.34 73.532V75.728C1208.34 79.112 1209.03 81.692 1210.39 83.468C1211.79 85.22 1213.72 86.096 1216.19 86.096ZM1216.19 87.788C1213.12 87.788 1210.69 86.72 1208.92 84.584C1207.17 82.424 1206.29 79.472 1206.29 75.728V73.568C1206.29 69.8 1207.15 66.848 1208.88 64.712C1210.63 62.552 1213.03 61.472 1216.08 61.472C1219.13 61.472 1221.53 62.552 1223.28 64.712C1225.06 66.872 1225.95 69.788 1225.95 73.46V75.656C1225.95 79.424 1225.09 82.388 1223.39 84.548C1221.69 86.708 1219.29 87.788 1216.19 87.788ZM1239.92 86.096C1242.46 86.096 1244.38 85.208 1245.68 83.432C1246.98 81.656 1247.62 79.052 1247.62 75.62V73.46C1247.62 70.292 1246.93 67.784 1245.54 65.936C1244.17 64.064 1242.26 63.128 1239.81 63.128C1237.36 63.128 1235.46 64.04 1234.09 65.864C1232.74 67.664 1232.07 70.22 1232.07 73.532V75.728C1232.07 79.112 1232.76 81.692 1234.12 83.468C1235.52 85.22 1237.45 86.096 1239.92 86.096ZM1239.92 87.788C1236.85 87.788 1234.42 86.72 1232.65 84.584C1230.9 82.424 1230.02 79.472 1230.02 75.728V73.568C1230.02 69.8 1230.88 66.848 1232.61 64.712C1234.36 62.552 1236.76 61.472 1239.81 61.472C1242.86 61.472 1245.26 62.552 1247.01 64.712C1248.79 66.872 1249.68 69.788 1249.68 73.46V75.656C1249.68 79.424 1248.82 82.388 1247.12 84.548C1245.42 86.708 1243.02 87.788 1239.92 87.788ZM1262.9 87.5V68.672H1268.12V71.552C1268.62 70.592 1269.38 69.8 1270.39 69.176C1271.39 68.552 1272.56 68.24 1273.88 68.24C1276.49 68.24 1278.25 69.332 1279.13 71.516C1280.6 69.332 1282.71 68.24 1285.47 68.24C1287.32 68.24 1288.81 68.84 1289.93 70.04C1291.09 71.24 1291.66 73.04 1291.66 75.44V87.5H1286.48V76.016C1286.48 73.688 1285.49 72.524 1283.53 72.524C1282.47 72.524 1281.59 72.86 1280.9 73.532C1280.23 74.204 1279.89 75.152 1279.89 76.376V87.5H1274.71V76.016C1274.71 73.688 1273.72 72.524 1271.75 72.524C1270.7 72.524 1269.82 72.86 1269.13 73.532C1268.45 74.204 1268.12 75.152 1268.12 76.376V87.5H1262.9ZM1301.48 82.424C1302.3 83.432 1303.44 83.936 1304.9 83.936C1306.37 83.936 1307.5 83.432 1308.29 82.424C1309.1 81.416 1309.51 80.012 1309.51 78.212V77.96C1309.51 76.16 1309.1 74.756 1308.29 73.748C1307.5 72.716 1306.37 72.2 1304.9 72.2C1303.46 72.2 1302.34 72.704 1301.52 73.712C1300.7 74.696 1300.3 76.088 1300.3 77.888V78.176C1300.3 79.976 1300.69 81.392 1301.48 82.424ZM1304.87 87.896C1302.01 87.896 1299.65 87.02 1297.78 85.268C1295.9 83.492 1294.97 81.164 1294.97 78.284V77.996C1294.97 75.092 1295.9 72.74 1297.78 70.94C1299.65 69.14 1302.02 68.24 1304.9 68.24C1307.78 68.24 1310.15 69.128 1312 70.904C1313.87 72.656 1314.8 74.984 1314.8 77.888V78.176C1314.8 81.104 1313.87 83.456 1312 85.232C1310.12 87.008 1307.75 87.896 1304.87 87.896ZM1323.67 82.424C1324.48 83.432 1325.62 83.936 1327.09 83.936C1328.55 83.936 1329.68 83.432 1330.47 82.424C1331.29 81.416 1331.7 80.012 1331.7 78.212V77.96C1331.7 76.16 1331.29 74.756 1330.47 73.748C1329.68 72.716 1328.55 72.2 1327.09 72.2C1325.65 72.2 1324.52 72.704 1323.7 73.712C1322.89 74.696 1322.48 76.088 1322.48 77.888V78.176C1322.48 79.976 1322.88 81.392 1323.67 82.424ZM1327.05 87.896C1324.2 87.896 1321.83 87.02 1319.96 85.268C1318.09 83.492 1317.15 81.164 1317.15 78.284V77.996C1317.15 75.092 1318.09 72.74 1319.96 70.94C1321.83 69.14 1324.21 68.24 1327.09 68.24C1329.97 68.24 1332.33 69.128 1334.18 70.904C1336.05 72.656 1336.99 74.984 1336.99 77.888V78.176C1336.99 81.104 1336.05 83.456 1334.18 85.232C1332.31 87.008 1329.93 87.896 1327.05 87.896ZM1347.54 87.896C1345.17 87.896 1343.21 87.068 1341.68 85.412C1340.14 83.732 1339.37 81.38 1339.37 78.356V78.068C1339.37 75.044 1340.14 72.656 1341.68 70.904C1343.24 69.128 1345.23 68.24 1347.65 68.24C1350.44 68.24 1352.42 69.32 1353.59 71.48V60.14H1358.78V87.5H1353.59V84.368C1353.09 85.376 1352.28 86.216 1351.18 86.888C1350.08 87.56 1348.86 87.896 1347.54 87.896ZM1349.09 83.828C1350.51 83.828 1351.64 83.348 1352.48 82.388C1353.32 81.428 1353.74 80.024 1353.74 78.176V77.888C1353.74 76.04 1353.34 74.636 1352.55 73.676C1351.78 72.716 1350.68 72.236 1349.24 72.236C1347.77 72.236 1346.64 72.728 1345.85 73.712C1345.08 74.672 1344.7 76.088 1344.7 77.96V78.248C1344.7 80.072 1345.1 81.464 1345.89 82.424C1346.68 83.36 1347.75 83.828 1349.09 83.828ZM1370.49 81.092V77.384H1386.76V81.092H1370.49ZM1370.49 74.252V70.508H1386.76V74.252H1370.49ZM1403.54 87.896C1401.69 87.896 1400.18 87.428 1399 86.492C1397.82 85.556 1397.24 84.152 1397.24 82.28C1397.24 78.248 1400.5 76.232 1407.03 76.232H1409.15V75.476C1409.15 74.3 1408.92 73.436 1408.47 72.884C1408.01 72.308 1407.22 72.02 1406.09 72.02C1404.2 72.02 1403.13 72.908 1402.89 74.684H1397.96C1398.1 72.548 1398.94 70.94 1400.48 69.86C1402.01 68.78 1403.99 68.24 1406.42 68.24C1411.67 68.24 1414.3 70.568 1414.3 75.224V87.5H1409.22V85.232C1407.95 87.008 1406.06 87.896 1403.54 87.896ZM1405.08 84.26C1406.26 84.26 1407.23 83.96 1408 83.36C1408.77 82.76 1409.15 81.944 1409.15 80.912V79.328H1407.14C1405.55 79.328 1404.35 79.532 1403.54 79.94C1402.74 80.348 1402.35 81.032 1402.35 81.992C1402.35 83.504 1403.26 84.26 1405.08 84.26ZM1418.78 87.5V68.672H1424V71.66C1424.5 70.652 1425.27 69.836 1426.3 69.212C1427.36 68.564 1428.63 68.24 1430.12 68.24C1432.06 68.24 1433.6 68.852 1434.73 70.076C1435.88 71.276 1436.46 73.088 1436.46 75.512V87.5H1431.24V76.268C1431.24 74.972 1430.97 74.024 1430.44 73.424C1429.92 72.8 1429.08 72.488 1427.92 72.488C1426.75 72.488 1425.8 72.848 1425.08 73.568C1424.36 74.264 1424 75.284 1424 76.628V87.5H1418.78ZM1449.28 94.448C1443.62 94.448 1440.5 92.264 1439.92 87.896H1445.11C1445.47 89.72 1446.86 90.632 1449.28 90.632C1452.45 90.632 1454.03 89.096 1454.03 86.024V83.18C1453.48 84.164 1452.67 84.992 1451.59 85.664C1450.51 86.336 1449.31 86.672 1447.99 86.672C1445.63 86.672 1443.68 85.856 1442.12 84.224C1440.56 82.592 1439.78 80.408 1439.78 77.672V77.42C1439.78 74.756 1440.57 72.56 1442.15 70.832C1443.74 69.104 1445.71 68.24 1448.06 68.24C1450.82 68.24 1452.81 69.32 1454.03 71.48V68.672H1459.22V86.024C1459.19 88.784 1458.32 90.872 1456.59 92.288C1454.86 93.728 1452.43 94.448 1449.28 94.448ZM1449.53 82.748C1450.93 82.748 1452.04 82.292 1452.88 81.38C1453.75 80.444 1454.18 79.184 1454.18 77.6V77.348C1454.18 75.74 1453.77 74.48 1452.95 73.568C1452.16 72.656 1451.06 72.2 1449.64 72.2C1448.2 72.2 1447.09 72.668 1446.29 73.604C1445.5 74.54 1445.11 75.8 1445.11 77.384V77.672C1445.11 79.208 1445.51 80.444 1446.33 81.38C1447.15 82.292 1448.21 82.748 1449.53 82.748ZM1463.82 87.5V68.672H1469.04V72.272C1470.24 69.704 1472.26 68.408 1475.12 68.384V73.244C1473.1 73.22 1471.58 73.592 1470.55 74.36C1469.54 75.104 1469.04 76.34 1469.04 78.068V87.5H1463.82ZM1481.1 93.908L1484.41 85.592L1476.92 68.672H1482.54L1487.11 79.976L1491.32 68.672H1496.33L1486.14 93.908H1481.1ZM879.149 167.5V148.672H881.057V167.5H879.149ZM881.021 144.244C880.781 144.508 880.469 144.64 880.085 144.64C879.701 144.64 879.377 144.508 879.113 144.244C878.849 143.98 878.717 143.656 878.717 143.272C878.717 142.912 878.849 142.6 879.113 142.336C879.377 142.072 879.701 141.94 880.085 141.94C880.469 141.94 880.781 142.072 881.021 142.336C881.285 142.6 881.417 142.912 881.417 143.272C881.417 143.656 881.285 143.98 881.021 144.244ZM887.85 167.5V150.292H885.006V148.672H887.85V145.288C887.85 143.392 888.33 141.964 889.29 141.004C890.25 140.044 891.546 139.564 893.178 139.564C893.874 139.564 894.57 139.672 895.266 139.888V141.508C894.618 141.292 893.946 141.184 893.25 141.184C892.17 141.184 891.318 141.508 890.694 142.156C890.07 142.804 889.758 143.788 889.758 145.108V148.672H895.014V150.292H889.758V167.5H887.85ZM908.265 167.5V141.76H915.573C917.973 141.76 919.869 142.288 921.261 143.344C922.677 144.4 923.385 146.044 923.385 148.276V148.42C923.385 151.324 921.921 153.184 918.993 154C922.761 154.696 924.645 156.784 924.645 160.264V160.408C924.645 162.712 923.937 164.476 922.521 165.7C921.105 166.9 919.149 167.5 916.653 167.5H908.265ZM910.245 165.88H916.617C920.673 165.88 922.701 164.056 922.701 160.408V160.264C922.701 156.712 920.445 154.936 915.933 154.936H910.245V165.88ZM910.245 153.352H915.609C919.473 153.352 921.405 151.696 921.405 148.384V148.24C921.405 145 919.449 143.38 915.537 143.38H910.245V153.352ZM929.992 167.5V141.76H936.796C939.46 141.76 941.584 142.348 943.168 143.524C944.776 144.7 945.58 146.524 945.58 148.996V149.14C945.58 151.66 944.788 153.52 943.204 154.72C941.62 155.896 939.496 156.484 936.832 156.484H932.008V167.5H929.992ZM932.008 154.864H936.976C941.368 154.864 943.564 152.956 943.564 149.14V148.996C943.564 147.004 942.988 145.576 941.836 144.712C940.684 143.848 939.04 143.416 936.904 143.416H932.008V154.864ZM950.453 167.5V141.76H953.333L962.405 163.864L971.513 141.76H974.321V167.5H972.341V144.28L962.657 167.5H962.009L952.325 144.28V167.5H950.453ZM988.852 163.756V161.884L999.868 155.908L988.852 149.932V148.06L1002.68 155.656V156.16L988.852 163.756ZM1018.77 167.5L1028.35 143.416H1014.42V141.76H1030.87V142.084L1020.83 167.5H1018.77ZM1042.98 166.096C1045.52 166.096 1047.44 165.208 1048.74 163.432C1050.03 161.656 1050.68 159.052 1050.68 155.62V153.46C1050.68 150.292 1049.98 147.784 1048.59 145.936C1047.22 144.064 1045.32 143.128 1042.87 143.128C1040.42 143.128 1038.51 144.04 1037.14 145.864C1035.8 147.664 1035.13 150.22 1035.13 153.532V155.728C1035.13 159.112 1035.81 161.692 1037.18 163.468C1038.57 165.22 1040.5 166.096 1042.98 166.096ZM1042.98 167.788C1039.9 167.788 1037.48 166.72 1035.7 164.584C1033.95 162.424 1033.08 159.472 1033.08 155.728V153.568C1033.08 149.8 1033.94 146.848 1035.67 144.712C1037.42 142.552 1039.82 141.472 1042.87 141.472C1045.92 141.472 1048.32 142.552 1050.07 144.712C1051.84 146.872 1052.73 149.788 1052.73 153.46V155.656C1052.73 159.424 1051.88 162.388 1050.18 164.548C1048.47 166.708 1046.07 167.788 1042.98 167.788ZM1086 154.468L1081.79 162.244L1086.29 167.5H1083.92L1080.64 163.684C1078.58 166.396 1076.06 167.752 1073.08 167.752C1070.78 167.752 1068.92 167.104 1067.5 165.808C1066.11 164.512 1065.41 162.844 1065.41 160.804C1065.41 158.956 1065.96 157.432 1067.07 156.232C1068.17 155.032 1069.7 153.952 1071.64 152.992C1069.89 150.832 1069.01 148.912 1069.01 147.232C1069.01 145.552 1069.58 144.196 1070.7 143.164C1071.83 142.132 1073.21 141.616 1074.84 141.616C1076.4 141.616 1077.68 142.12 1078.66 143.128C1079.67 144.112 1080.17 145.336 1080.17 146.8C1080.17 149.488 1078.23 151.684 1074.34 153.388L1080.71 160.876L1084.17 154.468H1086ZM1073.15 166.132C1075.65 166.132 1077.8 164.896 1079.6 162.424L1072.58 154.108C1070.97 154.9 1069.7 155.812 1068.76 156.844C1067.82 157.852 1067.36 159.112 1067.36 160.624C1067.36 162.28 1067.87 163.612 1068.9 164.62C1069.94 165.628 1071.35 166.132 1073.15 166.132ZM1070.88 147.232C1070.88 148.024 1071.09 148.804 1071.5 149.572C1071.93 150.316 1072.59 151.228 1073.48 152.308C1075.11 151.54 1076.32 150.736 1077.11 149.896C1077.93 149.056 1078.34 148.012 1078.34 146.764C1078.34 145.708 1078.01 144.844 1077.36 144.172C1076.72 143.5 1075.85 143.164 1074.77 143.164C1073.64 143.164 1072.71 143.536 1071.96 144.28C1071.24 145 1070.88 145.984 1070.88 147.232ZM1099.73 167.5V141.76H1107.03C1109.43 141.76 1111.33 142.288 1112.72 143.344C1114.14 144.4 1114.85 146.044 1114.85 148.276V148.42C1114.85 151.324 1113.38 153.184 1110.45 154C1114.22 154.696 1116.11 156.784 1116.11 160.264V160.408C1116.11 162.712 1115.4 164.476 1113.98 165.7C1112.57 166.9 1110.61 167.5 1108.11 167.5H1099.73ZM1101.71 165.88H1108.08C1112.13 165.88 1114.16 164.056 1114.16 160.408V160.264C1114.16 156.712 1111.91 154.936 1107.39 154.936H1101.71V165.88ZM1101.71 153.352H1107.07C1110.93 153.352 1112.87 151.696 1112.87 148.384V148.24C1112.87 145 1110.91 143.38 1107 143.38H1101.71V153.352ZM1121.45 167.5V141.76H1128.26C1130.92 141.76 1133.04 142.348 1134.63 143.524C1136.24 144.7 1137.04 146.524 1137.04 148.996V149.14C1137.04 151.66 1136.25 153.52 1134.66 154.72C1133.08 155.896 1130.96 156.484 1128.29 156.484H1123.47V167.5H1121.45ZM1123.47 154.864H1128.44C1132.83 154.864 1135.02 152.956 1135.02 149.14V148.996C1135.02 147.004 1134.45 145.576 1133.3 144.712C1132.14 143.848 1130.5 143.416 1128.36 143.416H1123.47V154.864ZM1141.91 167.5V141.76H1144.79L1153.87 163.864L1162.97 141.76H1165.78V167.5H1163.8V144.28L1154.12 167.5H1153.47L1143.79 144.28V167.5H1141.91ZM1193.78 163.756L1179.95 156.16V155.656L1193.78 148.06V149.932L1182.76 155.908L1193.78 161.884V163.756ZM1211.75 167.5V143.848L1205.84 147.952V146.08L1212.04 141.76H1213.73V167.5H1211.75ZM1230.08 166.096C1232.62 166.096 1234.54 165.208 1235.84 163.432C1237.13 161.656 1237.78 159.052 1237.78 155.62V153.46C1237.78 150.292 1237.09 147.784 1235.69 145.936C1234.33 144.064 1232.42 143.128 1229.97 143.128C1227.52 143.128 1225.61 144.04 1224.25 145.864C1222.9 147.664 1222.23 150.22 1222.23 153.532V155.728C1222.23 159.112 1222.91 161.692 1224.28 163.468C1225.67 165.22 1227.61 166.096 1230.08 166.096ZM1230.08 167.788C1227.01 167.788 1224.58 166.72 1222.81 164.584C1221.05 162.424 1220.18 159.472 1220.18 155.728V153.568C1220.18 149.8 1221.04 146.848 1222.77 144.712C1224.52 142.552 1226.92 141.472 1229.97 141.472C1233.02 141.472 1235.42 142.552 1237.17 144.712C1238.95 146.872 1239.83 149.788 1239.83 153.46V155.656C1239.83 159.424 1238.98 162.388 1237.28 164.548C1235.57 166.708 1233.17 167.788 1230.08 167.788ZM1253.81 166.096C1256.35 166.096 1258.27 165.208 1259.57 163.432C1260.86 161.656 1261.51 159.052 1261.51 155.62V153.46C1261.51 150.292 1260.82 147.784 1259.42 145.936C1258.06 144.064 1256.15 143.128 1253.7 143.128C1251.25 143.128 1249.34 144.04 1247.98 145.864C1246.63 147.664 1245.96 150.22 1245.96 153.532V155.728C1245.96 159.112 1246.64 161.692 1248.01 163.468C1249.4 165.22 1251.34 166.096 1253.81 166.096ZM1253.81 167.788C1250.74 167.788 1248.31 166.72 1246.54 164.584C1244.78 162.424 1243.91 159.472 1243.91 155.728V153.568C1243.91 149.8 1244.77 146.848 1246.5 144.712C1248.25 142.552 1250.65 141.472 1253.7 141.472C1256.75 141.472 1259.15 142.552 1260.9 144.712C1262.68 146.872 1263.56 149.788 1263.56 153.46V155.656C1263.56 159.424 1262.71 162.388 1261.01 164.548C1259.3 166.708 1256.9 167.788 1253.81 167.788ZM1296.84 154.468L1292.62 162.244L1297.12 167.5H1294.75L1291.47 163.684C1289.41 166.396 1286.89 167.752 1283.91 167.752C1281.61 167.752 1279.75 167.104 1278.33 165.808C1276.94 164.512 1276.24 162.844 1276.24 160.804C1276.24 158.956 1276.8 157.432 1277.9 156.232C1279 155.032 1280.53 153.952 1282.47 152.992C1280.72 150.832 1279.84 148.912 1279.84 147.232C1279.84 145.552 1280.41 144.196 1281.54 143.164C1282.66 142.132 1284.04 141.616 1285.68 141.616C1287.24 141.616 1288.51 142.12 1289.49 143.128C1290.5 144.112 1291 145.336 1291 146.8C1291 149.488 1289.06 151.684 1285.17 153.388L1291.54 160.876L1295 154.468H1296.84ZM1283.98 166.132C1286.48 166.132 1288.63 164.896 1290.43 162.424L1283.41 154.108C1281.8 154.9 1280.53 155.812 1279.59 156.844C1278.66 157.852 1278.19 159.112 1278.19 160.624C1278.19 162.28 1278.7 163.612 1279.74 164.62C1280.77 165.628 1282.18 166.132 1283.98 166.132ZM1281.72 147.232C1281.72 148.024 1281.92 148.804 1282.33 149.572C1282.76 150.316 1283.42 151.228 1284.31 152.308C1285.94 151.54 1287.15 150.736 1287.94 149.896C1288.76 149.056 1289.17 148.012 1289.17 146.764C1289.17 145.708 1288.84 144.844 1288.2 144.172C1287.55 143.5 1286.68 143.164 1285.6 143.164C1284.48 143.164 1283.54 143.536 1282.8 144.28C1282.08 145 1281.72 145.984 1281.72 147.232ZM1321.5 167.788C1317.69 167.788 1314.67 166.588 1312.47 164.188C1310.26 161.764 1309.15 158.632 1309.15 154.792V154.504C1309.15 150.736 1310.32 147.616 1312.65 145.144C1314.97 142.672 1317.9 141.436 1321.43 141.436C1324.07 141.436 1326.34 142.084 1328.23 143.38C1330.13 144.652 1331.31 146.56 1331.76 149.104H1329.75C1329.29 147.064 1328.33 145.552 1326.87 144.568C1325.43 143.56 1323.63 143.056 1321.47 143.056C1318.39 143.056 1315.91 144.124 1314.01 146.26C1312.14 148.372 1311.21 151.108 1311.21 154.468V154.756C1311.21 158.236 1312.11 161.008 1313.91 163.072C1315.71 165.112 1318.24 166.132 1321.5 166.132C1324.43 166.132 1326.66 165.304 1328.2 163.648C1329.76 161.968 1330.56 159.676 1330.61 156.772V156.628H1322.69V154.936H1332.55V156.412C1332.55 160.06 1331.56 162.868 1329.57 164.836C1327.57 166.804 1324.89 167.788 1321.5 167.788ZM1345.37 167.788C1342.37 167.788 1340.09 167.092 1338.53 165.7C1336.99 164.284 1336.08 162.424 1335.79 160.12H1337.77C1338.3 164.128 1340.83 166.132 1345.37 166.132C1347.36 166.132 1348.97 165.616 1350.19 164.584C1351.42 163.552 1352.03 162.232 1352.03 160.624C1352.03 158.848 1351.53 157.564 1350.52 156.772C1349.53 155.98 1347.73 155.38 1345.12 154.972C1342.24 154.54 1340.13 153.808 1338.78 152.776C1337.46 151.72 1336.8 150.196 1336.8 148.204C1336.8 146.212 1337.55 144.592 1339.03 143.344C1340.55 142.096 1342.5 141.472 1344.9 141.472C1347.28 141.472 1349.17 142.036 1350.59 143.164C1352.03 144.292 1352.89 145.888 1353.18 147.952H1351.35C1350.72 144.736 1348.57 143.128 1344.9 143.128C1342.93 143.128 1341.4 143.56 1340.29 144.424C1339.21 145.288 1338.67 146.5 1338.67 148.06C1338.67 149.524 1339.15 150.652 1340.11 151.444C1341.07 152.212 1342.85 152.788 1345.44 153.172C1348.47 153.628 1350.64 154.384 1351.96 155.44C1353.3 156.472 1353.97 158.152 1353.97 160.48C1353.97 162.544 1353.17 164.284 1351.56 165.7C1349.98 167.092 1347.91 167.788 1345.37 167.788ZM1359.25 167.5V141.76H1366.31C1368.97 141.76 1371.09 142.324 1372.68 143.452C1374.26 144.556 1375.05 146.296 1375.05 148.672V148.816C1375.05 152.728 1372.83 154.996 1368.39 155.62L1376.57 167.5H1374.33L1366.27 155.764H1361.27V167.5H1359.25ZM1361.27 154.144H1366.41C1370.83 154.144 1373.04 152.368 1373.04 148.816V148.672C1373.04 146.776 1372.46 145.432 1371.31 144.64C1370.18 143.824 1368.55 143.416 1366.41 143.416H1361.27V154.144ZM1389.98 167.5V141.76H1391.99V165.844H1404.48V167.5H1389.98ZM1415.88 166.168C1417.95 166.168 1419.64 165.448 1420.96 164.008C1422.3 162.568 1422.97 160.648 1422.97 158.248V157.96C1422.97 155.536 1422.3 153.604 1420.96 152.164C1419.61 150.724 1417.92 150.004 1415.88 150.004C1413.82 150.004 1412.11 150.736 1410.77 152.2C1409.43 153.64 1408.75 155.56 1408.75 157.96V158.248C1408.75 160.624 1409.41 162.544 1410.73 164.008C1412.08 165.448 1413.79 166.168 1415.88 166.168ZM1422.33 165.124C1420.57 166.9 1418.41 167.788 1415.85 167.788C1413.28 167.788 1411.12 166.888 1409.37 165.088C1407.64 163.288 1406.77 161.008 1406.77 158.248V157.96C1406.77 155.176 1407.65 152.884 1409.4 151.084C1411.15 149.284 1413.31 148.384 1415.88 148.384C1418.47 148.384 1420.63 149.272 1422.36 151.048C1424.09 152.824 1424.95 155.116 1424.95 157.924V158.212C1424.95 161.02 1424.08 163.324 1422.33 165.124ZM1433.06 167.5L1427.19 148.672H1429.24L1434.28 165.16L1439.43 148.672H1441.05L1446.02 165.16L1451.09 148.672H1453.04L1447.1 167.5H1444.9L1440.22 151.732L1435.22 167.5H1433.06ZM1458.59 152.272L1457.26 151.3L1460.5 147.088L1455.75 145.648L1456.29 144.064L1460.9 145.9L1460.75 140.752H1462.48L1462.34 145.9L1466.95 144.064L1467.45 145.648L1462.7 147.088L1465.94 151.3L1464.61 152.272L1461.58 147.88L1458.59 152.272ZM1480.3 167.5V148.672H1485.52V151.552C1486.03 150.592 1486.78 149.8 1487.79 149.176C1488.8 148.552 1489.96 148.24 1491.28 148.24C1493.9 148.24 1495.65 149.332 1496.54 151.516C1498 149.332 1500.12 148.24 1502.88 148.24C1504.72 148.24 1506.21 148.84 1507.34 150.04C1508.49 151.24 1509.07 153.04 1509.07 155.44V167.5H1503.88V156.016C1503.88 153.688 1502.9 152.524 1500.93 152.524C1499.88 152.524 1499 152.86 1498.3 153.532C1497.63 154.204 1497.3 155.152 1497.3 156.376V167.5H1492.11V156.016C1492.11 153.688 1491.13 152.524 1489.16 152.524C1488.1 152.524 1487.23 152.86 1486.53 153.532C1485.86 154.204 1485.52 155.152 1485.52 156.376V167.5H1480.3ZM1518.89 162.424C1519.71 163.432 1520.85 163.936 1522.31 163.936C1523.77 163.936 1524.9 163.432 1525.69 162.424C1526.51 161.416 1526.92 160.012 1526.92 158.212V157.96C1526.92 156.16 1526.51 154.756 1525.69 153.748C1524.9 152.716 1523.77 152.2 1522.31 152.2C1520.87 152.2 1519.74 152.704 1518.93 153.712C1518.11 154.696 1517.7 156.088 1517.7 157.888V158.176C1517.7 159.976 1518.1 161.392 1518.89 162.424ZM1522.27 167.896C1519.42 167.896 1517.05 167.02 1515.18 165.268C1513.31 163.492 1512.37 161.164 1512.37 158.284V157.996C1512.37 155.092 1513.31 152.74 1515.18 150.94C1517.05 149.14 1519.43 148.24 1522.31 148.24C1525.19 148.24 1527.55 149.128 1529.4 150.904C1531.27 152.656 1532.21 154.984 1532.21 157.888V158.176C1532.21 161.104 1531.27 163.456 1529.4 165.232C1527.53 167.008 1525.15 167.896 1522.27 167.896ZM1541.07 162.424C1541.89 163.432 1543.03 163.936 1544.49 163.936C1545.96 163.936 1547.09 163.432 1547.88 162.424C1548.69 161.416 1549.1 160.012 1549.1 158.212V157.96C1549.1 156.16 1548.69 154.756 1547.88 153.748C1547.09 152.716 1545.96 152.2 1544.49 152.2C1543.05 152.2 1541.93 152.704 1541.11 153.712C1540.29 154.696 1539.89 156.088 1539.89 157.888V158.176C1539.89 159.976 1540.28 161.392 1541.07 162.424ZM1544.46 167.896C1541.6 167.896 1539.24 167.02 1537.37 165.268C1535.49 163.492 1534.56 161.164 1534.56 158.284V157.996C1534.56 155.092 1535.49 152.74 1537.37 150.94C1539.24 149.14 1541.61 148.24 1544.49 148.24C1547.37 148.24 1549.74 149.128 1551.59 150.904C1553.46 152.656 1554.39 154.984 1554.39 157.888V158.176C1554.39 161.104 1553.46 163.456 1551.59 165.232C1549.71 167.008 1547.34 167.896 1544.46 167.896ZM1564.95 167.896C1562.57 167.896 1560.62 167.068 1559.08 165.412C1557.55 163.732 1556.78 161.38 1556.78 158.356V158.068C1556.78 155.044 1557.55 152.656 1559.08 150.904C1560.64 149.128 1562.63 148.24 1565.06 148.24C1567.84 148.24 1569.82 149.32 1571 151.48V140.14H1576.18V167.5H1571V164.368C1570.49 165.376 1569.69 166.216 1568.59 166.888C1567.48 167.56 1566.27 167.896 1564.95 167.896ZM1566.5 163.828C1567.91 163.828 1569.04 163.348 1569.88 162.388C1570.72 161.428 1571.14 160.024 1571.14 158.176V157.888C1571.14 156.04 1570.75 154.636 1569.95 153.676C1569.19 152.716 1568.08 152.236 1566.64 152.236C1565.18 152.236 1564.05 152.728 1563.26 153.712C1562.49 154.672 1562.11 156.088 1562.11 157.96V158.248C1562.11 160.072 1562.5 161.464 1563.29 162.424C1564.09 163.36 1565.15 163.828 1566.5 163.828ZM1587.9 161.092V157.384H1604.17V161.092H1587.9ZM1587.9 154.252V150.508H1604.17V154.252H1587.9ZM1622.71 167.896C1620.16 167.896 1618.18 167.356 1616.77 166.276C1615.35 165.196 1614.59 163.636 1614.5 161.596H1619.36C1619.48 162.484 1619.79 163.156 1620.29 163.612C1620.8 164.044 1621.59 164.26 1622.67 164.26C1624.64 164.26 1625.62 163.576 1625.62 162.208C1625.62 161.584 1625.33 161.104 1624.76 160.768C1624.18 160.432 1623.2 160.168 1621.81 159.976C1619.26 159.592 1617.46 158.968 1616.41 158.104C1615.37 157.24 1614.86 155.908 1614.86 154.108C1614.86 152.236 1615.58 150.796 1617.02 149.788C1618.48 148.756 1620.25 148.24 1622.31 148.24C1627.06 148.24 1629.65 150.184 1630.09 154.072H1625.3C1625.01 152.56 1624.03 151.804 1622.35 151.804C1621.51 151.804 1620.85 151.984 1620.37 152.344C1619.91 152.704 1619.68 153.172 1619.68 153.748C1619.68 154.348 1619.93 154.792 1620.44 155.08C1620.97 155.368 1621.93 155.608 1623.32 155.8C1625.86 156.16 1627.71 156.76 1628.86 157.6C1630.04 158.44 1630.63 159.808 1630.63 161.704C1630.63 163.72 1629.93 165.256 1628.54 166.312C1627.17 167.368 1625.23 167.896 1622.71 167.896ZM1639.01 167.896C1637.16 167.896 1635.65 167.428 1634.48 166.492C1633.3 165.556 1632.71 164.152 1632.71 162.28C1632.71 158.248 1635.98 156.232 1642.5 156.232H1644.63V155.476C1644.63 154.3 1644.4 153.436 1643.94 152.884C1643.49 152.308 1642.7 152.02 1641.57 152.02C1639.67 152.02 1638.6 152.908 1638.36 154.684H1633.43C1633.58 152.548 1634.42 150.94 1635.95 149.86C1637.49 148.78 1639.47 148.24 1641.89 148.24C1647.15 148.24 1649.78 150.568 1649.78 155.224V167.5H1644.7V165.232C1643.43 167.008 1641.53 167.896 1639.01 167.896ZM1640.56 164.26C1641.74 164.26 1642.71 163.96 1643.48 163.36C1644.24 162.76 1644.63 161.944 1644.63 160.912V159.328H1642.61C1641.03 159.328 1639.83 159.532 1639.01 159.94C1638.22 160.348 1637.82 161.032 1637.82 161.992C1637.82 163.504 1638.74 164.26 1640.56 164.26ZM1661.31 167.896C1658.94 167.896 1656.98 167.068 1655.45 165.412C1653.91 163.732 1653.14 161.38 1653.14 158.356V158.068C1653.14 155.044 1653.91 152.656 1655.45 150.904C1657.01 149.128 1659 148.24 1661.42 148.24C1664.21 148.24 1666.19 149.32 1667.36 151.48V140.14H1672.55V167.5H1667.36V164.368C1666.86 165.376 1666.05 166.216 1664.95 166.888C1663.85 167.56 1662.63 167.896 1661.31 167.896ZM1662.86 163.828C1664.28 163.828 1665.41 163.348 1666.25 162.388C1667.09 161.428 1667.51 160.024 1667.51 158.176V157.888C1667.51 156.04 1667.11 154.636 1666.32 153.676C1665.55 152.716 1664.45 152.236 1663.01 152.236C1661.54 152.236 1660.41 152.728 1659.62 153.712C1658.85 154.672 1658.47 156.088 1658.47 157.96V158.248C1658.47 160.072 1658.87 161.464 1659.66 162.424C1660.45 163.36 1661.52 163.828 1662.86 163.828ZM847.544 247.5V228.672H849.452V247.5H847.544ZM849.416 224.244C849.176 224.508 848.864 224.64 848.48 224.64C848.096 224.64 847.772 224.508 847.508 224.244C847.244 223.98 847.112 223.656 847.112 223.272C847.112 222.912 847.244 222.6 847.508 222.336C847.772 222.072 848.096 221.94 848.48 221.94C848.864 221.94 849.176 222.072 849.416 222.336C849.68 222.6 849.812 222.912 849.812 223.272C849.812 223.656 849.68 223.98 849.416 224.244ZM856.245 247.5V230.292H853.401V228.672H856.245V225.288C856.245 223.392 856.725 221.964 857.685 221.004C858.645 220.044 859.941 219.564 861.573 219.564C862.269 219.564 862.965 219.672 863.661 219.888V221.508C863.013 221.292 862.341 221.184 861.645 221.184C860.565 221.184 859.713 221.508 859.089 222.156C858.465 222.804 858.153 223.788 858.153 225.108V228.672H863.409V230.292H858.153V247.5H856.245ZM876.66 247.5V221.76H883.968C886.368 221.76 888.264 222.288 889.656 223.344C891.072 224.4 891.78 226.044 891.78 228.276V228.42C891.78 231.324 890.316 233.184 887.388 234C891.156 234.696 893.04 236.784 893.04 240.264V240.408C893.04 242.712 892.332 244.476 890.916 245.7C889.5 246.9 887.544 247.5 885.048 247.5H876.66ZM878.64 245.88H885.012C889.068 245.88 891.096 244.056 891.096 240.408V240.264C891.096 236.712 888.84 234.936 884.328 234.936H878.64V245.88ZM878.64 233.352H884.004C887.868 233.352 889.8 231.696 889.8 228.384V228.24C889.8 225 887.844 223.38 883.932 223.38H878.64V233.352ZM898.386 247.5V221.76H905.19C907.854 221.76 909.978 222.348 911.562 223.524C913.17 224.7 913.974 226.524 913.974 228.996V229.14C913.974 231.66 913.182 233.52 911.598 234.72C910.014 235.896 907.89 236.484 905.226 236.484H900.402V247.5H898.386ZM900.402 234.864H905.37C909.762 234.864 911.958 232.956 911.958 229.14V228.996C911.958 227.004 911.382 225.576 910.23 224.712C909.078 223.848 907.434 223.416 905.298 223.416H900.402V234.864ZM918.847 247.5V221.76H921.727L930.799 243.864L939.907 221.76H942.715V247.5H940.735V224.28L931.051 247.5H930.403L920.719 224.28V247.5H918.847ZM957.247 243.756V241.884L968.263 235.908L957.247 229.932V228.06L971.071 235.656V236.16L957.247 243.756ZM987.169 247.5L996.745 223.416H982.813V221.76H999.265V222.084L989.221 247.5H987.169ZM1011.37 246.096C1013.91 246.096 1015.83 245.208 1017.13 243.432C1018.43 241.656 1019.07 239.052 1019.07 235.62V233.46C1019.07 230.292 1018.38 227.784 1016.99 225.936C1015.62 224.064 1013.71 223.128 1011.26 223.128C1008.81 223.128 1006.91 224.04 1005.54 225.864C1004.19 227.664 1003.52 230.22 1003.52 233.532V235.728C1003.52 239.112 1004.21 241.692 1005.57 243.468C1006.97 245.22 1008.9 246.096 1011.37 246.096ZM1011.37 247.788C1008.3 247.788 1005.87 246.72 1004.1 244.584C1002.35 242.424 1001.47 239.472 1001.47 235.728V233.568C1001.47 229.8 1002.33 226.848 1004.06 224.712C1005.81 222.552 1008.21 221.472 1011.26 221.472C1014.31 221.472 1016.71 222.552 1018.46 224.712C1020.24 226.872 1021.13 229.788 1021.13 233.46V235.656C1021.13 239.424 1020.27 242.388 1018.57 244.548C1016.87 246.708 1014.47 247.788 1011.37 247.788ZM1035.35 247.5V221.76H1042.66C1045.06 221.76 1046.96 222.288 1048.35 223.344C1049.77 224.4 1050.47 226.044 1050.47 228.276V228.42C1050.47 231.324 1049.01 233.184 1046.08 234C1049.85 234.696 1051.73 236.784 1051.73 240.264V240.408C1051.73 242.712 1051.03 244.476 1049.61 245.7C1048.19 246.9 1046.24 247.5 1043.74 247.5H1035.35ZM1037.33 245.88H1043.71C1047.76 245.88 1049.79 244.056 1049.79 240.408V240.264C1049.79 236.712 1047.53 234.936 1043.02 234.936H1037.33V245.88ZM1037.33 233.352H1042.7C1046.56 233.352 1048.49 231.696 1048.49 228.384V228.24C1048.49 225 1046.54 223.38 1042.63 223.38H1037.33V233.352ZM1057.08 247.5V221.76H1063.89C1066.55 221.76 1068.67 222.348 1070.26 223.524C1071.87 224.7 1072.67 226.524 1072.67 228.996V229.14C1072.67 231.66 1071.88 233.52 1070.29 234.72C1068.71 235.896 1066.59 236.484 1063.92 236.484H1059.1V247.5H1057.08ZM1059.1 234.864H1064.07C1068.46 234.864 1070.65 232.956 1070.65 229.14V228.996C1070.65 227.004 1070.08 225.576 1068.93 224.712C1067.77 223.848 1066.13 223.416 1063.99 223.416H1059.1V234.864ZM1077.54 247.5V221.76H1080.42L1089.49 243.864L1098.6 221.76H1101.41V247.5H1099.43V224.28L1089.75 247.5H1089.1L1079.41 224.28V247.5H1077.54ZM1129.41 243.756L1115.58 236.16V235.656L1129.41 228.06V229.932L1118.39 235.908L1129.41 241.884V243.756ZM1147.38 247.5V223.848L1141.47 227.952V226.08L1147.66 221.76H1149.36V247.5H1147.38ZM1165.71 246.096C1168.25 246.096 1170.17 245.208 1171.47 243.432C1172.76 241.656 1173.41 239.052 1173.41 235.62V233.46C1173.41 230.292 1172.71 227.784 1171.32 225.936C1169.95 224.064 1168.05 223.128 1165.6 223.128C1163.15 223.128 1161.24 224.04 1159.87 225.864C1158.53 227.664 1157.86 230.22 1157.86 233.532V235.728C1157.86 239.112 1158.54 241.692 1159.91 243.468C1161.3 245.22 1163.23 246.096 1165.71 246.096ZM1165.71 247.788C1162.63 247.788 1160.21 246.72 1158.43 244.584C1156.68 242.424 1155.81 239.472 1155.81 235.728V233.568C1155.81 229.8 1156.67 226.848 1158.4 224.712C1160.15 222.552 1162.55 221.472 1165.6 221.472C1168.65 221.472 1171.05 222.552 1172.8 224.712C1174.57 226.872 1175.46 229.788 1175.46 233.46V235.656C1175.46 239.424 1174.61 242.388 1172.91 244.548C1171.2 246.708 1168.8 247.788 1165.71 247.788ZM1189.44 246.096C1191.98 246.096 1193.9 245.208 1195.2 243.432C1196.49 241.656 1197.14 239.052 1197.14 235.62V233.46C1197.14 230.292 1196.44 227.784 1195.05 225.936C1193.68 224.064 1191.78 223.128 1189.33 223.128C1186.88 223.128 1184.97 224.04 1183.6 225.864C1182.26 227.664 1181.59 230.22 1181.59 233.532V235.728C1181.59 239.112 1182.27 241.692 1183.64 243.468C1185.03 245.22 1186.96 246.096 1189.44 246.096ZM1189.44 247.788C1186.36 247.788 1183.94 246.72 1182.16 244.584C1180.41 242.424 1179.54 239.472 1179.54 235.728V233.568C1179.54 229.8 1180.4 226.848 1182.13 224.712C1183.88 222.552 1186.28 221.472 1189.33 221.472C1192.38 221.472 1194.78 222.552 1196.53 224.712C1198.3 226.872 1199.19 229.788 1199.19 233.46V235.656C1199.19 239.424 1198.34 242.388 1196.64 244.548C1194.93 246.708 1192.53 247.788 1189.44 247.788ZM1232.47 234.468L1228.25 242.244L1232.75 247.5H1230.38L1227.1 243.684C1225.04 246.396 1222.52 247.752 1219.54 247.752C1217.24 247.752 1215.38 247.104 1213.96 245.808C1212.57 244.512 1211.87 242.844 1211.87 240.804C1211.87 238.956 1212.43 237.432 1213.53 236.232C1214.63 235.032 1216.16 233.952 1218.1 232.992C1216.35 230.832 1215.47 228.912 1215.47 227.232C1215.47 225.552 1216.04 224.196 1217.17 223.164C1218.29 222.132 1219.67 221.616 1221.31 221.616C1222.87 221.616 1224.14 222.12 1225.12 223.128C1226.13 224.112 1226.63 225.336 1226.63 226.8C1226.63 229.488 1224.69 231.684 1220.8 233.388L1227.17 240.876L1230.63 234.468H1232.47ZM1219.61 246.132C1222.11 246.132 1224.26 244.896 1226.06 242.424L1219.04 234.108C1217.43 234.9 1216.16 235.812 1215.22 236.844C1214.29 237.852 1213.82 239.112 1213.82 240.624C1213.82 242.28 1214.33 243.612 1215.37 244.62C1216.4 245.628 1217.81 246.132 1219.61 246.132ZM1217.35 227.232C1217.35 228.024 1217.55 228.804 1217.96 229.572C1218.39 230.316 1219.05 231.228 1219.94 232.308C1221.57 231.54 1222.78 230.736 1223.57 229.896C1224.39 229.056 1224.8 228.012 1224.8 226.764C1224.8 225.708 1224.47 224.844 1223.83 224.172C1223.18 223.5 1222.31 223.164 1221.23 223.164C1220.11 223.164 1219.17 223.536 1218.43 224.28C1217.71 225 1217.35 225.984 1217.35 227.232ZM1257.13 247.788C1253.32 247.788 1250.3 246.588 1248.1 244.188C1245.89 241.764 1244.78 238.632 1244.78 234.792V234.504C1244.78 230.736 1245.95 227.616 1248.28 225.144C1250.6 222.672 1253.53 221.436 1257.06 221.436C1259.7 221.436 1261.97 222.084 1263.86 223.38C1265.76 224.652 1266.94 226.56 1267.39 229.104H1265.38C1264.92 227.064 1263.96 225.552 1262.5 224.568C1261.06 223.56 1259.26 223.056 1257.1 223.056C1254.02 223.056 1251.54 224.124 1249.64 226.26C1247.77 228.372 1246.84 231.108 1246.84 234.468V234.756C1246.84 238.236 1247.74 241.008 1249.54 243.072C1251.34 245.112 1253.87 246.132 1257.13 246.132C1260.06 246.132 1262.29 245.304 1263.83 243.648C1265.39 241.968 1266.19 239.676 1266.24 236.772V236.628H1258.32V234.936H1268.18V236.412C1268.18 240.06 1267.19 242.868 1265.2 244.836C1263.2 246.804 1260.52 247.788 1257.13 247.788ZM1281 247.788C1278 247.788 1275.72 247.092 1274.16 245.7C1272.62 244.284 1271.71 242.424 1271.42 240.12H1273.4C1273.93 244.128 1276.46 246.132 1281 246.132C1282.99 246.132 1284.6 245.616 1285.82 244.584C1287.05 243.552 1287.66 242.232 1287.66 240.624C1287.66 238.848 1287.15 237.564 1286.15 236.772C1285.16 235.98 1283.36 235.38 1280.75 234.972C1277.87 234.54 1275.75 233.808 1274.41 232.776C1273.09 231.72 1272.43 230.196 1272.43 228.204C1272.43 226.212 1273.17 224.592 1274.66 223.344C1276.17 222.096 1278.13 221.472 1280.53 221.472C1282.91 221.472 1284.8 222.036 1286.22 223.164C1287.66 224.292 1288.52 225.888 1288.81 227.952H1286.97C1286.35 224.736 1284.2 223.128 1280.53 223.128C1278.56 223.128 1277.03 223.56 1275.92 224.424C1274.84 225.288 1274.3 226.5 1274.3 228.06C1274.3 229.524 1274.78 230.652 1275.74 231.444C1276.7 232.212 1278.48 232.788 1281.07 233.172C1284.09 233.628 1286.27 234.384 1287.59 235.44C1288.93 236.472 1289.6 238.152 1289.6 240.48C1289.6 242.544 1288.8 244.284 1287.19 245.7C1285.61 247.092 1283.54 247.788 1281 247.788ZM1294.88 247.5V221.76H1301.93C1304.6 221.76 1306.72 222.324 1308.31 223.452C1309.89 224.556 1310.68 226.296 1310.68 228.672V228.816C1310.68 232.728 1308.46 234.996 1304.02 235.62L1312.19 247.5H1309.96L1301.9 235.764H1296.89V247.5H1294.88ZM1296.89 234.144H1302.04C1306.46 234.144 1308.67 232.368 1308.67 228.816V228.672C1308.67 226.776 1308.09 225.432 1306.94 224.64C1305.81 223.824 1304.18 223.416 1302.04 223.416H1296.89V234.144ZM1325.6 247.5V221.76H1327.62V233.748H1342.78V221.76H1344.79V247.5H1342.78V235.44H1327.62V247.5H1325.6ZM1351.12 247.5V228.672H1353.03V247.5H1351.12ZM1352.99 224.244C1352.75 224.508 1352.44 224.64 1352.06 224.64C1351.67 224.64 1351.35 224.508 1351.09 224.244C1350.82 223.98 1350.69 223.656 1350.69 223.272C1350.69 222.912 1350.82 222.6 1351.09 222.336C1351.35 222.072 1351.67 221.94 1352.06 221.94C1352.44 221.94 1352.75 222.072 1352.99 222.336C1353.26 222.6 1353.39 222.912 1353.39 223.272C1353.39 223.656 1353.26 223.98 1352.99 224.244ZM1366.41 254.268C1363.84 254.268 1361.86 253.728 1360.47 252.648C1359.08 251.592 1358.25 250.236 1357.99 248.58H1359.93C1360.51 251.292 1362.65 252.648 1366.37 252.648C1368.51 252.648 1370.18 252.12 1371.38 251.064C1372.6 250.032 1373.21 248.4 1373.21 246.168V242.316C1372.66 243.564 1371.74 244.644 1370.44 245.556C1369.17 246.444 1367.72 246.888 1366.09 246.888C1363.64 246.888 1361.61 246.06 1360 244.404C1358.39 242.748 1357.59 240.576 1357.59 237.888V237.636C1357.59 234.972 1358.42 232.764 1360.07 231.012C1361.75 229.26 1363.84 228.384 1366.34 228.384C1369.55 228.384 1371.85 229.836 1373.21 232.74V228.672H1375.12V246.24C1375.1 248.904 1374.29 250.908 1372.71 252.252C1371.15 253.596 1369.05 254.268 1366.41 254.268ZM1366.27 245.268C1368.23 245.268 1369.89 244.596 1371.23 243.252C1372.58 241.884 1373.25 240.06 1373.25 237.78V237.492C1373.25 235.164 1372.63 233.34 1371.38 232.02C1370.15 230.676 1368.53 230.004 1366.52 230.004C1364.48 230.004 1362.81 230.688 1361.51 232.056C1360.22 233.424 1359.57 235.26 1359.57 237.564V237.852C1359.57 240.132 1360.21 241.944 1361.48 243.288C1362.75 244.608 1364.35 245.268 1366.27 245.268ZM1381.04 247.5V219.672H1382.95V232.344C1383.4 231.24 1384.23 230.304 1385.43 229.536C1386.63 228.768 1388.02 228.384 1389.61 228.384C1391.69 228.384 1393.33 228.996 1394.5 230.22C1395.7 231.444 1396.3 233.34 1396.3 235.908V247.5H1394.39V235.8C1394.39 231.96 1392.65 230.04 1389.17 230.04C1387.49 230.04 1386.03 230.58 1384.78 231.66C1383.56 232.74 1382.95 234.216 1382.95 236.088V247.5H1381.04ZM1402.48 232.272L1401.15 231.3L1404.39 227.088L1399.64 225.648L1400.18 224.064L1404.79 225.9L1404.64 220.752H1406.37L1406.23 225.9L1410.84 224.064L1411.34 225.648L1406.59 227.088L1409.83 231.3L1408.5 232.272L1405.47 227.88L1402.48 232.272ZM1424.19 247.5V228.672H1429.41V231.552C1429.92 230.592 1430.67 229.8 1431.68 229.176C1432.69 228.552 1433.85 228.24 1435.17 228.24C1437.79 228.24 1439.54 229.332 1440.43 231.516C1441.89 229.332 1444.01 228.24 1446.77 228.24C1448.61 228.24 1450.1 228.84 1451.23 230.04C1452.38 231.24 1452.96 233.04 1452.96 235.44V247.5H1447.77V236.016C1447.77 233.688 1446.79 232.524 1444.82 232.524C1443.77 232.524 1442.89 232.86 1442.19 233.532C1441.52 234.204 1441.19 235.152 1441.19 236.376V247.5H1436V236.016C1436 233.688 1435.02 232.524 1433.05 232.524C1431.99 232.524 1431.12 232.86 1430.42 233.532C1429.75 234.204 1429.41 235.152 1429.41 236.376V247.5H1424.19ZM1462.78 242.424C1463.6 243.432 1464.74 243.936 1466.2 243.936C1467.67 243.936 1468.79 243.432 1469.59 242.424C1470.4 241.416 1470.81 240.012 1470.81 238.212V237.96C1470.81 236.16 1470.4 234.756 1469.59 233.748C1468.79 232.716 1467.67 232.2 1466.2 232.2C1464.76 232.2 1463.63 232.704 1462.82 233.712C1462 234.696 1461.59 236.088 1461.59 237.888V238.176C1461.59 239.976 1461.99 241.392 1462.78 242.424ZM1466.17 247.896C1463.31 247.896 1460.95 247.02 1459.07 245.268C1457.2 243.492 1456.27 241.164 1456.27 238.284V237.996C1456.27 235.092 1457.2 232.74 1459.07 230.94C1460.95 229.14 1463.32 228.24 1466.2 228.24C1469.08 228.24 1471.45 229.128 1473.29 230.904C1475.17 232.656 1476.1 234.984 1476.1 237.888V238.176C1476.1 241.104 1475.17 243.456 1473.29 245.232C1471.42 247.008 1469.05 247.896 1466.17 247.896ZM1484.96 242.424C1485.78 243.432 1486.92 243.936 1488.38 243.936C1489.85 243.936 1490.98 243.432 1491.77 242.424C1492.58 241.416 1492.99 240.012 1492.99 238.212V237.96C1492.99 236.16 1492.58 234.756 1491.77 233.748C1490.98 232.716 1489.85 232.2 1488.38 232.2C1486.94 232.2 1485.82 232.704 1485 233.712C1484.18 234.696 1483.78 236.088 1483.78 237.888V238.176C1483.78 239.976 1484.17 241.392 1484.96 242.424ZM1488.35 247.896C1485.49 247.896 1483.13 247.02 1481.26 245.268C1479.38 243.492 1478.45 241.164 1478.45 238.284V237.996C1478.45 235.092 1479.38 232.74 1481.26 230.94C1483.13 229.14 1485.5 228.24 1488.38 228.24C1491.26 228.24 1493.63 229.128 1495.48 230.904C1497.35 232.656 1498.28 234.984 1498.28 237.888V238.176C1498.28 241.104 1497.35 243.456 1495.48 245.232C1493.6 247.008 1491.23 247.896 1488.35 247.896ZM1508.84 247.896C1506.46 247.896 1504.51 247.068 1502.97 245.412C1501.44 243.732 1500.67 241.38 1500.67 238.356V238.068C1500.67 235.044 1501.44 232.656 1502.97 230.904C1504.53 229.128 1506.52 228.24 1508.95 228.24C1511.73 228.24 1513.71 229.32 1514.89 231.48V220.14H1520.07V247.5H1514.89V244.368C1514.38 245.376 1513.58 246.216 1512.48 246.888C1511.37 247.56 1510.16 247.896 1508.84 247.896ZM1510.39 243.828C1511.8 243.828 1512.93 243.348 1513.77 242.388C1514.61 241.428 1515.03 240.024 1515.03 238.176V237.888C1515.03 236.04 1514.64 234.636 1513.84 233.676C1513.08 232.716 1511.97 232.236 1510.53 232.236C1509.07 232.236 1507.94 232.728 1507.15 233.712C1506.38 234.672 1506 236.088 1506 237.96V238.248C1506 240.072 1506.39 241.464 1507.18 242.424C1507.98 243.36 1509.04 243.828 1510.39 243.828ZM1531.79 241.092V237.384H1548.06V241.092H1531.79ZM1531.79 234.252V230.508H1548.06V234.252H1531.79ZM1559.76 247.5V220.14H1564.98V231.66C1565.48 230.652 1566.25 229.836 1567.28 229.212C1568.34 228.564 1569.61 228.24 1571.1 228.24C1573.04 228.24 1574.58 228.852 1575.71 230.076C1576.86 231.276 1577.43 233.088 1577.43 235.512V247.5H1572.21V236.268C1572.21 234.972 1571.95 234.024 1571.42 233.424C1570.89 232.8 1570.05 232.488 1568.9 232.488C1567.73 232.488 1566.78 232.848 1566.06 233.568C1565.34 234.264 1564.98 235.284 1564.98 236.628V247.5H1559.76ZM1586.98 247.896C1585.13 247.896 1583.62 247.428 1582.45 246.492C1581.27 245.556 1580.68 244.152 1580.68 242.28C1580.68 238.248 1583.95 236.232 1590.47 236.232H1592.6V235.476C1592.6 234.3 1592.37 233.436 1591.91 232.884C1591.46 232.308 1590.67 232.02 1589.54 232.02C1587.64 232.02 1586.57 232.908 1586.33 234.684H1581.4C1581.55 232.548 1582.39 230.94 1583.92 229.86C1585.46 228.78 1587.44 228.24 1589.86 228.24C1595.12 228.24 1597.75 230.568 1597.75 235.224V247.5H1592.67V245.232C1591.4 247.008 1589.5 247.896 1586.98 247.896ZM1588.53 244.26C1589.71 244.26 1590.68 243.96 1591.45 243.36C1592.21 242.76 1592.6 241.944 1592.6 240.912V239.328H1590.58C1589 239.328 1587.8 239.532 1586.98 239.94C1586.19 240.348 1585.79 241.032 1585.79 241.992C1585.79 243.504 1586.71 244.26 1588.53 244.26ZM1602.23 253.908V228.672H1607.45V231.624C1608 230.664 1608.8 229.86 1609.86 229.212C1610.94 228.564 1612.14 228.24 1613.46 228.24C1615.86 228.24 1617.83 229.092 1619.36 230.796C1620.9 232.5 1621.67 234.864 1621.67 237.888V238.176C1621.67 241.2 1620.9 243.576 1619.36 245.304C1617.83 247.032 1615.86 247.896 1613.46 247.896C1612.07 247.896 1610.84 247.596 1609.79 246.996C1608.73 246.372 1607.95 245.58 1607.45 244.62V253.908H1602.23ZM1611.91 243.828C1613.35 243.828 1614.45 243.348 1615.22 242.388C1615.99 241.428 1616.37 240.036 1616.37 238.212V237.924C1616.37 236.076 1615.97 234.672 1615.15 233.712C1614.33 232.728 1613.24 232.236 1611.87 232.236C1610.46 232.236 1609.33 232.728 1608.49 233.712C1607.67 234.672 1607.27 236.076 1607.27 237.924V238.212C1607.27 240.06 1607.67 241.464 1608.49 242.424C1609.31 243.36 1610.45 243.828 1611.91 243.828ZM1625.15 253.908V228.672H1630.37V231.624C1630.92 230.664 1631.72 229.86 1632.78 229.212C1633.86 228.564 1635.06 228.24 1636.38 228.24C1638.78 228.24 1640.75 229.092 1642.28 230.796C1643.82 232.5 1644.59 234.864 1644.59 237.888V238.176C1644.59 241.2 1643.82 243.576 1642.28 245.304C1640.75 247.032 1638.78 247.896 1636.38 247.896C1634.99 247.896 1633.76 247.596 1632.71 246.996C1631.65 246.372 1630.87 245.58 1630.37 244.62V253.908H1625.15ZM1634.83 243.828C1636.27 243.828 1637.38 243.348 1638.14 242.388C1638.91 241.428 1639.3 240.036 1639.3 238.212V237.924C1639.3 236.076 1638.89 234.672 1638.07 233.712C1637.26 232.728 1636.16 232.236 1634.8 232.236C1633.38 232.236 1632.25 232.728 1631.41 233.712C1630.6 234.672 1630.19 236.076 1630.19 237.924V238.212C1630.19 240.06 1630.6 241.464 1631.41 242.424C1632.23 243.36 1633.37 243.828 1634.83 243.828ZM1649.92 253.908L1653.23 245.592L1645.74 228.672H1651.36L1655.93 239.976L1660.14 228.672H1665.15L1654.96 253.908H1649.92ZM1119.62 327.788C1116.9 327.788 1114.73 326.912 1113.1 325.16C1111.49 323.408 1110.69 321.116 1110.69 318.284V317.996C1110.69 315.164 1111.49 312.86 1113.1 311.084C1114.73 309.284 1116.81 308.384 1119.33 308.384C1121.73 308.384 1123.7 309.176 1125.23 310.76C1126.79 312.32 1127.57 314.588 1127.57 317.564V318.248H1112.67C1112.72 320.792 1113.33 322.748 1114.5 324.116C1115.7 325.484 1117.41 326.168 1119.62 326.168C1122.9 326.168 1124.87 324.86 1125.52 322.244H1127.43C1127.04 324.02 1126.16 325.388 1124.76 326.348C1123.37 327.308 1121.66 327.788 1119.62 327.788ZM1112.74 316.7H1125.59C1125.5 314.468 1124.9 312.8 1123.79 311.696C1122.71 310.568 1121.22 310.004 1119.33 310.004C1117.5 310.004 1115.99 310.616 1114.79 311.84C1113.59 313.04 1112.91 314.66 1112.74 316.7ZM1132.1 327.5V299.672H1134.04V327.5H1132.1ZM1145.66 327.824C1143.47 327.824 1141.75 327.296 1140.47 326.24C1139.23 325.16 1138.54 323.708 1138.42 321.884H1140.26C1140.62 324.764 1142.42 326.204 1145.66 326.204C1147.22 326.204 1148.41 325.88 1149.22 325.232C1150.04 324.56 1150.45 323.648 1150.45 322.496C1150.45 321.344 1150.09 320.504 1149.37 319.976C1148.65 319.448 1147.36 319.016 1145.51 318.68C1143.14 318.248 1141.46 317.66 1140.47 316.916C1139.51 316.172 1139.03 315.008 1139.03 313.424C1139.03 311.888 1139.65 310.664 1140.87 309.752C1142.09 308.84 1143.55 308.384 1145.23 308.384C1149.14 308.384 1151.32 310.088 1151.78 313.496H1149.94C1149.49 311.168 1147.9 310.004 1145.19 310.004C1143.87 310.004 1142.8 310.316 1141.99 310.94C1141.19 311.54 1140.8 312.344 1140.8 313.352C1140.8 314.408 1141.16 315.2 1141.88 315.728C1142.62 316.232 1143.98 316.652 1145.95 316.988C1148.18 317.396 1149.79 317.96 1150.77 318.68C1151.78 319.4 1152.28 320.624 1152.28 322.352C1152.28 323.984 1151.69 325.304 1150.52 326.312C1149.37 327.32 1147.75 327.824 1145.66 327.824ZM1164.27 327.788C1161.55 327.788 1159.38 326.912 1157.75 325.16C1156.14 323.408 1155.34 321.116 1155.34 318.284V317.996C1155.34 315.164 1156.14 312.86 1157.75 311.084C1159.38 309.284 1161.46 308.384 1163.98 308.384C1166.38 308.384 1168.35 309.176 1169.88 310.76C1171.44 312.32 1172.22 314.588 1172.22 317.564V318.248H1157.32C1157.37 320.792 1157.98 322.748 1159.15 324.116C1160.35 325.484 1162.06 326.168 1164.27 326.168C1167.55 326.168 1169.52 324.86 1170.17 322.244H1172.08C1171.69 324.02 1170.81 325.388 1169.41 326.348C1168.02 327.308 1166.31 327.788 1164.27 327.788ZM1157.39 316.7H1170.24C1170.15 314.468 1169.55 312.8 1168.44 311.696C1167.36 310.568 1165.87 310.004 1163.98 310.004C1162.15 310.004 1160.64 310.616 1159.44 311.84C1158.24 313.04 1157.56 314.66 1157.39 316.7ZM1184.92 327.5V308.672H1190.14V311.552C1190.65 310.592 1191.4 309.8 1192.41 309.176C1193.42 308.552 1194.58 308.24 1195.9 308.24C1198.52 308.24 1200.27 309.332 1201.16 311.516C1202.62 309.332 1204.73 308.24 1207.49 308.24C1209.34 308.24 1210.83 308.84 1211.96 310.04C1213.11 311.24 1213.69 313.04 1213.69 315.44V327.5H1208.5V316.016C1208.5 313.688 1207.52 312.524 1205.55 312.524C1204.49 312.524 1203.62 312.86 1202.92 313.532C1202.25 314.204 1201.91 315.152 1201.91 316.376V327.5H1196.73V316.016C1196.73 313.688 1195.75 312.524 1193.78 312.524C1192.72 312.524 1191.85 312.86 1191.15 313.532C1190.48 314.204 1190.14 315.152 1190.14 316.376V327.5H1184.92ZM1223.51 322.424C1224.32 323.432 1225.46 323.936 1226.93 323.936C1228.39 323.936 1229.52 323.432 1230.31 322.424C1231.13 321.416 1231.54 320.012 1231.54 318.212V317.96C1231.54 316.16 1231.13 314.756 1230.31 313.748C1229.52 312.716 1228.39 312.2 1226.93 312.2C1225.49 312.2 1224.36 312.704 1223.54 313.712C1222.73 314.696 1222.32 316.088 1222.32 317.888V318.176C1222.32 319.976 1222.72 321.392 1223.51 322.424ZM1226.89 327.896C1224.04 327.896 1221.67 327.02 1219.8 325.268C1217.93 323.492 1216.99 321.164 1216.99 318.284V317.996C1216.99 315.092 1217.93 312.74 1219.8 310.94C1221.67 309.14 1224.05 308.24 1226.93 308.24C1229.81 308.24 1232.17 309.128 1234.02 310.904C1235.89 312.656 1236.83 314.984 1236.83 317.888V318.176C1236.83 321.104 1235.89 323.456 1234.02 325.232C1232.15 327.008 1229.77 327.896 1226.89 327.896ZM1245.69 322.424C1246.51 323.432 1247.65 323.936 1249.11 323.936C1250.58 323.936 1251.7 323.432 1252.5 322.424C1253.31 321.416 1253.72 320.012 1253.72 318.212V317.96C1253.72 316.16 1253.31 314.756 1252.5 313.748C1251.7 312.716 1250.58 312.2 1249.11 312.2C1247.67 312.2 1246.54 312.704 1245.73 313.712C1244.91 314.696 1244.5 316.088 1244.5 317.888V318.176C1244.5 319.976 1244.9 321.392 1245.69 322.424ZM1249.08 327.896C1246.22 327.896 1243.86 327.02 1241.98 325.268C1240.11 323.492 1239.18 321.164 1239.18 318.284V317.996C1239.18 315.092 1240.11 312.74 1241.98 310.94C1243.86 309.14 1246.23 308.24 1249.11 308.24C1251.99 308.24 1254.36 309.128 1256.2 310.904C1258.08 312.656 1259.01 314.984 1259.01 317.888V318.176C1259.01 321.104 1258.08 323.456 1256.2 325.232C1254.33 327.008 1251.96 327.896 1249.08 327.896ZM1269.57 327.896C1267.19 327.896 1265.24 327.068 1263.7 325.412C1262.16 323.732 1261.4 321.38 1261.4 318.356V318.068C1261.4 315.044 1262.16 312.656 1263.7 310.904C1265.26 309.128 1267.25 308.24 1269.68 308.24C1272.46 308.24 1274.44 309.32 1275.62 311.48V300.14H1280.8V327.5H1275.62V324.368C1275.11 325.376 1274.31 326.216 1273.2 326.888C1272.1 327.56 1270.89 327.896 1269.57 327.896ZM1271.12 323.828C1272.53 323.828 1273.66 323.348 1274.5 322.388C1275.34 321.428 1275.76 320.024 1275.76 318.176V317.888C1275.76 316.04 1275.36 314.636 1274.57 313.676C1273.8 312.716 1272.7 312.236 1271.26 312.236C1269.8 312.236 1268.67 312.728 1267.88 313.712C1267.11 314.672 1266.72 316.088 1266.72 317.96V318.248C1266.72 320.072 1267.12 321.464 1267.91 322.424C1268.7 323.36 1269.77 323.828 1271.12 323.828ZM1292.51 321.092V317.384H1308.79V321.092H1292.51ZM1292.51 314.252V310.508H1308.79V314.252H1292.51ZM1320.48 327.5V308.672H1325.7V311.66C1326.21 310.652 1326.98 309.836 1328.01 309.212C1329.06 308.564 1330.34 308.24 1331.82 308.24C1333.77 308.24 1335.3 308.852 1336.43 310.076C1337.58 311.276 1338.16 313.088 1338.16 315.512V327.5H1332.94V316.268C1332.94 314.972 1332.68 314.024 1332.15 313.424C1331.62 312.8 1330.78 312.488 1329.63 312.488C1328.45 312.488 1327.5 312.848 1326.78 313.568C1326.06 314.264 1325.7 315.284 1325.7 316.628V327.5H1320.48ZM1351.31 327.896C1348.4 327.896 1346.04 327.044 1344.22 325.34C1342.39 323.612 1341.48 321.272 1341.48 318.32V318.032C1341.48 315.104 1342.39 312.74 1344.22 310.94C1346.06 309.14 1348.38 308.24 1351.16 308.24C1353.8 308.24 1355.99 309.044 1357.72 310.652C1359.47 312.26 1360.34 314.648 1360.34 317.816V319.256H1346.77C1346.84 320.816 1347.29 322.028 1348.1 322.892C1348.92 323.756 1350.04 324.188 1351.45 324.188C1353.71 324.188 1355.02 323.312 1355.38 321.56H1360.31C1360 323.6 1359.06 325.172 1357.5 326.276C1355.94 327.356 1353.88 327.896 1351.31 327.896ZM1346.84 316.052H1355.27C1355.1 313.244 1353.73 311.84 1351.16 311.84C1349.99 311.84 1349.02 312.212 1348.25 312.956C1347.5 313.676 1347.04 314.708 1346.84 316.052ZM1370.03 327.896C1368.08 327.896 1366.52 327.308 1365.35 326.132C1364.19 324.956 1363.62 323.18 1363.62 320.804V308.672H1368.8V320.084C1368.8 322.604 1369.89 323.864 1372.08 323.864C1373.23 323.864 1374.17 323.516 1374.89 322.82C1375.63 322.1 1376 321.068 1376 319.724V308.672H1381.19V327.5H1376V324.548C1374.87 326.78 1372.88 327.896 1370.03 327.896ZM1392.68 327.86C1390.69 327.86 1389.18 327.356 1388.14 326.348C1387.11 325.34 1386.6 323.864 1386.6 321.92V312.38H1384.18V308.672H1386.6V304.604H1391.78V308.672H1395.74V312.38H1391.78V321.452C1391.78 322.94 1392.48 323.684 1393.87 323.684C1394.61 323.684 1395.27 323.564 1395.85 323.324V327.356C1394.89 327.692 1393.83 327.86 1392.68 327.86ZM1399.37 327.5V308.672H1404.59V312.272C1405.79 309.704 1407.82 308.408 1410.68 308.384V313.244C1408.66 313.22 1407.14 313.592 1406.11 314.36C1405.1 315.104 1404.59 316.34 1404.59 318.068V327.5H1399.37ZM1418.83 327.896C1416.98 327.896 1415.47 327.428 1414.29 326.492C1413.12 325.556 1412.53 324.152 1412.53 322.28C1412.53 318.248 1415.79 316.232 1422.32 316.232H1424.45V315.476C1424.45 314.3 1424.22 313.436 1423.76 312.884C1423.31 312.308 1422.51 312.02 1421.39 312.02C1419.49 312.02 1418.42 312.908 1418.18 314.684H1413.25C1413.39 312.548 1414.23 310.94 1415.77 309.86C1417.31 308.78 1419.29 308.24 1421.71 308.24C1426.97 308.24 1429.59 310.568 1429.59 315.224V327.5H1424.52V325.232C1423.25 327.008 1421.35 327.896 1418.83 327.896ZM1420.38 324.26C1421.55 324.26 1422.53 323.96 1423.29 323.36C1424.06 322.76 1424.45 321.944 1424.45 320.912V319.328H1422.43C1420.85 319.328 1419.65 319.532 1418.83 319.94C1418.04 320.348 1417.64 321.032 1417.64 321.992C1417.64 323.504 1418.55 324.26 1420.38 324.26ZM1434.22 327.5V300.14H1439.4V327.5H1434.22Z" fill="black"/>
<path d="M576.525 619.5V593.76H591.321V595.416H578.541V605.46H588.909V607.116H578.541V617.844H591.969V619.5H576.525ZM600.825 619.5L593.589 600.672H595.677L602.085 617.592L608.457 600.672H610.401L603.309 619.5H600.825ZM621.271 619.788C618.559 619.788 616.387 618.912 614.755 617.16C613.147 615.408 612.343 613.116 612.343 610.284V609.996C612.343 607.164 613.147 604.86 614.755 603.084C616.387 601.284 618.463 600.384 620.983 600.384C623.383 600.384 625.351 601.176 626.887 602.76C628.447 604.32 629.227 606.588 629.227 609.564V610.248H614.323C614.371 612.792 614.983 614.748 616.159 616.116C617.359 617.484 619.063 618.168 621.271 618.168C624.559 618.168 626.527 616.86 627.175 614.244H629.083C628.699 616.02 627.811 617.388 626.419 618.348C625.027 619.308 623.311 619.788 621.271 619.788ZM614.395 608.7H627.247C627.151 606.468 626.551 604.8 625.447 603.696C624.367 602.568 622.879 602.004 620.983 602.004C619.159 602.004 617.647 602.616 616.447 603.84C615.247 605.04 614.563 606.66 614.395 608.7ZM633.681 619.5V600.672H635.589V604.632C636.813 601.92 638.937 600.516 641.961 600.42V602.22C637.713 602.388 635.589 604.668 635.589 609.06V619.5H633.681ZM648.352 626.052L651.772 617.88L644.32 600.672H646.372L652.816 615.684L658.828 600.672H660.772L650.332 626.052H648.352ZM671.83 618.168C673.894 618.168 675.586 617.448 676.906 616.008C678.25 614.568 678.922 612.648 678.922 610.248V609.96C678.922 607.536 678.25 605.604 676.906 604.164C675.562 602.724 673.87 602.004 671.83 602.004C669.766 602.004 668.062 602.736 666.718 604.2C665.374 605.64 664.702 607.56 664.702 609.96V610.248C664.702 612.624 665.362 614.544 666.682 616.008C668.026 617.448 669.742 618.168 671.83 618.168ZM678.274 617.124C676.522 618.9 674.362 619.788 671.794 619.788C669.226 619.788 667.066 618.888 665.314 617.088C663.586 615.288 662.722 613.008 662.722 610.248V609.96C662.722 607.176 663.598 604.884 665.35 603.084C667.102 601.284 669.262 600.384 671.83 600.384C674.422 600.384 676.582 601.272 678.31 603.048C680.038 604.824 680.902 607.116 680.902 609.924V610.212C680.902 613.02 680.026 615.324 678.274 617.124ZM685.395 619.5V600.672H687.303V604.344C687.759 603.24 688.587 602.304 689.787 601.536C690.987 600.768 692.379 600.384 693.963 600.384C696.051 600.384 697.683 600.996 698.859 602.22C700.059 603.444 700.659 605.34 700.659 607.908V619.5H698.751V607.8C698.751 603.96 697.011 602.04 693.531 602.04C691.851 602.04 690.387 602.58 689.139 603.66C687.915 604.74 687.303 606.216 687.303 608.088V619.5H685.395ZM713.908 619.788C711.196 619.788 709.024 618.912 707.392 617.16C705.784 615.408 704.98 613.116 704.98 610.284V609.996C704.98 607.164 705.784 604.86 707.392 603.084C709.024 601.284 711.1 600.384 713.62 600.384C716.02 600.384 717.988 601.176 719.524 602.76C721.084 604.32 721.864 606.588 721.864 609.564V610.248H706.96C707.008 612.792 707.62 614.748 708.796 616.116C709.996 617.484 711.7 618.168 713.908 618.168C717.196 618.168 719.164 616.86 719.812 614.244H721.72C721.336 616.02 720.448 617.388 719.056 618.348C717.664 619.308 715.948 619.788 713.908 619.788ZM707.032 608.7H719.884C719.788 606.468 719.188 604.8 718.084 603.696C717.004 602.568 715.516 602.004 713.62 602.004C711.796 602.004 710.284 602.616 709.084 603.84C707.884 605.04 707.2 606.66 707.032 608.7ZM735.212 619.5V591.672H737.12V604.344C737.576 603.24 738.404 602.304 739.604 601.536C740.804 600.768 742.196 600.384 743.78 600.384C745.868 600.384 747.5 600.996 748.676 602.22C749.876 603.444 750.476 605.34 750.476 607.908V619.5H748.568V607.8C748.568 603.96 746.828 602.04 743.348 602.04C741.668 602.04 740.204 602.58 738.956 603.66C737.732 604.74 737.12 606.216 737.12 608.088V619.5H735.212ZM761.204 619.788C759.284 619.788 757.736 619.332 756.56 618.42C755.408 617.484 754.832 616.152 754.832 614.424C754.832 612.408 755.648 610.956 757.28 610.068C758.912 609.18 761.036 608.736 763.652 608.736H767.576V607.044C767.576 605.292 767.192 604.02 766.424 603.228C765.68 602.412 764.48 602.004 762.824 602.004C759.704 602.004 757.94 603.336 757.532 606H755.66C755.876 604.128 756.656 602.724 758 601.788C759.344 600.852 760.976 600.384 762.896 600.384C767.288 600.384 769.484 602.604 769.484 607.044V619.5H767.576V616.62C766.208 618.732 764.084 619.788 761.204 619.788ZM761.348 618.24C763.1 618.24 764.576 617.784 765.776 616.872C766.976 615.96 767.576 614.808 767.576 613.416V610.212H763.724C762.308 610.212 761.108 610.32 760.124 610.536C759.164 610.752 758.36 611.184 757.712 611.832C757.064 612.48 756.74 613.344 756.74 614.424C756.74 616.968 758.276 618.24 761.348 618.24ZM780.907 619.824C778.723 619.824 776.995 619.296 775.723 618.24C774.475 617.16 773.791 615.708 773.671 613.884H775.507C775.867 616.764 777.667 618.204 780.907 618.204C782.467 618.204 783.655 617.88 784.471 617.232C785.287 616.56 785.695 615.648 785.695 614.496C785.695 613.344 785.335 612.504 784.615 611.976C783.895 611.448 782.611 611.016 780.763 610.68C778.387 610.248 776.707 609.66 775.723 608.916C774.763 608.172 774.283 607.008 774.283 605.424C774.283 603.888 774.895 602.664 776.119 601.752C777.343 600.84 778.795 600.384 780.475 600.384C784.387 600.384 786.571 602.088 787.027 605.496H785.191C784.735 603.168 783.151 602.004 780.439 602.004C779.119 602.004 778.051 602.316 777.235 602.94C776.443 603.54 776.047 604.344 776.047 605.352C776.047 606.408 776.407 607.2 777.127 607.728C777.871 608.232 779.227 608.652 781.195 608.988C783.427 609.396 785.035 609.96 786.019 610.68C787.027 611.4 787.531 612.624 787.531 614.352C787.531 615.984 786.943 617.304 785.767 618.312C784.615 619.32 782.995 619.824 780.907 619.824ZM807.94 619.788C805.468 619.788 803.44 618.948 801.856 617.268C800.272 615.564 799.48 613.26 799.48 610.356V610.068C799.48 607.212 800.308 604.884 801.964 603.084C803.62 601.284 805.708 600.384 808.228 600.384C811.444 600.384 813.736 601.872 815.104 604.848V591.672H817.012V619.5H815.104V615.144C814.552 616.392 813.628 617.484 812.332 618.42C811.06 619.332 809.596 619.788 807.94 619.788ZM808.12 618.168C810.112 618.168 811.78 617.472 813.124 616.08C814.468 614.664 815.14 612.708 815.14 610.212V609.924C815.14 607.404 814.516 605.46 813.268 604.092C812.044 602.7 810.424 602.004 808.408 602.004C806.344 602.004 804.664 602.712 803.368 604.128C802.096 605.544 801.46 607.5 801.46 609.996V610.284C801.46 612.78 802.084 614.724 803.332 616.116C804.58 617.484 806.176 618.168 808.12 618.168ZM822.999 619.5V600.672H824.907V619.5H822.999ZM824.871 596.244C824.631 596.508 824.319 596.64 823.935 596.64C823.551 596.64 823.227 596.508 822.963 596.244C822.699 595.98 822.567 595.656 822.567 595.272C822.567 594.912 822.699 594.6 822.963 594.336C823.227 594.072 823.551 593.94 823.935 593.94C824.319 593.94 824.631 594.072 824.871 594.336C825.135 594.6 825.267 594.912 825.267 595.272C825.267 595.656 825.135 595.98 824.871 596.244ZM831.7 619.5V602.292H828.856V600.672H831.7V597.576C831.7 595.68 832.18 594.252 833.14 593.292C834.1 592.332 835.396 591.852 837.028 591.852C837.844 591.852 838.54 591.96 839.116 592.176V593.796C838.468 593.58 837.796 593.472 837.1 593.472C836.02 593.472 835.168 593.796 834.544 594.444C833.92 595.092 833.608 596.076 833.608 597.396V600.672H841.744V597.288C841.744 595.392 842.212 593.964 843.148 593.004C844.108 592.044 845.416 591.564 847.072 591.564C847.744 591.564 848.428 591.672 849.124 591.888V593.508C848.476 593.292 847.804 593.184 847.108 593.184C846.028 593.184 845.176 593.508 844.552 594.156C843.952 594.804 843.652 595.788 843.652 597.108V600.672H848.872V602.292H843.652V619.5H841.744V602.292H833.608V619.5H831.7ZM859.49 619.788C856.778 619.788 854.606 618.912 852.974 617.16C851.366 615.408 850.562 613.116 850.562 610.284V609.996C850.562 607.164 851.366 604.86 852.974 603.084C854.606 601.284 856.682 600.384 859.202 600.384C861.602 600.384 863.57 601.176 865.106 602.76C866.666 604.32 867.446 606.588 867.446 609.564V610.248H852.542C852.59 612.792 853.202 614.748 854.378 616.116C855.578 617.484 857.282 618.168 859.49 618.168C862.778 618.168 864.746 616.86 865.394 614.244H867.302C866.918 616.02 866.03 617.388 864.638 618.348C863.246 619.308 861.53 619.788 859.49 619.788ZM852.614 608.7H865.466C865.37 606.468 864.77 604.8 863.666 603.696C862.586 602.568 861.098 602.004 859.202 602.004C857.378 602.004 855.866 602.616 854.666 603.84C853.466 605.04 852.782 606.66 852.614 608.7ZM871.899 619.5V600.672H873.807V604.632C875.031 601.92 877.155 600.516 880.179 600.42V602.22C875.931 602.388 873.807 604.668 873.807 609.06V619.5H871.899ZM891.236 619.788C888.524 619.788 886.352 618.912 884.72 617.16C883.112 615.408 882.308 613.116 882.308 610.284V609.996C882.308 607.164 883.112 604.86 884.72 603.084C886.352 601.284 888.428 600.384 890.948 600.384C893.348 600.384 895.316 601.176 896.852 602.76C898.412 604.32 899.192 606.588 899.192 609.564V610.248H884.288C884.336 612.792 884.948 614.748 886.124 616.116C887.324 617.484 889.028 618.168 891.236 618.168C894.524 618.168 896.492 616.86 897.14 614.244H899.048C898.664 616.02 897.776 617.388 896.384 618.348C894.992 619.308 893.276 619.788 891.236 619.788ZM884.36 608.7H897.212C897.116 606.468 896.516 604.8 895.412 603.696C894.332 602.568 892.844 602.004 890.948 602.004C889.124 602.004 887.612 602.616 886.412 603.84C885.212 605.04 884.528 606.66 884.36 608.7ZM903.645 619.5V600.672H905.553V604.344C906.009 603.24 906.837 602.304 908.037 601.536C909.237 600.768 910.629 600.384 912.213 600.384C914.301 600.384 915.933 600.996 917.109 602.22C918.309 603.444 918.909 605.34 918.909 607.908V619.5H917.001V607.8C917.001 603.96 915.261 602.04 911.781 602.04C910.101 602.04 908.637 602.58 907.389 603.66C906.165 604.74 905.553 606.216 905.553 608.088V619.5H903.645ZM929.962 619.752C928.474 619.752 927.334 619.332 926.542 618.492C925.75 617.652 925.354 616.476 925.354 614.964V602.292H922.582V600.672H925.354V596.388H927.262V600.672H932.194V602.292H927.262V614.82C927.262 617.028 928.198 618.132 930.07 618.132C930.862 618.132 931.654 618 932.446 617.736V619.356C931.702 619.62 930.874 619.752 929.962 619.752ZM951.812 619.5V595.416H943.82V593.76H961.784V595.416H953.792V619.5H951.812ZM965.802 619.5V591.672H967.71V604.344C968.166 603.24 968.994 602.304 970.194 601.536C971.394 600.768 972.786 600.384 974.37 600.384C976.458 600.384 978.09 600.996 979.266 602.22C980.466 603.444 981.066 605.34 981.066 607.908V619.5H979.158V607.8C979.158 603.96 977.418 602.04 973.938 602.04C972.258 602.04 970.794 602.58 969.546 603.66C968.322 604.74 967.71 606.216 967.71 608.088V619.5H965.802ZM986.79 619.5V600.672H988.698V604.632C989.922 601.92 992.046 600.516 995.07 600.42V602.22C990.822 602.388 988.698 604.668 988.698 609.06V619.5H986.79ZM1006.13 619.788C1003.41 619.788 1001.24 618.912 999.61 617.16C998.002 615.408 997.198 613.116 997.198 610.284V609.996C997.198 607.164 998.002 604.86 999.61 603.084C1001.24 601.284 1003.32 600.384 1005.84 600.384C1008.24 600.384 1010.21 601.176 1011.74 602.76C1013.3 604.32 1014.08 606.588 1014.08 609.564V610.248H999.178C999.226 612.792 999.838 614.748 1001.01 616.116C1002.21 617.484 1003.92 618.168 1006.13 618.168C1009.41 618.168 1011.38 616.86 1012.03 614.244H1013.94C1013.55 616.02 1012.67 617.388 1011.27 618.348C1009.88 619.308 1008.17 619.788 1006.13 619.788ZM999.25 608.7H1012.1C1012.01 606.468 1011.41 604.8 1010.3 603.696C1009.22 602.568 1007.73 602.004 1005.84 602.004C1004.01 602.004 1002.5 602.616 1001.3 603.84C1000.1 605.04 999.418 606.66 999.25 608.7ZM1024.36 619.824C1022.18 619.824 1020.45 619.296 1019.18 618.24C1017.93 617.16 1017.25 615.708 1017.13 613.884H1018.96C1019.32 616.764 1021.12 618.204 1024.36 618.204C1025.92 618.204 1027.11 617.88 1027.93 617.232C1028.74 616.56 1029.15 615.648 1029.15 614.496C1029.15 613.344 1028.79 612.504 1028.07 611.976C1027.35 611.448 1026.07 611.016 1024.22 610.68C1021.84 610.248 1020.16 609.66 1019.18 608.916C1018.22 608.172 1017.74 607.008 1017.74 605.424C1017.74 603.888 1018.35 602.664 1019.58 601.752C1020.8 600.84 1022.25 600.384 1023.93 600.384C1027.84 600.384 1030.03 602.088 1030.48 605.496H1028.65C1028.19 603.168 1026.61 602.004 1023.9 602.004C1022.58 602.004 1021.51 602.316 1020.69 602.94C1019.9 603.54 1019.5 604.344 1019.5 605.352C1019.5 606.408 1019.86 607.2 1020.58 607.728C1021.33 608.232 1022.68 608.652 1024.65 608.988C1026.88 609.396 1028.49 609.96 1029.48 610.68C1030.48 611.4 1030.99 612.624 1030.99 614.352C1030.99 615.984 1030.4 617.304 1029.22 618.312C1028.07 619.32 1026.45 619.824 1024.36 619.824ZM1035.45 619.5V591.672H1037.35V604.344C1037.81 603.24 1038.64 602.304 1039.84 601.536C1041.04 600.768 1042.43 600.384 1044.01 600.384C1046.1 600.384 1047.73 600.996 1048.91 602.22C1050.11 603.444 1050.71 605.34 1050.71 607.908V619.5H1048.8V607.8C1048.8 603.96 1047.06 602.04 1043.58 602.04C1041.9 602.04 1040.44 602.58 1039.19 603.66C1037.97 604.74 1037.35 606.216 1037.35 608.088V619.5H1035.45ZM1064.14 618.168C1066.2 618.168 1067.89 617.448 1069.21 616.008C1070.56 614.568 1071.23 612.648 1071.23 610.248V609.96C1071.23 607.536 1070.56 605.604 1069.21 604.164C1067.87 602.724 1066.18 602.004 1064.14 602.004C1062.07 602.004 1060.37 602.736 1059.03 604.2C1057.68 605.64 1057.01 607.56 1057.01 609.96V610.248C1057.01 612.624 1057.67 614.544 1058.99 616.008C1060.33 617.448 1062.05 618.168 1064.14 618.168ZM1070.58 617.124C1068.83 618.9 1066.67 619.788 1064.1 619.788C1061.53 619.788 1059.37 618.888 1057.62 617.088C1055.89 615.288 1055.03 613.008 1055.03 610.248V609.96C1055.03 607.176 1055.91 604.884 1057.66 603.084C1059.41 601.284 1061.57 600.384 1064.14 600.384C1066.73 600.384 1068.89 601.272 1070.62 603.048C1072.35 604.824 1073.21 607.116 1073.21 609.924V610.212C1073.21 613.02 1072.33 615.324 1070.58 617.124ZM1077.78 619.5V591.672H1079.72V619.5H1077.78ZM1092.74 619.788C1090.27 619.788 1088.24 618.948 1086.66 617.268C1085.07 615.564 1084.28 613.26 1084.28 610.356V610.068C1084.28 607.212 1085.11 604.884 1086.76 603.084C1088.42 601.284 1090.51 600.384 1093.03 600.384C1096.24 600.384 1098.54 601.872 1099.9 604.848V591.672H1101.81V619.5H1099.9V615.144C1099.35 616.392 1098.43 617.484 1097.13 618.42C1095.86 619.332 1094.4 619.788 1092.74 619.788ZM1092.92 618.168C1094.91 618.168 1096.58 617.472 1097.92 616.08C1099.27 614.664 1099.94 612.708 1099.94 610.212V609.924C1099.94 607.404 1099.32 605.46 1098.07 604.092C1096.84 602.7 1095.22 602.004 1093.21 602.004C1091.14 602.004 1089.46 602.712 1088.17 604.128C1086.9 605.544 1086.26 607.5 1086.26 609.996V610.284C1086.26 612.78 1086.88 614.724 1088.13 616.116C1089.38 617.484 1090.98 618.168 1092.92 618.168ZM1109.28 604.272L1107.94 603.3L1111.18 599.088L1106.43 597.648L1106.97 596.064L1111.58 597.9L1111.44 592.752H1113.16L1113.02 597.9L1117.63 596.064L1118.13 597.648L1113.38 599.088L1116.62 603.3L1115.29 604.272L1112.26 599.88L1109.28 604.272Z" fill="black"/>
<path d="M23.857 254.913C23.857 258.459 22.8256 261.221 20.7627 263.2C18.6792 265.179 15.9562 266.169 12.5938 266.169H12.3462C9.02503 266.169 6.31237 265.118 4.20825 263.015C2.10413 260.891 1.05207 258.191 1.05207 254.913C1.05207 253.202 1.30992 251.666 1.82564 250.305C2.32072 248.924 3.1665 247.749 4.36296 246.78C5.55942 245.811 7.03437 245.244 8.7878 245.079L8.7878 250.058C6.27111 250.47 5.01276 252.068 5.01276 254.851C5.01276 256.748 5.68319 258.242 7.02405 259.335C8.34428 260.407 10.139 260.943 12.4081 260.943H12.6557C14.9042 260.943 16.6886 260.438 18.0088 259.428C19.329 258.417 19.9891 256.871 19.9891 254.789C19.9891 253.037 19.5559 251.728 18.6895 250.862C17.8231 249.975 16.6989 249.511 15.3168 249.47V254.449H11.6655L11.6655 244.522H14.0172C17.0083 244.522 19.4012 245.44 21.1959 247.275C22.97 249.109 23.857 251.655 23.857 254.913Z" fill="black"/>
<path d="M23.857 233.316C23.857 236.243 23.2175 238.46 21.9385 239.965C20.6596 241.469 18.8752 242.294 16.5854 242.438V237.645C17.72 237.522 18.607 237.15 19.2465 236.532C19.886 235.893 20.2057 234.821 20.2057 233.316C20.2057 232.223 19.9376 231.347 19.4012 230.687C18.8443 230.007 18.1326 229.667 17.2662 229.667C16.3791 229.667 15.7396 229.956 15.3477 230.533C14.9558 231.11 14.636 232.213 14.3885 233.842C14.0172 236.728 13.3364 238.779 12.3462 239.995C11.3354 241.212 9.77797 241.82 7.67385 241.82C5.75539 241.82 4.1773 241.088 2.93958 239.624C1.70187 238.14 1.08301 236.192 1.08301 233.78C1.08301 231.285 1.63998 229.337 2.75393 227.935C3.86787 226.513 5.51816 225.698 7.7048 225.492V230.1C5.74508 230.409 4.76522 231.636 4.76522 233.78C4.76522 234.852 4.99213 235.676 5.44596 236.254C5.89979 236.81 6.50834 237.089 7.27159 237.089C8.09674 237.089 8.7156 236.821 9.12817 236.285C9.52011 235.728 9.83986 234.625 10.0874 232.976C10.4587 230.131 11.1291 228.069 12.0987 226.791C13.0476 225.513 14.6154 224.874 16.802 224.874C18.8236 224.874 20.5049 225.647 21.8457 227.193C23.1866 228.719 23.857 230.76 23.857 233.316Z" fill="black"/>
<path d="M23.5166 221.267H1.39244L1.39244 213.35C1.39244 210.67 1.95972 208.577 3.0943 207.073C4.20824 205.568 5.87916 204.815 8.10705 204.815H8.23083C11.2426 204.815 13.2023 206.33 14.11 209.361L23.5166 203.516V208.835L14.9764 214.123V216.288H23.5166V221.267ZM11.5727 216.288V213.474C11.5727 210.959 10.5103 209.701 8.38554 209.701H8.26177C7.16845 209.701 6.39488 210.021 5.94105 210.66C5.46659 211.278 5.22936 212.216 5.22936 213.474V216.288H11.5727Z" fill="black"/>
<path d="M23.5166 188.037L1.39243 195.428L1.39243 190.14L18.3801 184.883L1.39243 179.626L1.39243 174.926L23.5166 182.285V188.037Z" fill="black"/>
<path d="M23.857 169.534C23.857 171.121 23.4547 172.42 22.6502 173.43C21.8457 174.44 20.6389 174.945 19.0299 174.945C15.5643 174.945 13.8315 172.141 13.8315 166.534V164.709H13.1817C12.1709 164.709 11.4283 164.905 10.9538 165.297C10.4587 165.689 10.2112 166.369 10.2112 167.338C10.2112 168.967 10.9744 169.884 12.5009 170.09V174.327C10.665 174.203 9.28288 173.481 8.3546 172.162C7.42631 170.843 6.96216 169.142 6.96216 167.06C6.96216 162.545 8.96314 160.287 12.9651 160.287H23.5166V164.648H21.5672C23.0937 165.74 23.857 167.369 23.857 169.534ZM20.7318 168.204C20.7318 167.194 20.4739 166.359 19.9582 165.699C19.4425 165.039 18.7411 164.709 17.8541 164.709H16.4926V166.441C16.4926 167.802 16.6679 168.833 17.0186 169.534C17.3693 170.214 17.9572 170.554 18.7824 170.554C20.082 170.554 20.7318 169.771 20.7318 168.204Z" fill="black"/>
<path d="M23.5166 156.315H1.94769e-07L0 151.862H23.5166V156.315Z" fill="black"/>
<path d="M23.857 142.391C23.857 144.061 23.3516 145.401 22.3408 146.411C21.33 147.401 19.8035 147.895 17.7612 147.895H7.33348L7.33348 143.442H17.1424C19.3084 143.442 20.3914 142.504 20.3914 140.628C20.3914 139.639 20.0923 138.835 19.4941 138.216C18.8752 137.577 17.9882 137.258 16.833 137.258H7.33348L7.33348 132.805H23.5166V137.258H20.9793C22.8978 138.227 23.857 139.938 23.857 142.391Z" fill="black"/>
<path d="M23.857 121.384C23.857 123.879 23.1247 125.91 21.6601 127.476C20.1748 129.043 18.1635 129.827 15.6262 129.827H15.3786C12.8619 129.827 10.83 129.043 9.28288 127.476C7.73573 125.889 6.96216 123.899 6.96216 121.508C6.96216 119.24 7.65322 117.364 9.03534 115.88C10.4175 114.375 12.47 113.622 15.193 113.622H16.4307L16.4307 125.281C17.7716 125.219 18.8133 124.837 19.5559 124.137C20.2986 123.436 20.6699 122.477 20.6699 121.261C20.6699 119.323 19.9169 118.199 18.411 117.89V113.653C20.1645 113.921 21.5157 114.725 22.4646 116.065C23.3929 117.405 23.857 119.178 23.857 121.384ZM13.6768 125.219L13.6768 117.983C11.2632 118.127 10.0565 119.302 10.0565 121.508C10.0565 122.518 10.3762 123.353 11.0157 124.013C11.6345 124.652 12.5216 125.054 13.6768 125.219Z" fill="black"/>
<path d="M318.92 409.16V387.049H326.563C329.286 387.049 331.37 387.647 332.814 388.843C334.278 390.039 335.011 391.791 335.011 394.1V394.224C335.011 396.491 334.278 398.213 332.814 399.388C331.349 400.542 329.317 401.12 326.718 401.12H323.902V409.16H318.92ZM323.902 397.625H326.44C328.936 397.625 330.184 396.502 330.184 394.255V394.131C330.184 391.946 328.936 390.853 326.44 390.853H323.902V397.625Z" fill="black"/>
<path d="M343.272 409.5C341.601 409.5 340.26 408.995 339.249 407.985C338.259 406.975 337.764 405.449 337.764 403.408V392.987H342.22V402.79C342.22 404.954 343.158 406.037 345.036 406.037C346.026 406.037 346.83 405.738 347.449 405.14C348.089 404.521 348.408 403.635 348.408 402.48V392.987H352.864V409.16H348.408V406.624C347.439 408.541 345.727 409.5 343.272 409.5Z" fill="black"/>
<path d="M356.958 409.16V385.658H361.414V409.16H356.958Z" fill="black"/>
<path d="M371.386 409.5C369.199 409.5 367.497 409.036 366.28 408.108C365.063 407.181 364.413 405.841 364.331 404.088H368.508C368.611 404.851 368.879 405.428 369.313 405.82C369.746 406.191 370.427 406.377 371.355 406.377C373.046 406.377 373.892 405.789 373.892 404.614C373.892 404.078 373.645 403.666 373.15 403.377C372.655 403.088 371.809 402.862 370.612 402.697C368.426 402.367 366.878 401.831 365.971 401.089C365.084 400.347 364.64 399.202 364.64 397.656C364.64 396.048 365.259 394.811 366.497 393.945C367.755 393.059 369.271 392.616 371.045 392.616C375.13 392.616 377.358 394.286 377.729 397.625H373.614C373.366 396.327 372.52 395.677 371.076 395.677C370.354 395.677 369.787 395.832 369.375 396.141C368.983 396.45 368.787 396.852 368.787 397.347C368.787 397.862 369.003 398.244 369.436 398.491C369.89 398.739 370.715 398.945 371.912 399.11C374.099 399.419 375.687 399.934 376.677 400.656C377.688 401.377 378.193 402.552 378.193 404.181C378.193 405.913 377.595 407.232 376.399 408.139C375.223 409.046 373.552 409.5 371.386 409.5Z" fill="black"/>
<path d="M388.496 409.5C386 409.5 383.968 408.768 382.4 407.304C380.832 405.82 380.048 403.81 380.048 401.274V401.027C380.048 398.512 380.832 396.481 382.4 394.935C383.988 393.389 385.979 392.616 388.372 392.616C390.641 392.616 392.518 393.306 394.004 394.688C395.51 396.069 396.263 398.12 396.263 400.841V402.078H384.597C384.659 403.418 385.041 404.459 385.742 405.202C386.443 405.944 387.403 406.315 388.62 406.315C390.559 406.315 391.683 405.562 391.992 404.057H396.232C395.963 405.81 395.159 407.16 393.818 408.108C392.477 409.036 390.703 409.5 388.496 409.5ZM384.659 399.326H391.9C391.755 396.914 390.579 395.708 388.372 395.708C387.361 395.708 386.526 396.028 385.866 396.667C385.226 397.285 384.824 398.172 384.659 399.326Z" fill="black"/>
<path d="M68.9641 251.159H225.129V351.178H68.9641V251.159Z" fill="white"/>
<path d="M241.084 251.159H397.249V351.178H241.084V251.159Z" fill="#9AC3FF"/>
<path d="M68.4806 22.6132H397.249V122.632H68.4806V22.6132Z" fill="#9AFFAA"/>
<path d="M397.249 136.644H658.33V236.663H397.249V136.644Z" fill="#FF9A9A"/>
<path d="M99.0219 311.074V288.963H101.374L113.751 308.693V288.963H115.391V311.074H113.348L100.693 290.88V311.074H99.0219Z" fill="black"/>
<path d="M127.238 311.321C124.907 311.321 123.041 310.569 121.638 309.064C120.256 307.559 119.565 305.59 119.565 303.157V302.91C119.565 300.477 120.256 298.498 121.638 296.972C123.041 295.426 124.825 294.653 126.991 294.653C129.054 294.653 130.745 295.333 132.066 296.694C133.406 298.034 134.077 299.982 134.077 302.539V303.126H121.266C121.308 305.312 121.834 306.992 122.845 308.167C123.876 309.342 125.341 309.929 127.238 309.929C130.065 309.929 131.756 308.806 132.313 306.559H133.953C133.623 308.084 132.86 309.259 131.663 310.084C130.467 310.909 128.992 311.321 127.238 311.321ZM121.328 301.797H132.375C132.292 299.879 131.777 298.446 130.828 297.498C129.9 296.529 128.621 296.045 126.991 296.045C125.423 296.045 124.124 296.57 123.092 297.622C122.061 298.653 121.473 300.044 121.328 301.797Z" fill="black"/>
<path d="M143.444 311.321C141.67 311.321 140.277 310.826 139.266 309.837C138.256 308.827 137.75 307.26 137.75 305.136V294.901H139.39V305.044C139.39 308.28 140.865 309.899 143.815 309.899C145.238 309.899 146.476 309.445 147.528 308.538C148.58 307.61 149.106 306.342 149.106 304.734V294.901H150.746V311.074H149.106V307.981C148.714 308.93 148.013 309.723 147.002 310.362C145.991 311.001 144.805 311.321 143.444 311.321Z" fill="black"/>
<path d="M160.403 311.29C159.125 311.29 158.145 310.929 157.464 310.208C156.783 309.486 156.443 308.476 156.443 307.177V296.292H154.06V294.901H156.443V291.221H158.083V294.901H162.322V296.292H158.083V307.054C158.083 308.95 158.887 309.899 160.496 309.899C161.177 309.899 161.858 309.785 162.539 309.558V310.95C161.899 311.177 161.187 311.29 160.403 311.29Z" fill="black"/>
<path d="M166.279 311.074V294.901H167.919V298.302C168.971 295.973 170.797 294.767 173.396 294.684V296.23C169.745 296.375 167.919 298.333 167.919 302.106V311.074H166.279Z" fill="black"/>
<path d="M181.036 311.321C179.385 311.321 178.055 310.929 177.044 310.146C176.054 309.342 175.559 308.198 175.559 306.713C175.559 304.982 176.26 303.734 177.663 302.972C179.066 302.209 180.891 301.827 183.14 301.827H186.513V300.374C186.513 298.869 186.182 297.776 185.522 297.096C184.883 296.395 183.851 296.045 182.428 296.045C179.746 296.045 178.23 297.189 177.879 299.477H176.27C176.456 297.869 177.127 296.663 178.282 295.859C179.437 295.055 180.84 294.653 182.49 294.653C186.265 294.653 188.153 296.56 188.153 300.374V311.074H186.513V308.6C185.337 310.414 183.511 311.321 181.036 311.321ZM181.159 309.991C182.665 309.991 183.934 309.6 184.965 308.816C185.997 308.033 186.513 307.043 186.513 305.848V303.095H183.202C181.985 303.095 180.953 303.188 180.107 303.374C179.282 303.559 178.591 303.93 178.034 304.487C177.477 305.044 177.199 305.786 177.199 306.713C177.199 308.899 178.519 309.991 181.159 309.991Z" fill="black"/>
<path d="M193.174 311.074V287.17H194.845V311.074H193.174Z" fill="black"/>
<path d="M182.045 82.5279V60.4175H183.778V70.7151H196.805V60.4175H198.538V82.5279H196.805V72.1685H183.778V82.5279H182.045Z" fill="black"/>
<path d="M208.216 82.7753C206.566 82.7753 205.236 82.3836 204.225 81.6002C203.235 80.7962 202.74 79.652 202.74 78.1677C202.74 76.436 203.441 75.1887 204.844 74.4259C206.246 73.6631 208.072 73.2817 210.321 73.2817H213.693V71.8283C213.693 70.3234 213.363 69.2307 212.703 68.5504C212.064 67.8495 211.032 67.499 209.609 67.499C206.927 67.499 205.411 68.6432 205.06 70.9315H203.451C203.637 69.3235 204.307 68.1175 205.463 67.3135C206.618 66.5095 208.021 66.1074 209.671 66.1074C213.446 66.1074 215.333 68.0144 215.333 71.8283V82.5279H213.693V80.054C212.518 81.8682 210.692 82.7753 208.216 82.7753ZM208.34 81.4456C209.846 81.4456 211.115 81.0539 212.146 80.2705C213.178 79.4871 213.693 78.4976 213.693 77.3018V74.5496H210.382C209.165 74.5496 208.134 74.6424 207.288 74.8279C206.463 75.0135 205.772 75.3846 205.215 75.9412C204.658 76.4978 204.38 77.24 204.38 78.1677C204.38 80.353 205.7 81.4456 208.34 81.4456Z" fill="black"/>
<path d="M220.293 88.1561V66.3548H221.933V70.1275C222.428 69.0143 223.233 68.0659 224.347 67.2825C225.482 66.4991 226.73 66.1074 228.091 66.1074C230.175 66.1074 231.907 66.8496 233.289 68.334C234.672 69.8183 235.363 71.7974 235.363 74.2713V74.5187C235.363 77.0132 234.682 79.0129 233.32 80.5179C231.959 82.0229 230.216 82.7753 228.091 82.7753C226.585 82.7753 225.296 82.4042 224.223 81.6621C223.171 80.8993 222.408 79.9613 221.933 78.848V88.1561H220.293ZM227.967 81.3838C229.7 81.3838 231.082 80.7859 232.114 79.5902C233.145 78.3739 233.661 76.704 233.661 74.5805V74.3332C233.661 72.1891 233.114 70.5192 232.021 69.3235C230.927 68.1072 229.566 67.499 227.936 67.499C226.265 67.499 224.842 68.1072 223.666 69.3235C222.49 70.5398 221.902 72.2097 221.902 74.3332V74.5805C221.902 76.7246 222.47 78.3945 223.604 79.5902C224.76 80.7859 226.214 81.3838 227.967 81.3838Z" fill="black"/>
<path d="M239.24 88.1561V66.3548H240.88V70.1275C241.375 69.0143 242.18 68.0659 243.293 67.2825C244.428 66.4991 245.676 66.1074 247.038 66.1074C249.121 66.1074 250.854 66.8496 252.236 68.334C253.618 69.8183 254.309 71.7974 254.309 74.2713V74.5187C254.309 77.0132 253.628 79.0129 252.267 80.5179C250.905 82.0229 249.162 82.7753 247.038 82.7753C245.532 82.7753 244.242 82.4042 243.17 81.6621C242.118 80.8993 241.354 79.9613 240.88 78.848V88.1561H239.24ZM246.914 81.3838C248.647 81.3838 250.029 80.7859 251.06 79.5902C252.092 78.3739 252.607 76.704 252.607 74.5805V74.3332C252.607 72.1891 252.061 70.5192 250.967 69.3235C249.874 68.1072 248.512 67.499 246.883 67.499C245.212 67.499 243.789 68.1072 242.613 69.3235C241.437 70.5398 240.849 72.2097 240.849 74.3332V74.5805C240.849 76.7246 241.416 78.3945 242.551 79.5902C243.706 80.7859 245.16 81.3838 246.914 81.3838Z" fill="black"/>
<path d="M259.586 88.1561L262.526 81.1364L256.12 66.3548H257.884L263.423 79.25L268.591 66.3548H270.261L261.288 88.1561H259.586Z" fill="black"/>
<path d="M486.884 196.559L494.836 174.449H497.126L505.078 196.559H503.346L500.901 189.787H490.937L488.524 196.559H486.884ZM495.919 175.871L491.432 188.395H500.406L495.919 175.871Z" fill="black"/>
<path d="M508.646 196.559V180.386H510.286V183.54C510.678 182.592 511.39 181.788 512.421 181.128C513.452 180.469 514.649 180.139 516.01 180.139C517.805 180.139 519.208 180.664 520.219 181.716C521.25 182.767 521.766 184.396 521.766 186.602V196.559H520.126V186.509C520.126 183.21 518.63 181.561 515.639 181.561C514.195 181.561 512.937 182.025 511.864 182.953C510.812 183.88 510.286 185.148 510.286 186.756V196.559H508.646Z" fill="black"/>
<path d="M533.06 202.373C530.853 202.373 529.151 201.909 527.955 200.981C526.758 200.074 526.046 198.909 525.82 197.487H527.49C527.986 199.817 529.832 200.981 533.029 200.981C534.865 200.981 536.299 200.528 537.33 199.621C538.382 198.734 538.908 197.332 538.908 195.415V192.106C538.434 193.178 537.64 194.106 536.526 194.889C535.432 195.652 534.184 196.033 532.782 196.033C530.678 196.033 528.934 195.322 527.552 193.9C526.17 192.477 525.479 190.612 525.479 188.303V188.086C525.479 185.798 526.191 183.901 527.614 182.396C529.058 180.891 530.853 180.139 532.998 180.139C535.763 180.139 537.733 181.386 538.908 183.88V180.386H540.548V195.477C540.528 197.765 539.837 199.487 538.475 200.641C537.134 201.796 535.329 202.373 533.06 202.373ZM532.936 194.642C534.628 194.642 536.051 194.065 537.207 192.91C538.362 191.735 538.939 190.168 538.939 188.21V187.962C538.939 185.963 538.403 184.396 537.33 183.262C536.278 182.108 534.886 181.53 533.153 181.53C531.4 181.53 529.966 182.118 528.852 183.293C527.738 184.468 527.181 186.045 527.181 188.024V188.272C527.181 190.23 527.728 191.787 528.821 192.941C529.914 194.075 531.286 194.642 532.936 194.642Z" fill="black"/>
<path d="M545.632 196.559V180.386H547.272V183.788C548.324 181.458 550.15 180.252 552.749 180.17V181.716C549.098 181.86 547.272 183.819 547.272 187.591V196.559H545.632Z" fill="black"/>
<path d="M558.243 202.187L561.182 195.168L554.777 180.386H556.541L562.08 193.281L567.247 180.386H568.918L559.945 202.187H558.243Z" fill="black"/>
<path d="M301.486 311.321C298.908 311.321 296.948 310.723 295.607 309.527C294.287 308.311 293.503 306.713 293.255 304.734H294.957C295.411 308.177 297.587 309.899 301.486 309.899C303.198 309.899 304.58 309.455 305.632 308.569C306.685 307.682 307.211 306.548 307.211 305.167C307.211 303.642 306.777 302.539 305.911 301.858C305.065 301.178 303.518 300.663 301.27 300.312C298.794 299.941 296.979 299.312 295.824 298.426C294.689 297.519 294.122 296.21 294.122 294.499C294.122 292.787 294.761 291.396 296.04 290.324C297.34 289.252 299.021 288.716 301.084 288.716C303.126 288.716 304.756 289.2 305.973 290.169C307.211 291.138 307.953 292.509 308.201 294.282H306.623C306.086 291.52 304.24 290.138 301.084 290.138C299.392 290.138 298.072 290.509 297.123 291.252C296.195 291.994 295.731 293.035 295.731 294.375C295.731 295.632 296.143 296.601 296.968 297.282C297.794 297.941 299.32 298.436 301.548 298.766C304.147 299.158 306.014 299.807 307.149 300.714C308.304 301.601 308.881 303.044 308.881 305.044C308.881 306.816 308.19 308.311 306.808 309.527C305.447 310.723 303.673 311.321 301.486 311.321Z" fill="black"/>
<path d="M317.408 311.321C315.758 311.321 314.427 310.929 313.417 310.146C312.426 309.342 311.931 308.198 311.931 306.713C311.931 304.982 312.633 303.734 314.035 302.972C315.438 302.209 317.264 301.827 319.512 301.827H322.885V300.374C322.885 298.869 322.555 297.776 321.895 297.096C321.255 296.395 320.224 296.045 318.801 296.045C316.119 296.045 314.603 297.189 314.252 299.477H312.643C312.829 297.869 313.499 296.663 314.654 295.859C315.809 295.055 317.212 294.653 318.862 294.653C322.638 294.653 324.525 296.56 324.525 300.374V311.074H322.885V308.6C321.709 310.414 319.884 311.321 317.408 311.321ZM317.532 309.991C319.038 309.991 320.306 309.6 321.338 308.816C322.369 308.033 322.885 307.043 322.885 305.848V303.095H319.574C318.357 303.095 317.326 303.188 316.48 303.374C315.655 303.559 314.964 303.93 314.407 304.487C313.85 305.044 313.571 305.786 313.571 306.713C313.571 308.899 314.892 309.991 317.532 309.991Z" fill="black"/>
<path d="M335.55 311.321C333.425 311.321 331.682 310.599 330.321 309.156C328.959 307.693 328.278 305.714 328.278 303.219V302.972C328.278 300.518 328.99 298.519 330.413 296.972C331.837 295.426 333.631 294.653 335.797 294.653C338.562 294.653 340.532 295.931 341.708 298.488V287.17H343.348V311.074H341.708V307.332C341.233 308.404 340.439 309.342 339.325 310.146C338.232 310.929 336.973 311.321 335.55 311.321ZM335.705 309.929C337.417 309.929 338.851 309.332 340.006 308.136C341.161 306.92 341.739 305.239 341.739 303.095V302.848C341.739 300.683 341.202 299.013 340.129 297.838C339.077 296.643 337.685 296.045 335.952 296.045C334.178 296.045 332.734 296.653 331.62 297.869C330.527 299.086 329.98 300.766 329.98 302.91V303.157C329.98 305.301 330.517 306.971 331.589 308.167C332.662 309.342 334.034 309.929 335.705 309.929Z" fill="black"/>
</svg>
